<svg width="337" height="253" viewBox="0 0 337 253" fill="none" xmlns="http://www.w3.org/2000/svg">
<path d="M116.339 57.8452L122.877 53.7589C127.1 51.1709 133.093 51.5795 139.495 55.5296C139.767 55.6658 140.04 55.9382 140.449 56.0744C143.854 58.1176 144.126 58.2538 143.99 58.39L144.807 66.835C141.538 64.6557 137.316 62.2039 133.774 60.1607C133.502 60.0245 133.229 59.7521 132.821 59.6159C126.419 55.9382 120.562 55.5296 116.339 57.8452Z" fill="url(#paint0_linear)"/>
<path d="M160.063 7.9921L166.602 3.9058C177.498 -2.22365 192.618 -1.40639 208.963 8.26452L202.425 12.3508C186.08 2.5437 170.96 1.59023 160.063 7.9921Z" fill="#D5F9FD"/>
<path d="M202.424 12.2142L208.962 8.12793C226.942 18.7523 243.151 37.2769 253.912 58.2532L247.374 62.3395C236.477 41.3632 220.404 22.7024 202.424 12.2142Z" fill="#D5F9FD"/>
<path d="M330.189 212.307L322.97 216.666C327.192 214.35 330.462 208.63 330.462 201.274C330.598 186.427 320.11 168.039 307.033 160.547C306.08 160.003 305.263 159.458 304.037 158.913C302.402 157.959 300.223 156.734 298.316 155.78L304.718 151.558C306.489 152.647 308.94 153.873 310.575 154.827C311.665 155.371 312.618 155.916 313.571 156.461C326.511 164.089 337 182.341 337 197.188C337 204.543 334.412 209.856 330.189 212.307Z" fill="url(#paint1_linear)"/>
<path d="M247.373 62.2042L253.911 58.1179C259.632 57.8454 266.034 59.48 272.844 63.5663C294.229 76.2338 311.664 106.336 311.528 131.263C311.392 140.116 309.212 147.199 305.262 151.967L298.179 156.325C301.993 151.558 304.581 144.339 304.581 135.349C304.717 110.559 287.827 80.1839 266.17 67.6526C259.496 63.5663 252.821 61.7955 247.373 62.2042Z" fill="url(#paint2_linear)"/>
<path opacity="0.3" d="M202.969 11.9416C220.948 22.566 237.157 41.0906 247.918 62.0669C253.639 61.7945 260.041 63.429 266.851 67.5153C288.236 80.1829 305.671 110.285 305.535 135.212C305.399 148.697 311.119 141.341 299.405 155.779C301.176 156.869 303.083 157.823 304.717 158.776C305.807 159.321 306.761 159.866 307.714 160.411C320.654 168.038 331.142 186.29 331.142 201.137C331.142 206.45 328.146 226.609 307.578 214.486C296.136 207.948 143.581 119.139 133.91 113.554C120.97 105.927 110.482 87.6744 110.482 72.8275C110.618 57.9806 121.243 51.9874 134.182 59.4789C134.455 59.6151 134.727 59.8876 135.136 60.0238C138.541 62.0669 142.083 64.1101 145.352 66.2894C143.99 59.4789 143.172 52.6684 143.172 46.2665C143.309 -1.8156 177.906 -2.63286 202.969 11.9416Z" fill="url(#paint3_linear)"/>
<path d="M175.727 3.90421L175.863 5.94736C183.899 6.08357 192.481 8.67156 201.743 13.8475C218.769 23.9271 234.978 41.7706 246.147 63.2918C246.42 63.8366 247.101 64.2453 247.782 64.2453C247.782 64.2453 247.782 64.2453 247.918 64.2453C248.191 64.2453 248.872 64.2453 249.28 64.2453C254.456 64.2453 259.905 66.016 265.762 69.5575C286.602 81.8164 303.764 111.374 303.628 135.483C303.492 143.52 301.449 150.194 297.771 154.825C297.362 155.097 297.226 155.778 297.362 156.323C297.499 156.868 297.635 157.277 298.316 157.685C300.087 158.775 301.994 159.729 303.356 160.682L304.99 161.635L306.352 162.317C318.884 169.536 328.963 187.107 328.827 201.409C328.691 210.671 324.332 216.256 317.521 216.256C314.525 216.256 311.256 215.166 307.987 213.259L134.319 112.191C121.788 104.972 111.708 87.401 111.844 73.0989C111.981 63.8366 116.339 58.252 123.15 58.252C126.146 58.252 129.415 59.3417 132.684 61.2486L132.957 61.3848L133.502 61.7935C137.179 63.9728 140.448 65.8798 143.581 67.9229C143.854 68.0592 144.262 68.3316 144.671 68.3316C144.943 68.3316 145.352 68.1954 145.761 68.0591C146.305 67.7867 146.714 66.9695 146.442 66.2884C145.08 59.4779 144.262 52.8036 144.262 46.538C144.398 21.6115 156.521 6.08357 175.591 6.08357L175.727 3.90421ZM175.727 3.90421C156.249 3.768 142.492 19.2959 142.492 46.1293C142.355 52.5312 143.173 59.3417 144.671 66.1522C141.402 63.9728 137.997 61.9297 134.455 59.8865C134.183 59.7503 133.91 59.4779 133.502 59.3417C129.688 57.1623 126.146 55.9364 123.014 55.9364C115.25 55.9364 109.937 61.9297 109.937 72.5541C109.801 87.401 120.289 105.789 133.365 113.281C143.036 118.866 295.592 207.811 307.033 214.349C310.847 216.528 314.389 217.754 317.521 217.754C325.285 217.89 330.598 211.761 330.598 201.136C330.734 186.289 320.246 167.901 307.17 160.41C306.216 159.865 305.399 159.32 304.173 158.775C302.538 157.822 300.904 156.732 298.861 155.778C302.675 151.011 304.99 144.337 304.99 135.211C305.126 110.42 287.964 80.0456 266.307 67.3781C260.041 63.7004 253.911 61.9297 248.735 61.9297C248.191 61.9297 247.918 62.0659 247.373 62.0659C236.613 41.0896 220.404 22.4288 202.152 11.9406C193.025 6.62841 183.899 3.90421 175.727 3.90421Z" fill="white"/>
<path opacity="0.08" d="M221.825 153.882L183.496 176.643L144.122 154.013L182.45 131.251L221.825 153.882Z" fill="#1F1D21"/>
<path d="M183.35 116.601V162.201L144 138.903L144.284 93.7295L183.35 116.601Z" fill="#1D4A79"/>
<path d="M183.35 116.6L221.847 93.7188V139.187L183.35 162.2V116.6Z" fill="#243A5E"/>
<path d="M144.284 93.729L182.497 71L221.847 93.729L183.352 116.605L144.284 93.729Z" fill="#156AB3"/>
<path d="M193.293 84.638C194.004 85.0642 194.004 85.7744 193.293 86.2006C192.583 86.6268 191.447 86.6268 190.736 86.2006C190.026 85.7744 190.026 85.0642 190.736 84.638C191.447 84.2118 192.583 84.2118 193.293 84.638Z" fill="#E9FCFE"/>
<path d="M188.89 82.0804C189.6 82.5065 189.6 83.2168 188.89 83.643C188.179 84.0692 187.043 84.0692 186.333 83.643C185.622 83.2168 185.622 82.5065 186.333 82.0804C187.043 81.6542 188.179 81.6542 188.89 82.0804Z" fill="#50E6FF"/>
<path d="M179.514 92.5931C180.224 93.0192 180.224 93.7295 179.514 94.1557C178.804 94.5818 177.667 94.5818 176.957 94.1557C176.247 93.7295 176.247 93.0192 176.957 92.5931C177.525 92.1669 178.804 92.1669 179.514 92.5931Z" fill="#50E6FF"/>
<path d="M175.394 94.8656C176.105 95.2918 176.105 96.0021 175.394 96.4283C174.684 96.8544 173.548 96.8544 172.837 96.4283C172.127 96.0021 172.127 95.2918 172.837 94.8656C173.548 94.4395 174.684 94.5815 175.394 94.8656Z" fill="#50E6FF"/>
<path d="M188.606 92.4505C189.316 92.8767 189.316 93.5869 188.606 94.0131C187.896 94.4393 186.759 94.4393 185.907 94.0131C185.196 93.5869 185.196 92.8767 185.907 92.4505C186.759 92.0243 187.896 92.0243 188.606 92.4505Z" fill="#E9FCFE"/>
<path d="M206.505 92.1663C207.215 92.5925 207.215 93.3028 206.505 93.7289C205.794 94.1551 204.658 94.1551 203.948 93.7289C203.237 93.3028 203.237 92.5925 203.948 92.1663C204.516 91.7401 205.794 91.7401 206.505 92.1663Z" fill="#50E6FF"/>
<path d="M197.413 92.4505C198.123 92.8767 198.123 93.5869 197.413 94.0131C196.703 94.4393 195.566 94.4393 194.856 94.0131C194.146 93.5869 194.146 92.8767 194.856 92.4505C195.424 92.0243 196.703 92.0243 197.413 92.4505Z" fill="#50E6FF"/>
<path d="M201.817 94.8655C202.527 95.2917 202.527 96.002 201.817 96.4281C201.106 96.8543 199.97 96.8543 199.26 96.4281C198.549 96.002 198.549 95.2917 199.26 94.8655C199.828 94.4394 201.106 94.4394 201.817 94.8655Z" fill="#50E6FF"/>
<path d="M193.009 94.8656C193.719 95.2918 193.719 96.0021 193.009 96.4283C192.299 96.8544 191.162 96.8544 190.452 96.4283C189.742 96.0021 189.742 95.2918 190.452 94.8656C191.162 94.5815 192.299 94.4395 193.009 94.8656Z" fill="#32B0E7"/>
<path d="M197.413 97.4231C198.123 97.8493 198.123 98.5596 197.413 98.9858C196.703 99.4119 195.566 99.4119 194.856 98.9858C194.146 98.5596 194.146 97.8493 194.856 97.4231C195.566 96.997 196.703 96.997 197.413 97.4231Z" fill="#50E6FF"/>
<path d="M193.009 89.8938C193.719 90.32 193.719 91.0303 193.009 91.4565C192.299 91.8826 191.162 91.8826 190.31 91.4565C189.6 91.0303 189.6 90.32 190.31 89.8938C191.02 89.4677 192.299 89.4677 193.009 89.8938Z" fill="#50E6FF"/>
<path d="M179.798 82.2229C180.508 82.6491 180.508 83.3594 179.798 83.7856C179.088 84.2117 177.951 84.2117 177.241 83.7856C176.531 83.3594 176.531 82.6491 177.241 82.2229C177.809 81.7968 179.088 81.7968 179.798 82.2229Z" fill="#50E6FF"/>
<path d="M184.202 84.7796C184.912 85.2058 184.912 85.916 184.202 86.3422C183.492 86.7684 182.355 86.7684 181.645 86.3422C180.935 85.916 180.935 85.2058 181.645 84.7796C182.213 84.3534 183.492 84.3534 184.202 84.7796Z" fill="#50E6FF"/>
<path d="M175.394 84.7796C176.105 85.2058 176.105 85.916 175.394 86.3422C174.684 86.7684 173.548 86.7684 172.837 86.3422C172.127 85.916 172.127 85.2058 172.837 84.7796C173.548 84.3534 174.684 84.3534 175.394 84.7796Z" fill="#50E6FF"/>
<path d="M188.605 87.3372C189.316 87.7634 189.316 88.4737 188.605 88.8998C187.895 89.326 186.759 89.326 186.048 88.8998C185.338 88.4737 185.338 87.7634 186.048 87.3372C186.617 86.911 187.895 86.911 188.605 87.3372Z" fill="#E9FCFE"/>
<path d="M179.798 87.3372C180.508 87.7634 180.508 88.4737 179.798 88.8998C179.088 89.326 177.951 89.326 177.241 88.8998C176.531 88.4737 176.531 87.7634 177.241 87.3372C177.951 86.911 179.088 86.911 179.798 87.3372Z" fill="#32B0E7"/>
<path d="M184.202 89.8938C184.912 90.32 184.912 91.0303 184.202 91.4565C183.492 91.8826 182.355 91.8826 181.645 91.4565C180.935 91.0303 180.935 90.32 181.645 89.8938C182.355 89.4677 183.492 89.4677 184.202 89.8938Z" fill="#50E6FF"/>
<path d="M175.11 90.0354C175.821 90.4616 175.821 91.1719 175.11 91.5981C174.4 92.0242 173.263 92.0242 172.553 91.5981C171.843 91.1719 171.843 90.4616 172.553 90.0354C173.263 89.6093 174.4 89.6093 175.11 90.0354Z" fill="#32B0E7"/>
<path d="M166.303 95.1497C167.013 95.5759 167.013 96.2862 166.303 96.7123C165.592 97.1385 164.456 97.1385 163.746 96.7123C163.035 96.2862 163.035 95.5759 163.746 95.1497C164.456 94.7235 165.592 94.7235 166.303 95.1497Z" fill="#D5F9FD"/>
<path d="M170.991 92.4505C171.701 92.8767 171.701 93.5869 170.991 94.0131C170.28 94.4393 169.144 94.4393 168.434 94.0131C167.723 93.5869 167.723 92.8767 168.434 92.4505C169.144 92.0243 170.28 92.0243 170.991 92.4505Z" fill="#D5F9FD"/>
<path d="M166.729 89.8938C167.439 90.32 167.439 91.0303 166.729 91.4565C166.019 91.8826 164.882 91.8826 164.172 91.4565C163.462 91.0303 163.462 90.32 164.172 89.8938C164.74 89.4677 165.877 89.4677 166.729 89.8938Z" fill="#32B0E7"/>
<path d="M170.706 87.4788C171.417 87.905 171.417 88.6153 170.706 89.0414C169.996 89.4676 168.86 89.4676 168.149 89.0414C167.439 88.6153 167.439 87.905 168.149 87.4788C168.86 87.0526 169.996 87.0526 170.706 87.4788Z" fill="#50E6FF"/>
<path d="M184.486 79.5237C185.196 79.9499 185.196 80.6602 184.486 81.0863C183.776 81.5125 182.639 81.5125 181.929 81.0863C181.219 80.6602 181.219 79.9499 181.929 79.5237C182.639 79.0976 183.776 79.0976 184.486 79.5237Z" fill="#E9FCFE"/>
<path d="M161.899 92.5931C162.61 93.0192 162.61 93.7295 161.899 94.1557C161.189 94.5818 160.053 94.5818 159.342 94.1557C158.632 93.7295 158.632 93.0192 159.342 92.5931C160.053 92.1669 161.189 92.1669 161.899 92.5931Z" fill="#D5F9FD"/>
<path d="M192.725 100.264C193.436 100.69 193.436 101.4 192.725 101.827C192.015 102.253 190.879 102.253 190.168 101.827C189.458 101.4 189.458 100.69 190.168 100.264C190.737 99.8378 192.015 99.8378 192.725 100.264Z" fill="#32B0E7"/>
<path d="M179.798 97.4231C180.508 97.8493 180.508 98.5596 179.798 98.9858C179.088 99.4119 177.951 99.4119 177.241 98.9858C176.531 98.5596 176.531 97.8493 177.241 97.4231C177.951 96.997 179.088 96.997 179.798 97.4231Z" fill="#50E6FF"/>
<path d="M184.202 99.9798C184.912 100.406 184.912 101.116 184.202 101.542C183.492 101.969 182.355 101.969 181.645 101.542C180.935 101.116 180.935 100.406 181.645 99.9798C182.355 99.5536 183.492 99.5536 184.202 99.9798Z" fill="#E9FCFE"/>
<path d="M175.11 100.264C175.821 100.69 175.821 101.4 175.11 101.827C174.4 102.253 173.263 102.253 172.553 101.827C171.843 101.4 171.843 100.69 172.553 100.264C173.263 99.8378 174.4 99.8378 175.11 100.264Z" fill="#E9FCFE"/>
<path d="M188.605 102.536C189.316 102.963 189.316 103.673 188.605 104.099C187.895 104.525 186.759 104.525 186.048 104.099C185.338 103.673 185.338 102.963 186.048 102.536C186.759 102.11 187.895 102.11 188.605 102.536Z" fill="#50E6FF"/>
<path d="M179.514 102.679C180.224 103.105 180.224 103.815 179.514 104.242C178.804 104.668 177.667 104.668 176.957 104.242C176.247 103.815 176.247 103.105 176.957 102.679C177.667 102.395 178.804 102.395 179.514 102.679Z" fill="#32B0E7"/>
<path d="M183.918 105.236C184.628 105.662 184.628 106.372 183.918 106.798C183.208 107.224 182.071 107.224 181.361 106.798C180.651 106.372 180.651 105.662 181.361 105.236C182.071 104.809 183.208 104.809 183.918 105.236Z" fill="#50E6FF"/>
<path d="M170.706 97.7073C171.417 98.1335 171.417 98.8438 170.706 99.2699C169.996 99.6961 168.86 99.6961 168.149 99.2699C167.439 98.8438 167.439 98.1335 168.149 97.7073C168.86 97.2812 169.996 97.2812 170.706 97.7073Z" fill="#50E6FF"/>
<path d="M183.918 95.1497C184.628 95.5759 184.628 96.2862 183.918 96.7123C183.208 97.1385 182.071 97.1385 181.361 96.7123C180.651 96.2862 180.651 95.5759 181.361 95.1497C181.929 94.7235 183.208 94.7235 183.918 95.1497Z" fill="#50E6FF"/>
<path d="M202.101 89.6097C202.811 90.0358 202.811 90.7461 202.101 91.1723C201.391 91.5984 200.254 91.5984 199.544 91.1723C198.834 90.7461 198.834 90.0358 199.544 89.6097C200.112 89.1835 201.391 89.1835 202.101 89.6097Z" fill="#50E6FF"/>
<path d="M197.697 87.053C198.407 87.4792 198.407 88.1895 197.697 88.6156C196.987 89.0418 195.85 89.0418 195.14 88.6156C194.43 88.1895 194.43 87.4792 195.14 87.053C195.708 86.6269 196.987 86.6269 197.697 87.053Z" fill="#50E6FF"/>
<path d="M188.322 97.7073C189.032 98.1335 189.032 98.8438 188.322 99.2699C187.611 99.6961 186.475 99.6961 185.765 99.2699C185.054 98.8438 185.054 98.1335 185.765 97.7073C186.333 97.2812 187.611 97.2812 188.322 97.7073Z" fill="#32B0E7"/>
<path d="M192.441 130.379C193.151 129.953 193.72 130.237 193.72 131.09C193.72 131.942 193.151 132.936 192.441 133.363C191.731 133.789 191.163 133.505 191.163 132.652C191.163 131.8 191.731 130.806 192.441 130.379Z" fill="#156AB3"/>
<path d="M192.441 135.778C193.151 135.352 193.72 135.636 193.72 136.488C193.72 137.34 193.151 138.335 192.441 138.761C191.731 139.187 191.163 138.903 191.163 138.051C191.163 137.198 191.731 136.204 192.441 135.778Z" fill="#32B0E7"/>
<path d="M192.441 120.152C193.151 119.726 193.72 120.01 193.72 120.862C193.72 121.714 193.151 122.709 192.441 123.135C191.731 123.561 191.163 123.277 191.163 122.425C191.163 121.43 191.731 120.436 192.441 120.152Z" fill="#156AB3"/>
<path d="M192.441 125.408C193.151 124.982 193.72 125.266 193.72 126.118C193.72 126.97 193.151 127.965 192.441 128.391C191.731 128.817 191.163 128.533 191.163 127.681C191.163 126.828 191.731 125.834 192.441 125.408Z" fill="#156AB3"/>
<path d="M192.441 140.324C193.151 139.898 193.72 140.182 193.72 141.034C193.72 141.886 193.151 142.881 192.441 143.307C191.731 143.733 191.163 143.449 191.163 142.597C191.163 141.744 191.731 140.75 192.441 140.324Z" fill="#50E6FF"/>
<path d="M192.441 145.58C193.151 145.153 193.72 145.438 193.72 146.29C193.72 147.142 193.151 148.137 192.441 148.563C191.731 148.989 191.163 148.705 191.163 147.852C191.163 147 191.731 146.006 192.441 145.58Z" fill="#156AB3"/>
<path d="M196.703 127.964C197.413 127.538 197.981 127.822 197.981 128.675C197.981 129.527 197.413 130.521 196.703 130.948C195.993 131.374 195.424 131.09 195.424 130.237C195.424 129.243 195.993 128.248 196.703 127.964Z" fill="#50E6FF"/>
<path d="M196.703 133.221C197.413 132.795 197.981 133.079 197.981 133.931C197.981 134.784 197.413 135.778 196.703 136.204C195.993 136.631 195.424 136.346 195.424 135.494C195.424 134.642 195.993 133.647 196.703 133.221Z" fill="#E9FCFE"/>
<path d="M196.703 117.595C197.413 117.169 197.981 117.453 197.981 118.305C197.981 119.158 197.413 120.152 196.703 120.578C195.993 121.005 195.424 120.72 195.424 119.868C195.424 119.016 195.993 118.021 196.703 117.595Z" fill="#156AB3"/>
<path d="M196.703 122.993C197.413 122.567 197.981 122.851 197.981 123.703C197.981 124.555 197.413 125.55 196.703 125.976C195.993 126.402 195.424 126.118 195.424 125.266C195.424 124.413 195.993 123.277 196.703 122.993Z" fill="#156AB3"/>
<path d="M196.703 137.767C197.413 137.341 197.981 137.625 197.981 138.477C197.981 139.33 197.413 140.324 196.703 140.75C195.993 141.176 195.424 140.892 195.424 140.04C195.424 139.188 195.993 138.193 196.703 137.767Z" fill="#156AB3"/>
<path d="M196.703 143.165C197.413 142.738 197.981 143.022 197.981 143.875C197.981 144.727 197.413 145.722 196.703 146.148C195.993 146.574 195.424 146.29 195.424 145.437C195.424 144.585 195.993 143.591 196.703 143.165Z" fill="#156AB3"/>
<path d="M201.106 125.408C201.817 124.982 202.385 125.266 202.385 126.118C202.385 126.97 201.817 127.965 201.106 128.391C200.396 128.817 199.828 128.533 199.828 127.681C199.686 126.828 200.396 125.834 201.106 125.408Z" fill="#50E6FF"/>
<path d="M201.107 130.806C201.817 130.38 202.385 130.664 202.385 131.516C202.385 132.369 201.817 133.363 201.107 133.789C200.396 134.215 199.828 133.931 199.828 133.079C199.828 132.085 200.396 131.09 201.107 130.806Z" fill="#156AB3"/>
<path d="M200.965 115.038C201.675 114.611 202.243 114.896 202.243 115.748C202.243 116.6 201.675 117.595 200.965 118.021C200.254 118.447 199.686 118.163 199.686 117.31C199.686 116.458 200.254 115.464 200.965 115.038Z" fill="#50E6FF"/>
<path d="M200.965 120.436C201.675 120.01 202.243 120.294 202.243 121.146C202.243 121.999 201.675 122.993 200.965 123.419C200.254 123.845 199.686 123.561 199.686 122.709C199.686 121.857 200.254 120.862 200.965 120.436Z" fill="#32B0E7"/>
<path d="M201.107 135.352C201.817 134.926 202.385 135.21 202.385 136.062C202.385 136.915 201.817 137.909 201.107 138.335C200.396 138.761 199.828 138.477 199.828 137.625C199.828 136.773 200.396 135.778 201.107 135.352Z" fill="#50E6FF"/>
<path d="M201.107 140.608C201.817 140.182 202.385 140.466 202.385 141.318C202.385 142.171 201.817 143.165 201.107 143.591C200.396 144.017 199.828 143.733 199.828 142.881C199.828 142.028 200.396 141.034 201.107 140.608Z" fill="#156AB3"/>
<path d="M205.368 122.851C206.079 122.425 206.647 122.709 206.647 123.561C206.647 124.414 206.079 125.408 205.368 125.834C204.658 126.26 204.09 125.976 204.09 125.124C204.09 124.272 204.658 123.277 205.368 122.851Z" fill="#156AB3"/>
<path d="M205.368 128.249C206.079 127.822 206.647 128.106 206.647 128.959C206.647 129.811 206.079 130.806 205.368 131.232C204.658 131.658 204.09 131.374 204.09 130.521C204.09 129.669 204.658 128.675 205.368 128.249Z" fill="#50E6FF"/>
<path d="M205.368 112.623C206.079 112.196 206.647 112.48 206.647 113.333C206.647 114.185 206.079 115.18 205.368 115.606C204.658 116.032 204.09 115.748 204.09 114.895C204.09 114.043 204.658 113.049 205.368 112.623Z" fill="#156AB3"/>
<path d="M205.368 118.021C206.079 117.595 206.647 117.879 206.647 118.731C206.647 119.584 206.079 120.578 205.368 121.004C204.658 121.43 204.09 121.146 204.09 120.294C204.09 119.299 204.658 118.305 205.368 118.021Z" fill="#156AB3"/>
<path d="M205.368 132.794C206.079 132.368 206.647 132.652 206.647 133.505C206.647 134.357 206.079 135.351 205.368 135.778C204.658 136.204 204.09 135.92 204.09 135.067C204.09 134.215 204.658 133.221 205.368 132.794Z" fill="#156AB3"/>
<path d="M205.368 138.193C206.079 137.767 206.647 138.051 206.647 138.903C206.647 139.755 206.079 140.75 205.368 141.176C204.658 141.602 204.09 141.318 204.09 140.466C204.09 139.613 204.658 138.619 205.368 138.193Z" fill="#32B0E7"/>
<path d="M209.63 120.436C210.34 120.01 210.909 120.294 210.909 121.146C210.909 121.999 210.34 122.993 209.63 123.419C208.92 123.845 208.352 123.561 208.352 122.709C208.352 121.857 208.92 120.862 209.63 120.436Z" fill="#156AB3"/>
<path d="M209.63 125.692C210.34 125.266 210.909 125.55 210.909 126.402C210.909 127.255 210.34 128.249 209.63 128.675C208.92 129.101 208.352 128.817 208.352 127.965C208.352 127.112 208.92 126.118 209.63 125.692Z" fill="#156AB3"/>
<path d="M209.63 110.066C210.34 109.64 210.909 109.924 210.909 110.776C210.909 111.629 210.34 112.623 209.63 113.049C208.92 113.475 208.352 113.191 208.352 112.339C208.352 111.486 208.92 110.492 209.63 110.066Z" fill="#E9FCFE"/>
<path d="M209.63 115.464C210.34 115.038 210.909 115.322 210.909 116.175C210.909 117.027 210.34 118.021 209.63 118.448C208.92 118.874 208.352 118.59 208.352 117.737C208.352 116.885 208.92 115.891 209.63 115.464Z" fill="#50E6FF"/>
<path d="M209.772 130.379C210.482 129.953 211.05 130.237 211.05 131.09C211.05 131.942 210.482 132.936 209.772 133.363C209.062 133.789 208.493 133.505 208.493 132.652C208.351 131.8 209.062 130.806 209.772 130.379Z" fill="#156AB3"/>
<path d="M209.772 135.636C210.482 135.21 211.051 135.494 211.051 136.347C211.051 137.199 210.482 138.193 209.772 138.619C209.062 139.046 208.494 138.761 208.494 137.909C208.494 137.057 209.062 136.062 209.772 135.636Z" fill="#32B0E7"/>
<path d="M214.034 117.878C214.744 117.452 215.312 117.736 215.312 118.589C215.312 119.441 214.744 120.435 214.034 120.862C213.324 121.288 212.755 121.004 212.755 120.151C212.755 119.299 213.324 118.305 214.034 117.878Z" fill="#156AB3"/>
<path d="M214.034 123.277C214.744 122.851 215.312 123.135 215.312 123.987C215.312 124.839 214.744 125.834 214.034 126.26C213.324 126.686 212.755 126.402 212.755 125.55C212.755 124.697 213.324 123.703 214.034 123.277Z" fill="#156AB3"/>
<path d="M214.034 107.651C214.744 107.225 215.312 107.509 215.312 108.361C215.312 109.213 214.744 110.208 214.034 110.634C213.323 111.06 212.755 110.776 212.755 109.924C212.613 109.071 213.181 108.077 214.034 107.651Z" fill="#50E6FF"/>
<path d="M214.034 112.907C214.744 112.481 215.312 112.765 215.312 113.617C215.312 114.469 214.744 115.464 214.034 115.89C213.324 116.316 212.755 116.032 212.755 115.18C212.755 114.327 213.324 113.333 214.034 112.907Z" fill="#156AB3"/>
<path d="M214.933 129.856C215.445 128.974 215.476 128.035 215.001 127.759C214.526 127.483 213.726 127.975 213.213 128.856C212.701 129.738 212.671 130.677 213.145 130.953C213.62 131.229 214.421 130.737 214.933 129.856Z" fill="#156AB3"/>
<path d="M214.034 133.221C214.744 132.795 215.312 133.079 215.312 133.931C215.312 134.784 214.744 135.778 214.034 136.204C213.324 136.631 212.755 136.346 212.755 135.494C212.755 134.642 213.324 133.647 214.034 133.221Z" fill="#156AB3"/>
<path d="M174.116 130.522C173.406 130.096 172.837 130.38 172.837 131.232C172.837 132.085 173.406 133.079 174.116 133.505C174.826 133.931 175.394 133.647 175.394 132.795C175.536 131.943 174.826 130.948 174.116 130.522Z" fill="#156AB3"/>
<path d="M174.116 135.92C173.406 135.494 172.837 135.778 172.837 136.631C172.837 137.483 173.406 138.477 174.116 138.904C174.826 139.33 175.394 139.046 175.394 138.193C175.394 137.341 174.826 136.347 174.116 135.92Z" fill="#156AB3"/>
<path d="M174.258 120.293C173.548 119.867 172.979 120.151 172.979 121.004C172.979 121.856 173.548 122.85 174.258 123.277C174.968 123.703 175.537 123.419 175.537 122.566C175.537 121.714 174.968 120.72 174.258 120.293Z" fill="#156AB3"/>
<path d="M174.258 125.55C173.548 125.124 172.979 125.408 172.979 126.261C172.979 127.113 173.548 128.107 174.258 128.533C174.968 128.96 175.537 128.676 175.537 127.823C175.537 126.971 174.968 125.976 174.258 125.55Z" fill="#156AB3"/>
<path d="M174.116 140.465C173.406 140.039 172.837 140.323 172.837 141.176C172.837 142.028 173.406 143.022 174.116 143.449C174.826 143.875 175.394 143.591 175.394 142.738C175.394 141.886 174.826 140.891 174.116 140.465Z" fill="#50E6FF"/>
<path d="M174.116 145.864C173.406 145.438 172.837 145.722 172.837 146.574C172.837 147.426 173.406 148.421 174.116 148.847C174.826 149.273 175.394 148.989 175.394 148.137C175.394 147.142 174.826 146.148 174.116 145.864Z" fill="#156AB3"/>
<path d="M169.854 128.107C169.144 127.681 168.576 127.965 168.576 128.817C168.576 129.67 169.144 130.664 169.854 131.09C170.564 131.516 171.133 131.232 171.133 130.38C171.133 129.527 170.564 128.533 169.854 128.107Z" fill="#50E6FF"/>
<path d="M169.854 133.363C169.144 132.937 168.576 133.221 168.576 134.073C168.576 134.925 169.144 135.92 169.854 136.346C170.564 136.772 171.133 136.488 171.133 135.636C171.133 134.783 170.564 133.789 169.854 133.363Z" fill="#E9FCFE"/>
<path d="M169.854 117.737C169.144 117.311 168.576 117.595 168.576 118.447C168.576 119.299 169.144 120.294 169.854 120.72C170.564 121.146 171.133 120.862 171.133 120.01C171.133 119.157 170.564 118.163 169.854 117.737Z" fill="#156AB3"/>
<path d="M169.854 123.135C169.144 122.709 168.576 122.993 168.576 123.846C168.576 124.698 169.144 125.692 169.854 126.118C170.564 126.545 171.133 126.26 171.133 125.408C171.133 124.556 170.564 123.561 169.854 123.135Z" fill="#32B0E7"/>
<path d="M169.854 137.909C169.144 137.483 168.576 137.767 168.576 138.619C168.576 139.471 169.144 140.466 169.854 140.892C170.564 141.318 171.133 141.034 171.133 140.182C171.133 139.329 170.564 138.335 169.854 137.909Z" fill="#156AB3"/>
<path d="M169.854 143.307C169.144 142.881 168.576 143.165 168.576 144.017C168.576 144.87 169.144 145.864 169.854 146.29C170.564 146.716 171.133 146.432 171.133 145.58C171.133 144.728 170.564 143.733 169.854 143.307Z" fill="#156AB3"/>
<path d="M165.592 125.55C164.882 125.124 164.314 125.408 164.314 126.261C164.314 127.113 164.882 128.107 165.592 128.533C166.303 128.96 166.871 128.676 166.871 127.823C166.871 126.971 166.303 125.976 165.592 125.55Z" fill="#50E6FF"/>
<path d="M165.592 130.948C164.882 130.522 164.314 130.806 164.314 131.658C164.314 132.51 164.882 133.505 165.592 133.931C166.303 134.357 166.871 134.073 166.871 133.221C166.871 132.368 166.303 131.374 165.592 130.948Z" fill="#156AB3"/>
<path d="M165.592 115.322C164.882 114.896 164.314 115.18 164.314 116.032C164.314 116.884 164.882 117.879 165.592 118.305C166.303 118.731 166.871 118.447 166.871 117.595C166.871 116.742 166.303 115.606 165.592 115.322Z" fill="#50E6FF"/>
<path d="M165.592 120.578C164.882 120.151 164.314 120.436 164.314 121.288C164.314 122.14 164.882 123.135 165.592 123.561C166.303 123.987 166.871 123.703 166.871 122.851C166.871 121.998 166.303 121.004 165.592 120.578Z" fill="#32B0E7"/>
<path d="M165.45 135.494C164.74 135.067 164.172 135.352 164.172 136.204C164.172 137.056 164.74 138.051 165.45 138.477C166.161 138.903 166.729 138.619 166.729 137.767C166.871 136.914 166.303 135.92 165.45 135.494Z" fill="#50E6FF"/>
<path d="M165.45 140.75C164.74 140.323 164.172 140.607 164.172 141.46C164.172 142.312 164.74 143.307 165.45 143.733C166.161 144.159 166.729 143.875 166.729 143.022C166.871 142.17 166.161 141.176 165.45 140.75Z" fill="#156AB3"/>
<path d="M161.189 123.135C160.478 122.709 159.91 122.993 159.91 123.846C159.91 124.698 160.478 125.692 161.189 126.118C161.899 126.545 162.467 126.26 162.467 125.408C162.467 124.414 161.899 123.419 161.189 123.135Z" fill="#156AB3"/>
<path d="M161.189 128.391C160.478 127.965 159.91 128.249 159.91 129.101C159.91 129.954 160.478 130.948 161.189 131.374C161.899 131.8 162.467 131.516 162.467 130.664C162.467 129.812 161.899 128.817 161.189 128.391Z" fill="#50E6FF"/>
<path d="M161.331 112.765C160.62 112.339 160.052 112.623 160.052 113.475C160.052 114.328 160.62 115.322 161.331 115.748C162.041 116.174 162.609 115.89 162.609 115.038C162.609 114.186 162.041 113.191 161.331 112.765Z" fill="#156AB3"/>
<path d="M161.189 118.163C160.478 117.736 159.91 118.021 159.91 118.873C159.91 119.725 160.478 120.72 161.189 121.146C161.899 121.572 162.467 121.288 162.467 120.435C162.467 119.583 161.899 118.447 161.189 118.163Z" fill="#156AB3"/>
<path d="M161.189 132.937C160.478 132.511 159.91 132.795 159.91 133.647C159.91 134.5 160.478 135.494 161.189 135.92C161.899 136.346 162.467 136.062 162.467 135.21C162.467 134.358 161.899 133.363 161.189 132.937Z" fill="#156AB3"/>
<path d="M161.189 138.334C160.478 137.908 159.91 138.192 159.91 139.045C159.91 139.897 160.478 140.891 161.189 141.318C161.899 141.744 162.467 141.46 162.467 140.607C162.467 139.755 161.899 138.761 161.189 138.334Z" fill="#156AB3"/>
<path d="M156.927 120.578C156.217 120.151 155.648 120.436 155.648 121.288C155.648 122.14 156.217 123.135 156.927 123.561C157.637 123.987 158.205 123.561 158.205 122.851C158.205 121.998 157.637 121.004 156.927 120.578Z" fill="#156AB3"/>
<path d="M156.927 125.976C156.217 125.55 155.648 125.834 155.648 126.686C155.648 127.539 156.217 128.533 156.927 128.959C157.637 129.243 158.205 128.959 158.205 128.107C158.205 127.255 157.637 126.26 156.927 125.976Z" fill="#156AB3"/>
<path d="M156.927 110.208C156.217 109.781 155.648 110.065 155.648 110.918C155.648 111.77 156.217 112.765 156.927 113.191C157.637 113.617 158.205 113.333 158.205 112.48C158.205 111.628 157.637 110.634 156.927 110.208Z" fill="#E9FCFE"/>
<path d="M156.927 115.606C156.217 115.18 155.648 115.464 155.648 116.316C155.648 117.169 156.217 118.163 156.927 118.589C157.637 119.015 158.205 118.731 158.205 117.879C158.205 117.027 157.637 116.032 156.927 115.606Z" fill="#50E6FF"/>
<path d="M156.927 130.522C156.217 130.096 155.648 130.38 155.648 131.232C155.648 132.085 156.217 133.079 156.927 133.505C157.637 133.931 158.205 133.505 158.205 132.795C158.205 131.943 157.637 130.948 156.927 130.522Z" fill="#156AB3"/>
<path d="M156.927 135.778C156.217 135.352 155.648 135.636 155.648 136.488C155.648 137.34 156.217 138.335 156.927 138.761C157.637 139.187 158.205 138.903 158.205 138.051C158.205 137.198 157.637 136.204 156.927 135.778Z" fill="#156AB3"/>
<path d="M152.665 118.021C151.955 117.595 151.387 117.879 151.387 118.731C151.387 119.584 151.955 120.578 152.665 121.004C153.376 121.43 153.944 121.146 153.944 120.294C153.944 119.442 153.376 118.447 152.665 118.021Z" fill="#156AB3"/>
<path d="M152.523 123.419C151.813 122.993 151.245 123.277 151.245 124.13C151.245 124.982 151.813 125.976 152.523 126.403C153.233 126.829 153.802 126.545 153.802 125.692C153.944 124.84 153.233 123.846 152.523 123.419Z" fill="#156AB3"/>
<path d="M152.665 107.792C151.955 107.366 151.387 107.65 151.387 108.503C151.387 109.355 151.955 110.349 152.665 110.776C153.376 111.202 153.944 110.776 153.944 110.065C153.944 109.213 153.376 108.219 152.665 107.792Z" fill="#50E6FF"/>
<path d="M152.665 113.191C151.955 112.765 151.387 113.049 151.387 113.901C151.387 114.754 151.955 115.748 152.665 116.174C153.376 116.458 153.944 116.174 153.944 115.322C153.944 114.469 153.376 113.475 152.665 113.191Z" fill="#156AB3"/>
<path d="M153.476 131.14C153.95 130.864 153.92 129.926 153.408 129.044C152.895 128.162 152.095 127.671 151.62 127.947C151.145 128.223 151.176 129.161 151.688 130.043C152.2 130.925 153.001 131.416 153.476 131.14Z" fill="#50E6FF"/>
<path d="M152.523 133.363C151.813 132.937 151.245 133.221 151.245 134.073C151.245 134.925 151.813 135.92 152.523 136.346C153.233 136.772 153.802 136.488 153.802 135.636C153.802 134.783 153.233 133.789 152.523 133.363Z" fill="#32B0E7"/>
<path d="M268.347 134.687L237.15 116.579L233.385 118.731L264.582 136.839L274.622 142.576L278.208 140.425L268.347 134.687Z" fill="#50E6FF"/>
<path d="M274.623 142.576L278.209 140.425V187.758L274.444 189.909L274.623 142.576Z" fill="#2194DB"/>
<path d="M264.582 136.839L274.443 142.576V189.909L233.206 166.063V156.023L233.385 118.73L264.582 136.839Z" fill="#32B0E7"/>
<path d="M245.218 143.294L248.983 141.143L248.804 178.435L245.039 180.587L245.218 143.294Z" fill="#243A5E"/>
<path d="M248.984 141.143L245.219 143.294L286.456 167.14L290.221 164.988L248.984 141.143Z" fill="#D5F9FD"/>
<path d="M286.456 167.14L290.221 164.988L290.041 212.321L286.276 214.473L286.456 167.14Z" fill="#ACF3FD"/>
<path d="M276.594 161.401L286.455 167.139L286.275 214.471L245.039 190.626V180.585L245.218 143.293L276.594 161.401Z" fill="#50E6FF"/>
<path d="M276.954 187.041V183.634L267.452 178.076V167.14L264.404 165.347V176.283L254.722 170.725V174.311L264.404 179.869L264.225 190.806L267.273 192.599L267.452 181.483L276.954 187.041Z" fill="#D5F9FD"/>
<g opacity="0.8">
<path d="M201.537 54.842L183.297 44.3247L183.233 65.2707L201.474 75.788L201.537 54.842Z" stroke="#28AEE9" stroke-width="0.75"/>
<path d="M191.812 35.014L183.318 30.1143L183.298 39.2769L191.791 44.1767L191.812 35.014Z" stroke="#28AEE9" stroke-width="0.75"/>
<path d="M191.856 19.2306L183.361 14.3303L183.321 24.0864L191.815 28.9866L191.856 19.2306Z" stroke="#28AEE9" stroke-width="0.75"/>
<path d="M203.603 29.8478L195.615 25.2539L195.595 35.0096L203.583 39.6035L203.603 29.8478Z" stroke="#28AEE9" stroke-width="0.75"/>
<path d="M223.558 67.4057L205.317 56.8674L205.254 77.8129L223.495 88.3513L223.558 67.4057Z" stroke="#28AEE9" stroke-width="0.75"/>
</g>
<path opacity="0.3" d="M21.4508 178.706L36.2838 187.28L14.833 199.733L0 191.159L21.4508 178.706Z" fill="#1F1D21"/>
<path d="M21.516 176.554L21.4834 180.792L17.4736 183.106L17.5062 178.901L21.516 176.554Z" fill="#005DA4"/>
<path d="M16.1695 181.217L16.1369 185.455L14.8003 184.672V180.467L16.1695 181.217Z" fill="#004072"/>
<path d="M14.8005 180.467V184.672L13.4639 185.455V181.217L14.8005 180.467Z" fill="#005DA4"/>
<path d="M30.9374 181.998V186.236L21.4834 180.792L21.516 176.554L30.9374 181.998Z" fill="#004072"/>
<path d="M16.1695 181.216L16.1369 185.454L14.8003 186.236L14.8329 181.998L16.1695 181.216Z" fill="#3EB1C5"/>
<path d="M16.1697 181.217L14.8331 181.999L13.4639 181.217L14.8005 180.467L16.1697 181.217Z" fill="#45C6DC"/>
<path d="M14.8331 181.998L14.8005 186.236L13.4639 185.454V181.216L14.8331 181.998Z" fill="#2B7B89"/>
<path d="M26.9276 184.346V188.551L17.4736 183.107L17.5062 178.901L26.9276 184.346Z" fill="#2B7B89"/>
<path d="M20.212 183.564L20.1794 187.802L18.8428 187.019V182.781L20.212 183.564Z" fill="#004072"/>
<path d="M18.8429 182.781V187.019L17.5063 187.802V183.564L18.8429 182.781Z" fill="#005DA4"/>
<path d="M12.1276 183.564V187.802L10.791 187.019V182.781L12.1276 183.564Z" fill="#004072"/>
<path d="M10.7907 182.781V187.019L9.4541 187.802V183.564L10.7907 182.781Z" fill="#005DA4"/>
<path d="M30.9376 181.998L26.9278 184.345L17.5063 178.901L21.5161 176.554L30.9376 181.998Z" fill="#50E6FF"/>
<path d="M30.9375 181.998V186.236L26.9277 188.551V184.345L30.9375 181.998Z" fill="#3EB1C5"/>
<path d="M20.2121 183.564L18.8755 184.346L17.5063 183.564L18.8429 182.781L20.2121 183.564Z" fill="#45C6DC"/>
<path d="M20.212 183.563L20.1794 187.801L18.8428 188.551L18.8754 184.346L20.212 183.563Z" fill="#3EB1C5"/>
<path d="M18.8755 184.346L18.8429 188.551L17.5063 187.801V183.563L18.8755 184.346Z" fill="#2B7B89"/>
<path d="M12.1276 183.563V187.801L10.791 188.551V184.346L12.1276 183.563Z" fill="#3EB1C5"/>
<path d="M10.7907 184.346V188.551L9.4541 187.801V183.563L10.7907 184.346Z" fill="#2B7B89"/>
<path d="M24.2545 185.91V190.116L22.8853 189.333L22.9179 185.128L24.2545 185.91Z" fill="#004072"/>
<path d="M22.918 185.128L22.8854 189.333L21.5488 190.116V185.91L22.918 185.128Z" fill="#005DA4"/>
<path d="M16.2022 185.91L16.1696 190.116L14.833 189.333V185.128L16.2022 185.91Z" fill="#004072"/>
<path d="M14.8332 185.128V189.333L13.4966 190.116V185.91L14.8332 185.128Z" fill="#005DA4"/>
<path d="M8.11725 185.91V190.116L6.74805 189.333L6.78065 185.128L8.11725 185.91Z" fill="#004072"/>
<path d="M6.78082 185.128L6.74822 189.333L5.41162 190.116L5.44422 185.91L6.78082 185.128Z" fill="#005DA4"/>
<path d="M22.918 186.694L22.8854 190.899L21.5488 190.117V185.911L22.918 186.694Z" fill="#2B7B89"/>
<path d="M24.2545 185.911V190.117L22.8853 190.899L22.9179 186.694L24.2545 185.911Z" fill="#3EB1C5"/>
<path d="M24.2546 185.91L22.918 186.693L21.5488 185.91L22.918 185.128L24.2546 185.91Z" fill="#45C6DC"/>
<path d="M16.2024 185.91L14.8332 186.693L13.4966 185.91L14.8332 185.128L16.2024 185.91Z" fill="#45C6DC"/>
<path d="M14.8332 186.694V190.899L13.4966 190.117V185.911L14.8332 186.694Z" fill="#2B7B89"/>
<path d="M16.2022 185.911L16.1696 190.117L14.833 190.899V186.694L16.2022 185.911Z" fill="#3EB1C5"/>
<path d="M8.11754 185.91L6.78094 186.693L5.44434 185.91L6.78094 185.128L8.11754 185.91Z" fill="#45C6DC"/>
<path d="M8.11736 185.911V190.117L6.78076 190.899V186.694L8.11736 185.911Z" fill="#3EB1C5"/>
<path d="M6.78082 186.694V190.899L5.41162 190.117L5.44422 185.911L6.78082 186.694Z" fill="#2B7B89"/>
<path d="M20.2447 188.226L20.2121 192.464L18.8755 191.681V187.443L20.2447 188.226Z" fill="#004072"/>
<path d="M18.8757 187.443V191.681L17.5391 192.464V188.226L18.8757 187.443Z" fill="#005DA4"/>
<path d="M12.1598 188.226V192.464L10.8232 191.681V187.443L12.1598 188.226Z" fill="#004072"/>
<path d="M10.8233 187.443V191.681L9.4541 192.464L9.4867 188.226L10.8233 187.443Z" fill="#005DA4"/>
<path d="M18.9083 189.008L18.8757 193.246L17.5391 192.464V188.226L18.9083 189.008Z" fill="#2B7B89"/>
<path d="M20.2447 188.226L20.2121 192.464L18.8755 193.246L18.9081 189.008L20.2447 188.226Z" fill="#3EB1C5"/>
<path d="M20.2449 188.226L18.9083 189.008L17.5391 188.226L18.8757 187.443L20.2449 188.226Z" fill="#45C6DC"/>
<path d="M12.16 188.226L10.8234 189.008L9.48682 188.226L10.8234 187.443L12.16 188.226Z" fill="#45C6DC"/>
<path d="M12.1598 188.226V192.464L10.8232 193.246V189.008L12.1598 188.226Z" fill="#3EB1C5"/>
<path d="M10.8233 189.008V193.246L9.4541 192.464L9.4867 188.226L10.8233 189.008Z" fill="#2B7B89"/>
<path d="M16.2023 190.572V194.778L14.8657 194.028V189.79L16.2023 190.572Z" fill="#004072"/>
<path d="M14.8654 189.79V194.028L13.5288 194.778V190.572L14.8654 189.79Z" fill="#005DA4"/>
<path d="M16.202 190.572L14.8654 191.355L13.5288 190.572L14.8654 189.79L16.202 190.572Z" fill="#45C6DC"/>
<path d="M14.8654 191.355V195.56L13.5288 194.778V190.572L14.8654 191.355Z" fill="#2B7B89"/>
<path d="M16.2023 190.572V194.778L14.8657 195.56V191.355L16.2023 190.572Z" fill="#3EB1C5"/>
<path d="M21.4836 173.457L36.3167 182.031L14.8658 194.484L0.0654297 185.91L21.4836 173.457ZM26.9278 184.345L30.9376 181.998L21.4836 176.554L17.4738 178.901L26.9278 184.345ZM14.8332 181.998L16.1698 181.216L14.8332 180.433L13.4966 181.216L14.8332 181.998ZM10.7908 184.345L12.1274 183.563L10.7908 182.781L9.45424 183.563L10.7908 184.345ZM18.9082 189.007L20.2448 188.225L18.9082 187.442L17.5716 188.225L18.9082 189.007ZM22.918 186.693L24.2546 185.91L22.918 185.128L21.5814 185.91L22.918 186.693ZM6.78103 186.693L8.11763 185.91L6.78103 185.128L5.44443 185.91L6.78103 186.693ZM14.8658 191.354L16.2024 190.572L14.8658 189.79L13.5292 190.572L14.8658 191.354ZM18.8756 184.345L20.2122 183.563L18.8756 182.781L17.539 183.563L18.8756 184.345ZM14.8332 186.693L16.1698 185.91L14.8332 185.128L13.4966 185.91L14.8332 186.693ZM10.8234 189.007L12.16 188.225L10.8234 187.442L9.48683 188.225L10.8234 189.007Z" fill="#0067B7"/>
<path d="M12.1273 183.564L10.7907 184.346L9.4541 183.564L10.7907 182.781L12.1273 183.564Z" fill="#45C6DC"/>
<path d="M14.8983 194.452L14.8657 198.69L0.0327148 190.117L0.0653149 185.911L14.8983 194.452Z" fill="#005DA4"/>
<path d="M36.3165 181.998V186.236L14.8657 198.689L14.8983 194.451L36.3165 181.998Z" fill="#1D4A79"/>
<path d="M28.0034 178.804L36.4468 173.914L55.3874 184.248L60.9294 181.38L61.2554 160.353" stroke="#156AB3" stroke-width="0.75" stroke-miterlimit="10" stroke-linecap="round" stroke-linejoin="round"/>
<path d="M64.874 168.567C64.874 168.893 64.874 183.726 64.874 183.726L51.182 191.061L51.1494 194.615L56.4306 197.777L52.7794 199.961" stroke="#156AB3" stroke-width="0.75" stroke-miterlimit="10" stroke-linecap="round" stroke-linejoin="round"/>
<path d="M30.9375 199.211V197.32C30.9375 197.549 31.0679 197.777 31.3613 197.94V199.831C31.1005 199.635 30.9375 199.407 30.9375 199.211Z" fill="#32B0E7"/>
<path d="M56.6587 201.005V202.896C56.1697 202.961 55.7133 203.124 55.3547 203.352C54.9635 203.58 54.7027 203.841 54.5723 204.134V202.244C54.7027 201.95 54.9635 201.689 55.3547 201.461C55.7133 201.233 56.1697 201.07 56.6587 201.005Z" fill="#50E6FF"/>
<path d="M38.207 194.288V192.397C38.207 192.626 38.3374 192.854 38.6634 193.017V194.908C38.3374 194.745 38.207 194.516 38.207 194.288Z" fill="#32B0E7"/>
<path d="M54.6049 202.211L54.5723 204.102L38.6309 194.908L38.6635 193.018L54.6049 202.211Z" fill="#0078D4"/>
<path d="M56.6915 201.005C56.2025 201.07 55.7461 201.233 55.3875 201.461C54.9963 201.689 54.7355 201.95 54.6051 202.244L38.6637 193.05C38.0769 192.724 38.0769 192.17 38.6637 191.844C39.2505 191.518 40.1633 191.518 40.7501 191.844L56.6915 201.005Z" fill="#50E6FF"/>
<path d="M60.5056 201.526V204.134C60.5056 204.297 60.473 204.428 60.4078 204.558C60.2774 204.851 60.0166 205.112 59.658 205.308C59.2668 205.536 58.8104 205.666 58.3214 205.764C57.3434 205.927 56.235 205.764 55.4852 205.308C54.8984 204.982 54.605 204.525 54.605 204.069V201.461C54.605 201.917 54.8984 202.341 55.4852 202.7C56.2676 203.156 57.3434 203.287 58.3214 203.156C58.8104 203.091 59.2668 202.928 59.658 202.7C60.0492 202.472 60.2774 202.211 60.4078 201.95C60.4404 201.82 60.5056 201.689 60.5056 201.526Z" fill="#1D4A79"/>
<path d="M59.6254 200.32C60.4078 200.777 60.6686 201.396 60.4078 201.983C60.2774 202.276 60.0166 202.537 59.658 202.733C59.2668 202.961 58.8104 203.091 58.3214 203.189C57.3434 203.352 56.235 203.189 55.4852 202.733C54.7028 202.276 54.442 201.657 54.7028 201.07C54.8332 200.777 55.094 200.516 55.4852 200.288C55.8764 200.06 56.3328 199.929 56.7892 199.831C57.7346 199.734 58.843 199.864 59.6254 200.32Z" fill="#0078D4"/>
<path d="M59.7559 204.591L59.7233 206.482L58.3867 205.699V203.809L59.7559 204.591Z" fill="#0078D4"/>
<path d="M61.8419 203.384C62.4287 203.71 62.4287 204.264 61.8419 204.59C61.2551 204.916 60.3423 204.916 59.7555 204.59L58.4189 203.808C58.9079 203.743 59.3643 203.58 59.7555 203.351C60.1467 203.123 60.3749 202.862 60.5053 202.602L61.8419 203.384Z" fill="#50E6FF"/>
<path d="M62.2661 203.971V205.862C62.2661 206.09 62.1357 206.285 61.8423 206.481C61.2555 206.807 60.3427 206.807 59.7559 206.481V204.59C60.3427 204.916 61.2881 204.916 61.8423 204.59C62.1357 204.427 62.2661 204.199 62.2661 203.971Z" fill="#1D4A79"/>
<path d="M42.0865 201.656V203.547C41.5975 203.612 41.1411 203.775 40.7825 204.003C40.3913 204.232 40.1305 204.492 40.0327 204.786V202.895C40.1631 202.602 40.4239 202.341 40.7825 202.113C41.1411 201.884 41.5975 201.721 42.0865 201.656Z" fill="#50E6FF"/>
<path d="M40.0004 202.862V204.786L31.394 199.798V197.907L40.0004 202.862Z" fill="#0078D4"/>
<path d="M42.0866 201.656C41.5976 201.722 41.1412 201.885 40.7826 202.113C40.3914 202.341 40.1306 202.602 40.0328 202.895L31.4264 197.94C30.8396 197.614 30.8396 197.06 31.4264 196.734C32.0132 196.408 32.926 196.408 33.5128 196.734L42.0866 201.656Z" fill="#50E6FF"/>
<path d="M45.7053 202.569V205.177C45.7053 205.34 45.6727 205.471 45.6075 205.601C45.4771 205.894 45.2163 206.155 44.8577 206.351C44.4665 206.579 44.0101 206.709 43.5211 206.807C42.5431 206.97 41.4347 206.807 40.6849 206.351C40.0981 206.025 39.8047 205.568 39.8047 205.112V202.504C39.8047 202.96 40.0981 203.384 40.6849 203.743C41.4673 204.199 42.5431 204.33 43.5211 204.199C44.0101 204.134 44.4665 203.971 44.8577 203.743C45.2489 203.515 45.4771 203.254 45.6075 202.993C45.6727 202.863 45.7053 202.732 45.7053 202.569Z" fill="#1D4A79"/>
<path d="M44.8251 201.363C45.6075 201.82 45.8683 202.439 45.6075 203.026C45.4771 203.319 45.2163 203.58 44.8577 203.776C44.4665 204.004 44.0101 204.134 43.5211 204.232C42.5431 204.395 41.4347 204.232 40.6849 203.776C39.9025 203.319 39.6417 202.7 39.9025 202.113C40.0329 201.82 40.2937 201.559 40.6849 201.331C41.0761 201.102 41.5325 200.972 41.9889 200.874C42.9343 200.776 44.0427 200.907 44.8251 201.363Z" fill="#0078D4"/>
<path d="M52.3229 209.807V211.697L43.6187 206.677V204.786L52.3229 209.807Z" fill="#0078D4"/>
<path d="M54.8334 209.188V211.078C54.8334 211.307 54.703 211.502 54.4096 211.698C53.8228 212.024 52.91 212.024 52.3232 211.698V209.807C52.91 210.133 53.8554 210.133 54.4096 209.807C54.703 209.644 54.8334 209.416 54.8334 209.188Z" fill="#1D4A79"/>
<path d="M54.4093 208.568C54.9961 208.894 54.9961 209.448 54.4093 209.774C53.8225 210.1 52.9097 210.1 52.3229 209.774L43.6187 204.754C44.1077 204.689 44.564 204.526 44.9553 204.298C45.3465 204.069 45.5747 203.809 45.7051 203.548L54.4093 208.568Z" fill="#50E6FF"/>
<path d="M23.6675 203.417V201.526C23.6675 201.755 23.7979 201.95 24.0913 202.146V204.037C23.7979 203.874 23.6675 203.645 23.6675 203.417Z" fill="#32B0E7"/>
<path d="M27.5469 201.689V203.58C27.0579 203.645 26.6015 203.808 26.2103 204.037C25.8191 204.265 25.5582 204.526 25.4604 204.819V202.928C25.5908 202.635 25.8517 202.374 26.2103 202.146C26.6015 201.918 27.0579 201.755 27.5469 201.689Z" fill="#50E6FF"/>
<path d="M25.461 202.895V204.819L24.0918 204.036L24.1244 202.146L25.461 202.895Z" fill="#0078D4"/>
<path d="M27.5472 201.689C27.0582 201.754 26.6018 201.917 26.2106 202.145C25.8194 202.373 25.5586 202.634 25.4608 202.927L24.1242 202.145C23.5374 201.819 23.5374 201.265 24.1242 200.939C24.711 200.613 25.6238 200.613 26.2106 200.939L27.5472 201.689Z" fill="#50E6FF"/>
<path d="M31.3938 202.96V205.568C31.3938 205.731 31.3612 205.861 31.296 205.992C31.1656 206.285 30.9048 206.546 30.5462 206.741C30.155 206.97 29.6986 207.1 29.2096 207.198C28.2316 207.361 27.1232 207.198 26.3734 206.741C25.7866 206.415 25.4932 205.959 25.4932 205.503V202.895C25.4932 203.351 25.7866 203.775 26.3734 204.133C27.1558 204.59 28.2316 204.72 29.2096 204.59C29.6986 204.525 30.155 204.362 30.5462 204.133C30.9374 203.905 31.1656 203.644 31.296 203.384C31.3612 203.253 31.3938 203.09 31.3938 202.96Z" fill="#1D4A79"/>
<path d="M30.5463 201.722C31.3287 202.178 31.5895 202.797 31.3287 203.384C31.1983 203.678 30.9375 203.938 30.5789 204.134C30.1877 204.362 29.7313 204.493 29.2423 204.59C28.2643 204.753 27.1559 204.59 26.4061 204.134C25.6237 203.678 25.3629 203.058 25.6237 202.471C25.7541 202.178 26.0149 201.917 26.4061 201.689C26.7973 201.461 27.2537 201.33 27.7101 201.233C28.6555 201.135 29.7639 201.298 30.5463 201.722Z" fill="#0078D4"/>
<path d="M45.3143 214.5V216.391L29.3403 207.198L29.3729 205.274L45.3143 214.5Z" fill="#0078D4"/>
<path d="M47.8568 213.881V215.772C47.8568 216 47.7264 216.195 47.433 216.391C46.8462 216.717 45.9334 216.75 45.314 216.391V214.5C45.9008 214.826 46.8462 214.826 47.433 214.5C47.6938 214.337 47.8568 214.109 47.8568 213.881Z" fill="#1D4A79"/>
<path d="M47.4006 213.262C47.9874 213.588 47.9874 214.143 47.4006 214.469C46.8138 214.795 45.901 214.827 45.2816 214.469L29.3076 205.243C29.7966 205.178 30.253 205.015 30.6442 204.786C31.0354 204.558 31.2636 204.297 31.394 204.004L47.4006 213.262Z" fill="#50E6FF"/>
<path d="M127.858 155.207L127.704 213.38L52 169.669L52.1537 111.496L127.858 155.207Z" fill="#0078D4"/>
<path d="M127.858 155.207L127.704 213.38L52 169.669L52.1537 111.496L127.858 155.207Z" fill="url(#paint4_linear)"/>
<path d="M127.858 155.207L133.877 151.707L133.723 209.88L127.704 213.38L127.858 155.207Z" fill="#004E99"/>
<path d="M52.1538 111.496L58.1726 108L133.877 151.707L127.858 155.207L52.1538 111.496Z" fill="#0078D4"/>
<path opacity="0.9" d="M55.9653 118.877L123.896 158.396V206.918L55.9653 167.702V118.877Z" fill="#2195DC"/>
<path d="M65.2456 190.107L76.3056 183.7L101.713 198.261L90.4049 204.663L65.2456 190.107Z" fill="#0078D4"/>
<path d="M72.9888 185.621L76.3055 183.7L101.712 198.261L98.417 200.126L72.9888 185.621Z" fill="#004E99"/>
<path d="M90.4049 206.085V204.663L65.2456 190.107V191.759L90.4049 206.085Z" fill="#0078D4"/>
<path d="M90.4049 206.085V204.663L65.2456 190.107V191.759L90.4049 206.085Z" fill="url(#paint5_linear)"/>
<path d="M102.912 199.063L90.4048 206.085V204.664L101.712 198.261L102.912 199.063Z" fill="#141E2F"/>
<g clip-path="url(#clip0)">
<path d="M77.8606 149.544L87.1324 161.346L87.0969 173.947L77.8252 162.147L77.8606 149.544Z" fill="#50E6FF"/>
<path d="M96.4398 160.489L96.4043 173.09L87.0972 173.947L87.1326 161.345L96.4398 160.489Z" fill="#32BEDD"/>
<path d="M87.17 148.685L96.4402 160.489L87.1345 161.347L77.8613 149.543L87.17 148.685Z" fill="#9CEBFF"/>
</g>
<defs>
<linearGradient id="paint0_linear" x1="120.82" y1="52.4815" x2="167.596" y2="80.0717" gradientUnits="userSpaceOnUse">
<stop stop-color="#50E6FF"/>
<stop offset="0.7998" stop-color="#0078D4"/>
</linearGradient>
<linearGradient id="paint1_linear" x1="300.274" y1="157.607" x2="351.163" y2="230.096" gradientUnits="userSpaceOnUse">
<stop stop-color="#50E6FF"/>
<stop offset="0.7998" stop-color="#0078D4"/>
</linearGradient>
<linearGradient id="paint2_linear" x1="288.38" y1="110.903" x2="224.249" y2="40.0832" gradientUnits="userSpaceOnUse">
<stop stop-color="#50E6FF"/>
<stop offset="0.397" stop-color="#D5F9FD"/>
</linearGradient>
<linearGradient id="paint3_linear" x1="110.654" y1="110.949" x2="331.328" y2="110.949" gradientUnits="userSpaceOnUse">
<stop stop-color="#50E6FF"/>
<stop offset="0.397" stop-color="#D5F9FD"/>
</linearGradient>
<linearGradient id="paint4_linear" x1="89.9289" y1="111.496" x2="89.9289" y2="213.38" gradientUnits="userSpaceOnUse">
<stop stop-color="#69E2FF"/>
<stop offset="1" stop-color="white" stop-opacity="0"/>
</linearGradient>
<linearGradient id="paint5_linear" x1="77.8253" y1="190.107" x2="77.8253" y2="206.085" gradientUnits="userSpaceOnUse">
<stop stop-color="#69E2FF"/>
<stop offset="1" stop-color="white" stop-opacity="0"/>
</linearGradient>
<clipPath id="clip0">
<rect x="77.8252" y="148.685" width="18.6143" height="25.2623" fill="white"/>
</clipPath>
</defs>
</svg>
