<svg xmlns="http://www.w3.org/2000/svg" xmlns:xlink="http://www.w3.org/1999/xlink" width="336" height="240" viewBox="0 0 336 240">
  <defs>
    <linearGradient id="e003c5d0-9f40-4676-bb00-0927d0c67a94" x1="347.315" y1="2.694" x2="394.091" y2="-24.897" gradientTransform="matrix(1, 0, 0, -1, -228, 56)" gradientUnits="userSpaceOnUse">
      <stop offset="0" stop-color="#50e6ff"/>
      <stop offset="0.8" stop-color="#0078d4"/>
    </linearGradient>
    <linearGradient id="b3da2047-dfdc-4d16-8e8c-5916a174a945" x1="526.706" y1="-102.471" x2="577.595" y2="-174.96" xlink:href="#e003c5d0-9f40-4676-bb00-0927d0c67a94"/>
    <linearGradient id="ab25820e-36a7-4686-ba28-40239a290a60" x1="514.839" y1="-55.758" x2="450.708" y2="15.062" gradientTransform="matrix(1, 0, 0, -1, -228, 56)" gradientUnits="userSpaceOnUse">
      <stop offset="0" stop-color="#50e6ff"/>
      <stop offset="0.397" stop-color="#d5f9fd"/>
    </linearGradient>
    <linearGradient id="a75d0b5a-a4f8-47b7-8137-2c839ded0bc5" x1="336.982" y1="-55.799" x2="557.642" y2="-55.799" xlink:href="#ab25820e-36a7-4686-ba28-40239a290a60"/>
    <linearGradient id="b9a3c339-0cd4-4f83-8fbb-496f7a9a25f9" x1="275.418" y1="-13.156" x2="301.856" y2="-141.17" xlink:href="#e003c5d0-9f40-4676-bb00-0927d0c67a94"/>
    <linearGradient id="a2ff8876-68fc-4f60-a162-cedbd49d9127" x1="259.771" y1="-61.928" x2="257.088" y2="-175.287" xlink:href="#e003c5d0-9f40-4676-bb00-0927d0c67a94"/>
    <linearGradient id="fb056cb6-2e8f-4507-a3fa-cce144894bdf" x1="280.577" y1="-12.089" x2="307.015" y2="-140.102" xlink:href="#e003c5d0-9f40-4676-bb00-0927d0c67a94"/>
    <linearGradient id="add622ca-53cd-4674-a1e6-76bb9bf89a75" x1="259.158" y1="-61.916" x2="256.475" y2="-175.275" xlink:href="#e003c5d0-9f40-4676-bb00-0927d0c67a94"/>
    <linearGradient id="ef6ae1d6-4157-4c20-ab43-cce930a8d7b7" x1="285.771" y1="-11.019" x2="312.208" y2="-139.032" xlink:href="#e003c5d0-9f40-4676-bb00-0927d0c67a94"/>
    <linearGradient id="a1ad497f-682f-4552-b447-12674554abce" x1="258.538" y1="-61.901" x2="255.855" y2="-175.26" xlink:href="#e003c5d0-9f40-4676-bb00-0927d0c67a94"/>
  </defs>
  <g id="ad775370-cd26-4e3c-ae70-40e950b375e9" data-name="Layer 7">
    <path d="M114.839,58.662l6.538-4.087C125.6,51.987,131.593,52.4,138,56.346a5.925,5.925,0,0,0,.953.545c3.406,2.043,3.678,2.179,3.542,2.316l.817,8.445c-3.269-2.18-7.491-4.632-11.033-6.675a6,6,0,0,0-.953-.545C124.919,56.755,119.062,56.346,114.839,58.662Z" fill="url(#e003c5d0-9f40-4676-bb00-0927d0c67a94)"/>
    <path d="M158.564,8.809,165.1,4.723c10.9-6.13,26.016-5.312,42.361,4.359l-6.538,4.086C184.58,3.361,169.46,2.407,158.564,8.809Z" fill="#d5f9fd"/>
    <path d="M200.925,13.032l6.538-4.087c17.98,10.625,34.189,29.149,44.949,50.126l-6.538,4.086C234.977,42.181,218.9,23.52,200.925,13.032Z" fill="#d5f9fd"/>
    <path d="M328.689,213.125l-7.219,4.358c4.223-2.315,7.492-8.036,7.492-15.391.136-14.847-10.352-33.236-23.429-40.727a29.635,29.635,0,0,0-3-1.635c-1.635-.953-3.814-2.179-5.721-3.133l6.4-4.222c1.771,1.09,4.222,2.316,5.857,3.269,1.09.545,2.043,1.09,3,1.635,12.939,7.627,23.428,25.879,23.428,40.726C335.5,205.361,332.912,210.673,328.689,213.125Z" fill="url(#b3da2047-dfdc-4d16-8e8c-5916a174a945)"/>
    <path d="M245.873,63.021l6.538-4.087c5.721-.272,12.123,1.363,18.934,5.449,21.385,12.667,38.82,42.77,38.683,67.7-.136,8.854-2.315,15.937-6.265,20.7l-7.083,4.359c3.814-4.767,6.4-11.987,6.4-20.976.136-24.791-16.754-55.166-38.412-67.7C258,64.383,251.322,62.612,245.873,63.021Z" fill="url(#ab25820e-36a7-4686-ba28-40239a290a60)"/>
    <path d="M201.469,12.758c17.979,10.625,34.188,29.149,44.949,50.126,5.721-.273,12.123,1.362,18.933,5.448,21.385,12.668,38.82,42.77,38.684,67.7-.136,13.484,5.584,6.129-6.13,20.567,1.771,1.09,3.678,2.043,5.312,3,1.09.545,2.044,1.09,3,1.634,12.94,7.628,23.428,25.88,23.428,40.727,0,5.312-3,25.472-23.564,13.349-11.442-6.538-164-95.347-173.668-100.932-12.94-7.628-23.428-25.88-23.428-40.727.136-14.847,10.761-20.84,23.7-13.348a6.015,6.015,0,0,0,.954.545c3.405,2.043,6.947,4.086,10.216,6.265a103.439,103.439,0,0,1-2.18-20.023C141.809-1,176.406-1.816,201.469,12.758Z" opacity="0.3" fill="url(#a75d0b5a-a4f8-47b7-8137-2c839ded0bc5)" style="isolation: isolate"/>
    <path d="M174.227,4.722l.136,2.043c8.037.136,16.618,2.724,25.88,7.9,17.026,10.079,33.235,27.923,44.405,49.444a1.888,1.888,0,0,0,1.634.954h1.5c5.176,0,10.625,1.77,16.482,5.312,20.84,12.259,38,41.816,37.866,65.925-.136,8.037-2.179,14.711-5.857,19.342a1.455,1.455,0,0,0-.408,1.5,1.843,1.843,0,0,0,.953,1.362c1.771,1.089,3.678,2.043,5.04,3l1.634.954,1.362.681c12.532,7.219,22.611,24.79,22.475,39.092-.136,9.262-4.5,14.847-11.305,14.847a19.417,19.417,0,0,1-9.535-3L132.819,113.009c-12.531-7.22-22.611-24.791-22.475-39.093.137-9.262,4.5-14.847,11.306-14.847a19.417,19.417,0,0,1,9.535,3l.272.136.545.409c3.678,2.179,6.947,4.086,10.079,6.129a2.606,2.606,0,0,0,1.09.409,4.183,4.183,0,0,0,1.09-.273,1.488,1.488,0,0,0,.681-1.77,101.889,101.889,0,0,1-2.18-19.751C142.9,22.429,155.021,6.9,174.091,6.9Zm0,0c-19.478-.137-33.235,15.391-33.235,42.225a85.832,85.832,0,0,0,2.179,20.023c-3.269-2.18-6.674-4.223-10.216-6.266a5.925,5.925,0,0,0-.953-.545c-3.814-2.179-7.355-3.405-10.488-3.405-7.764,0-13.076,5.993-13.076,16.617-.137,14.847,10.351,33.236,23.428,40.727,9.671,5.585,162.226,94.53,173.668,101.068,3.813,2.179,7.355,3.405,10.488,3.405,7.764.137,13.076-5.993,13.076-16.617.136-14.847-10.352-33.236-23.428-40.727a29.767,29.767,0,0,0-3-1.635c-1.634-.953-3.269-2.043-5.312-3,3.814-4.768,6.129-11.442,6.129-20.568.137-24.79-17.026-55.165-38.683-67.833-6.266-3.677-12.4-5.448-17.571-5.448-.545,0-.818.136-1.363.136-10.76-20.976-26.969-39.637-45.221-50.125C191.526,7.446,182.4,4.722,174.227,4.722Z" fill="#fff"/>
    <path d="M266.847,135.505,235.65,117.4l-3.765,2.152,31.2,18.108,10.04,5.738,3.586-2.152Z" fill="#50e6ff"/>
    <path d="M273.123,143.393l3.586-2.151v47.333l-3.765,2.151Z" fill="#2194db"/>
    <path d="M263.082,137.656l9.861,5.738v47.332l-41.237-23.845V156.84l.179-37.292Z" fill="#32b0e7"/>
    <path d="M243.718,144.111l3.765-2.151-.179,37.292-3.765,2.152Z" fill="#243a5e"/>
    <path d="M247.484,141.96l-3.765,2.151,41.237,23.846,3.765-2.151Z" fill="#d5f9fd"/>
    <path d="M284.956,167.957l3.765-2.152-.179,47.333-3.766,2.152Z" fill="#acf3fd"/>
    <path d="M275.094,162.219l9.861,5.738-.179,47.332-41.237-23.845V181.4l.179-37.292Z" fill="#50e6ff"/>
    <path d="M275.454,187.858v-3.407l-9.5-5.558V167.957l-3.048-1.793V177.1l-9.682-5.558v3.586l9.682,5.558-.179,10.937,3.048,1.793.179-11.116Z" fill="#d5f9fd"/>
    <path d="M60.2,177.313l-49.438,28.9,38.358,20.517,49.415-28.9Z" fill="#1f1d21" opacity="0.2" style="isolation: isolate"/>
    <path d="M60.2,150.152,10.758,178.768l38.358,20.517,49.415-28.64Z" fill="#76e2ff"/>
    <path d="M49.115,199.309l-.281,22.677,49.7-28.639V170.67Z" fill="url(#b9a3c339-0cd4-4f83-8fbb-496f7a9a25f9)"/>
    <path d="M10.782,178.768,10.5,201.726l38.358,20.259.282-22.677Z" fill="url(#a2ff8876-68fc-4f60-a162-cedbd49d9127)"/>
    <path d="M60.2,123.953l-49.438,28.9L49.116,173.11l49.415-28.639Z" fill="#84ecfd"/>
    <path d="M49.115,173.11l-.281,22.958,49.7-28.9V144.494Z" fill="url(#fb056cb6-2e8f-4507-a3fa-cce144894bdf)"/>
    <path d="M10.782,152.853,10.5,175.53l38.358,20.517.282-22.958Z" fill="url(#add622ca-53cd-4674-a1e6-76bb9bf89a75)"/>
    <path d="M60.2,97.757l-49.438,28.9,38.358,20.517,49.415-28.9Z" fill="#84ecfd"/>
    <path d="M49.115,147.173l-.281,22.677,49.7-28.9V118.275Z" fill="url(#ef6ae1d6-4157-4c20-ab43-cce930a8d7b7)"/>
    <path d="M10.782,126.655,10.5,149.332l38.358,20.517.282-22.677Z" fill="url(#a1ad497f-682f-4552-b447-12674554abce)"/>
    <path d="M96.4,148.792v1.9l-13.5,7.841v-2.16Z" fill="#50e6ff"/>
    <path d="M96.4,152.853v1.9l-13.5,7.559v-1.9Z" fill="#50e6ff"/>
    <path d="M96.113,125.034v1.9l-14.038,7.84v-1.925Z" fill="#50e6ff"/>
    <path d="M183.3,206.848l-36.824,20.968L108.5,206.848l37.066-20.968Z" fill="#1f1d21" opacity="0.2" style="isolation: isolate"/>
    <path d="M145.548,180.81V167.817l37.977,21.4-.223,12.565Z" fill="#1d4a79"/>
    <path d="M145.547,180.811,108.5,201.779V189.008l37.047-21.191Z" fill="#243a5e"/>
    <path d="M183.3,201.779l-36.824,20.968L108.5,201.779l37.066-20.968Z" fill="#156ab3"/>
    <path d="M155.976,181.573c.706.39.706,1,0,1.394a2.871,2.871,0,0,1-2.528,0c-.707-.39-.707-1,0-1.394A3,3,0,0,1,155.976,181.573Z" fill="#e9fcfe"/>
    <path d="M151.737,179.248c.706.391.706,1,0,1.394a2.871,2.871,0,0,1-2.528,0c-.706-.39-.706-1,0-1.394A2.877,2.877,0,0,1,151.737,179.248Z" fill="#50e6ff"/>
    <path d="M142.7,188.954c.706.39.706,1,0,1.394a2.871,2.871,0,0,1-2.528,0c-.707-.39-.707-1,0-1.394A2.877,2.877,0,0,1,142.7,188.954Z" fill="#50e6ff"/>
    <path d="M138.8,191.11c.706.39.706,1,0,1.394a2.877,2.877,0,0,1-2.528,0c-.707-.391-.707-1,0-1.394A2.935,2.935,0,0,1,138.8,191.11Z" fill="#50e6ff"/>
    <path d="M151.477,188.767c.707.39.707,1.022.019,1.394a2.919,2.919,0,0,1-2.547,0c-.706-.39-.706-1,0-1.394A3,3,0,0,1,151.477,188.767Z" fill="#e9fcfe"/>
    <path d="M168.709,188.6c.706.39.706,1,0,1.394a2.877,2.877,0,0,1-2.528,0c-.706-.39-.706-1,0-1.394A2.871,2.871,0,0,1,168.709,188.6Z" fill="#50e6ff"/>
    <path d="M159.934,188.766c.706.39.706,1,0,1.394a2.871,2.871,0,0,1-2.528,0c-.706-.39-.706-1,0-1.394A2.938,2.938,0,0,1,159.934,188.766Z" fill="#50e6ff"/>
    <path d="M164.171,191.107c.707.391.707,1,0,1.394a2.871,2.871,0,0,1-2.528,0c-.706-.39-.706-1,0-1.394A2.877,2.877,0,0,1,164.171,191.107Z" fill="#50e6ff"/>
    <path d="M155.715,191.108c.706.391.706,1,0,1.394a2.871,2.871,0,0,1-2.528,0c-.707-.39-.707-1,0-1.394A2.938,2.938,0,0,1,155.715,191.108Z" fill="#32b0e7"/>
    <path d="M159.952,193.451c.706.39.706,1,0,1.394a2.877,2.877,0,0,1-2.528,0c-.707-.391-.707-1,0-1.394A2.871,2.871,0,0,1,159.952,193.451Z" fill="#50e6ff"/>
    <path d="M155.7,186.425c.706.39.706,1.022.018,1.394a2.916,2.916,0,0,1-2.546,0c-.707-.391-.707-1,0-1.394A3,3,0,0,1,155.7,186.425Z" fill="#50e6ff"/>
    <path d="M142.982,179.418c.706.39.706,1,0,1.394a2.877,2.877,0,0,1-2.528,0c-.707-.39-.707-1.022,0-1.413A3.075,3.075,0,0,1,142.982,179.418Z" fill="#50e6ff"/>
    <path d="M147.22,181.759c.707.391.707,1,0,1.394a2.871,2.871,0,0,1-2.528,0c-.706-.39-.706-1,0-1.394A2.877,2.877,0,0,1,147.22,181.759Z" fill="#50e6ff"/>
    <path d="M138.762,181.76c.706.391.706,1,0,1.394a2.871,2.871,0,0,1-2.528,0c-.706-.39-.706-1.022,0-1.412A2.939,2.939,0,0,1,138.762,181.76Z" fill="#50e6ff"/>
    <path d="M151.458,184.1c.707.391.707,1,0,1.394a2.871,2.871,0,0,1-2.528,0c-.706-.39-.706-1,0-1.394A2.877,2.877,0,0,1,151.458,184.1Z" fill="#e9fcfe"/>
    <path d="M143,184.1c.706.391.706,1,0,1.394a2.871,2.871,0,0,1-2.528,0c-.706-.39-.706-1,0-1.394A2.877,2.877,0,0,1,143,184.1Z" fill="#32b0e7"/>
    <path d="M147.239,186.442c.707.391.707,1,0,1.394a2.871,2.871,0,0,1-2.528,0c-.706-.39-.706-1,0-1.394A2.877,2.877,0,0,1,147.239,186.442Z" fill="#50e6ff"/>
    <path d="M138.465,186.61c.706.391.706,1,0,1.394a2.871,2.871,0,0,1-2.528,0c-.706-.39-.706-1,0-1.394A2.942,2.942,0,0,1,138.465,186.61Z" fill="#32b0e7"/>
    <path d="M130.025,191.3c.707.39.707,1,0,1.394a2.877,2.877,0,0,1-2.528,0c-.706-.39-.706-1,0-1.394A2.871,2.871,0,0,1,130.025,191.3Z" fill="#d5f9fd"/>
    <path d="M134.561,188.784c.706.391.706,1,0,1.394a2.871,2.871,0,0,1-2.528,0c-.707-.39-.707-1,0-1.394A2.877,2.877,0,0,1,134.561,188.784Z" fill="#d5f9fd"/>
    <path d="M130.323,186.443c.706.391.706,1,0,1.394a2.871,2.871,0,0,1-2.528,0c-.707-.39-.707-1-.019-1.394A2.918,2.918,0,0,1,130.323,186.443Z" fill="#32b0e7"/>
    <path d="M134.227,184.286c.706.391.706,1,0,1.4a2.877,2.877,0,0,1-2.528,0c-.707-.391-.707-1-.019-1.4A2.919,2.919,0,0,1,134.227,184.286Z" fill="#50e6ff"/>
    <path d="M147.5,176.907c.707.39.707,1,0,1.394a2.871,2.871,0,0,1-2.528,0c-.706-.39-.706-1.022-.018-1.394A2.916,2.916,0,0,1,147.5,176.907Z" fill="#e9fcfe"/>
    <path d="M125.787,188.954c.707.39.707,1,0,1.394a2.877,2.877,0,0,1-2.528,0c-.706-.391-.706-1.023-.018-1.394A2.909,2.909,0,0,1,125.787,188.954Z" fill="#d5f9fd"/>
    <path d="M155.418,195.961c.707.39.707,1,0,1.394a2.877,2.877,0,0,1-2.528,0c-.706-.391-.706-1,0-1.394A3,3,0,0,1,155.418,195.961Z" fill="#32b0e7"/>
    <path d="M143.037,193.453c.707.39.707,1,.019,1.394a2.871,2.871,0,0,1-2.528,0c-.707-.39-.707-1,0-1.394A2.836,2.836,0,0,1,143.037,193.453Z" fill="#50e6ff"/>
    <path d="M147.294,195.794c.707.39.707,1,0,1.394a2.871,2.871,0,0,1-2.528,0c-.706-.39-.706-1,0-1.394A2.877,2.877,0,0,1,147.294,195.794Z" fill="#e9fcfe"/>
    <path d="M138.5,195.96c.707.39.707,1,.019,1.394a2.871,2.871,0,0,1-2.528,0c-.707-.39-.707-1,0-1.394A2.9,2.9,0,0,1,138.5,195.96Z" fill="#e9fcfe"/>
    <path d="M151.532,198.119c.707.39.707,1,0,1.394a2.871,2.871,0,0,1-2.528,0c-.706-.39-.706-1,0-1.394A3,3,0,0,1,151.532,198.119Z" fill="#50e6ff"/>
    <path d="M142.759,198.3c.706.391.706,1,0,1.4a2.877,2.877,0,0,1-2.528,0c-.707-.391-.707-1,0-1.4A2.877,2.877,0,0,1,142.759,198.3Z" fill="#32b0e7"/>
    <path d="M147,200.647c.706.39.706,1,0,1.394a2.877,2.877,0,0,1-2.528,0c-.707-.39-.707-1,0-1.394A2.877,2.877,0,0,1,147,200.647Z" fill="#50e6ff"/>
    <path d="M134.263,193.637c.707.39.707,1,0,1.394a2.871,2.871,0,0,1-2.528,0c-.706-.39-.706-1,0-1.394A2.877,2.877,0,0,1,134.263,193.637Z" fill="#50e6ff"/>
    <path d="M146.941,191.3c.706.39.706,1.022.018,1.394a2.877,2.877,0,0,1-2.528,0c-.706-.39-.706-1,0-1.394A2.832,2.832,0,0,1,146.941,191.3Z" fill="#50e6ff"/>
    <path d="M164.47,186.258c.706.39.706,1,0,1.394a2.877,2.877,0,0,1-2.528,0c-.707-.39-.707-1,0-1.394A2.871,2.871,0,0,1,164.47,186.258Z" fill="#50e6ff"/>
    <path d="M160.214,183.916c.707.39.707,1.022,0,1.412a2.871,2.871,0,0,1-2.528,0c-.706-.39-.706-1,0-1.394A2.813,2.813,0,0,1,160.214,183.916Z" fill="#50e6ff"/>
    <path d="M151.18,193.637c.706.39.706,1,0,1.394a2.871,2.871,0,0,1-2.528,0c-.707-.39-.707-1,0-1.394A2.877,2.877,0,0,1,151.18,193.637Z" fill="#32b0e7"/>
    <path d="M155.121,205.98c.687-.372,1.245-.075,1.245.687a2.6,2.6,0,0,1-1.245,2.045c-.688.372-1.246.074-1.246-.688A2.592,2.592,0,0,1,155.121,205.98Z" fill="#156ab3"/>
    <path d="M155.139,210.887c.688-.372,1.246-.074,1.246.688a2.624,2.624,0,0,1-1.246,2.063c-.687.372-1.245.075-1.245-.687A2.6,2.6,0,0,1,155.139,210.887Z" fill="#156ab3"/>
    <path d="M159.285,203.7c.688-.372,1.246-.075,1.246.687a2.593,2.593,0,0,1-1.246,2.045c-.688.372-1.245.075-1.245-.688A2.562,2.562,0,0,1,159.285,203.7Z" fill="#156ab3"/>
    <path d="M159.3,208.6c.688-.372,1.245-.075,1.245.669a2.623,2.623,0,0,1-1.245,2.063c-.688.372-1.245.074-1.245-.688A2.591,2.591,0,0,1,159.3,208.6Z" fill="#156ab3"/>
    <path d="M163.448,201.389c.688-.372,1.246-.074,1.246.688a2.592,2.592,0,0,1-1.246,2.044c-.688.372-1.245.075-1.245-.669A2.623,2.623,0,0,1,163.448,201.389Z" fill="#50e6ff"/>
    <path d="M163.467,206.3c.688-.371,1.245-.074,1.245.688a2.627,2.627,0,0,1-1.245,2.064c-.688.371-1.245.074-1.245-.688A2.536,2.536,0,0,1,163.467,206.3Z" fill="#32b0e7"/>
    <path d="M167.594,199.1c.688-.372,1.246-.075,1.246.687a2.593,2.593,0,0,1-1.246,2.045c-.688.372-1.245.074-1.245-.688A2.688,2.688,0,0,1,167.594,199.1Z" fill="#156ab3"/>
    <path d="M167.613,204.012c.688-.372,1.246-.075,1.246.687a2.628,2.628,0,0,1-1.246,2.064c-.688.371-1.245.074-1.245-.688A2.6,2.6,0,0,1,167.613,204.012Z" fill="#156ab3"/>
    <path d="M171.758,196.8c.687-.371,1.245-.074,1.245.688a2.6,2.6,0,0,1-1.245,2.045c-.688.372-1.246.074-1.246-.688A2.624,2.624,0,0,1,171.758,196.8Z" fill="#e9fcfe"/>
    <path d="M171.777,201.724c.687-.372,1.245-.075,1.245.669a2.626,2.626,0,0,1-1.245,2.063c-.688.372-1.246.075-1.246-.688A2.592,2.592,0,0,1,171.777,201.724Z" fill="#50e6ff"/>
    <path d="M175.922,194.511c.688-.372,1.245-.074,1.245.688a2.594,2.594,0,0,1-1.245,2.045c-.688.371-1.246.074-1.246-.688A2.593,2.593,0,0,1,175.922,194.511Z" fill="#50e6ff"/>
    <path d="M175.941,199.418c.687-.372,1.245-.075,1.245.688a2.626,2.626,0,0,1-1.245,2.063c-.688.372-1.246.074-1.246-.688A2.624,2.624,0,0,1,175.941,199.418Z" fill="#156ab3"/>
    <path d="M137.61,206.13c-.688-.372-1.245-.074-1.245.688a2.591,2.591,0,0,0,1.245,2.044c.688.372,1.245.075,1.245-.687A2.565,2.565,0,0,0,137.61,206.13Z" fill="#156ab3"/>
    <path d="M137.592,211.036c-.688-.371-1.246-.074-1.246.688a2.628,2.628,0,0,0,1.246,2.064c.687.371,1.245.074,1.245-.688A2.6,2.6,0,0,0,137.592,211.036Z" fill="#156ab3"/>
    <path d="M133.446,203.824c-.688-.372-1.246-.074-1.246.688a2.593,2.593,0,0,0,1.246,2.045c.688.372,1.245.074,1.245-.688A2.621,2.621,0,0,0,133.446,203.824Z" fill="#156ab3"/>
    <path d="M133.446,208.731c-.688-.372-1.246-.074-1.246.669a2.626,2.626,0,0,0,1.246,2.064c.688.372,1.245.074,1.245-.688A2.722,2.722,0,0,0,133.446,208.731Z" fill="#32b0e7"/>
    <path d="M129.283,201.538c-.688-.372-1.246-.074-1.246.688a2.6,2.6,0,0,0,1.246,2.045c.688.371,1.245.074,1.245-.67A2.552,2.552,0,0,0,129.283,201.538Z" fill="#50e6ff"/>
    <path d="M129.283,206.445c-.688-.372-1.246-.075-1.246.687a2.626,2.626,0,0,0,1.246,2.064c.688.372,1.245.074,1.245-.688A2.6,2.6,0,0,0,129.283,206.445Z" fill="#32b0e7"/>
    <path d="M125.137,199.234c-.688-.372-1.245-.075-1.245.687a2.592,2.592,0,0,0,1.245,2.045c.688.372,1.245.075,1.245-.688A2.62,2.62,0,0,0,125.137,199.234Z" fill="#156ab3"/>
    <path d="M125.118,204.16c-.688-.372-1.245-.075-1.245.687a2.625,2.625,0,0,0,1.245,2.064c.688.372,1.246.074,1.246-.688A2.6,2.6,0,0,0,125.118,204.16Z" fill="#156ab3"/>
    <path d="M120.972,196.948c-.687-.372-1.245-.075-1.245.687a2.6,2.6,0,0,0,1.245,2.045c.688.372,1.246.074,1.246-.688A2.592,2.592,0,0,0,120.972,196.948Z" fill="#e9fcfe"/>
    <path d="M120.955,201.854c-.688-.371-1.246-.074-1.246.67a2.624,2.624,0,0,0,1.246,2.063c.687.372,1.245.074,1.245-.688A2.626,2.626,0,0,0,120.955,201.854Z" fill="#50e6ff"/>
    <path d="M116.808,194.66c-.688-.371-1.245-.074-1.245.688a2.592,2.592,0,0,0,1.245,2.045c.688.372,1.246.074,1.246-.688A2.6,2.6,0,0,0,116.808,194.66Z" fill="#50e6ff"/>
    <path d="M116.79,199.567c-.687-.372-1.245-.074-1.245.688a2.626,2.626,0,0,0,1.245,2.063c.688.372,1.246.074,1.246-.688A2.6,2.6,0,0,0,116.79,199.567Z" fill="#156ab3"/>
    <path d="M220.325,154.7,182,177.46l-39.374-22.63,38.328-22.762Z" fill="#1f1d21" opacity="0.08" style="isolation: isolate"/>
    <path d="M180.91,116.426V70.117l39.482,23.394v46.065Z" fill="#32b0e7"/>
    <path d="M180.91,116.426,140.5,139.559V93.473l40.41-23.356Z" fill="#015ba1"/>
    <path d="M220.388,139.575,180.905,162.7l-40.4-23.146,40.41-23.133Z" fill="#166bb3"/>
    <path d="M180.909,116.219v32.1L153.25,132.269V100.13Z" fill="#f2fdfe"/>
    <path d="M180.91,116.22l27.461-16.054-.227,32.1L180.91,148.328Z" fill="#f2fdfe"/>
    <path d="M153.25,100.132l27.659-16.054,27.462,16.054-27.462,16.054Z" fill="#d8f9ff"/>
    <path d="M180.723,116.294v22.643L160.5,127.526V104.952Z" fill="#2f94d1"/>
    <path d="M180.724,116.294l20.035-11.342v22.574l-20.035,11.447Z" fill="#2e76bc"/>
    <path d="M160.5,104.953l20.223-11.341,20.036,11.341L180.723,116.3Z" fill="#4bc8ef"/>
    <path d="M180.724,134.179,160.641,122.47v1.018l20.083,11.584c.066.039-.075.059,0,.059s-.071-.02,0-.059l19.917-11.33v-1.018Z" fill="#1d4a79"/>
    <path d="M180.724,129.433l-20.083-11.678v1.018l20.083,11.553c.066.039-.075.058,0,.058s-.071-.019,0-.058l19.917-11.295v-1.018Z" fill="#1d4a79"/>
    <path d="M180.724,124.722,160.641,113.04v1.018l20.083,11.553c.066.039-.075.058,0,.058s-.071-.019,0-.058l19.917-11.3v-1.018Z" fill="#1d4a79"/>
    <path d="M180.724,120.011l-20.083-11.678v1.018L180.724,120.9c.066.039-.075.059,0,.059s-.071-.02,0-.059l19.917-11.3v-1.018Z" fill="#1d4a79"/>
    <g opacity="0.8">
      <path d="M191.718,36.582l17.152,9.895V65.923l-17.152-9.9Z" fill="none" stroke="#28aee9" stroke-width="0.75"/>
      <path d="M219.86,69.314l.547.282V64.733l-.208-.1-.452-.226-3.127-1.725v-3.04l3.113,1.752.559.314V56.6l-.191-.108-3.481-1.958V51.261l3.113,1.752.559.314V48.565l-.191-.108L216.62,46.5V42.257l-.187-.109-3.371-1.957v-4.13l-.185-.109L209.549,34,209,33.681l-.018.633-.1,3.376-2.711-1.626V31.926l-.191-.108-3.672-2.066-.559-.314v4.131l-2.922-1.643V27.794l-.191-.107-3.673-2.066-.558-.314v4.11L191.718,27.8V23.67l-.182-.109L188.093,21.5l-.568-.34v4.152l-3.113-1.751-.559-.315v4.012L181.2,25.737l-.561-.32v5l.194.107,3.134,1.729v3.275L181.2,34l-.556-.307v4.988l.194.107,3.134,1.729v3.247l-2.875-1.725-.568-.34V46.71l.194.107,3.134,1.73v3.274l-2.771-1.529-.557-.307v4.873l.194.107,3.134,1.729v4.353l.184.109,3.488,2.071v3.9l.182.109L191.15,69.3l.568.341V65.731l2.807,1.63v3.9l.187.109,3.557,2.065.564.327v-3.9l2.807,1.63v3.9l.187.109,3.557,2.065.564.328v-3.9l2.807,1.63V79.41l.187.108,3.557,2.066.563.327V78.124l2.994,1.739.564.327V75.819l3.113,1.751.559.314V73.007L220.1,72.9l-3.481-1.958v-3.3Zm-7.777-24.789V72L188.275,58.207V30.73Z" fill="none" stroke="#28aee9" stroke-width="0.75"/>
    </g>
  </g>
</svg>
