<svg xmlns="http://www.w3.org/2000/svg" xmlns:xlink="http://www.w3.org/1999/xlink" width="336" height="240" viewBox="0 0 336 240">
  <defs>
    <linearGradient id="b4ecfb8c-2ad3-44f8-acd9-dede73cff7b8" x1="347.315" y1="2.499" x2="394.091" y2="-25.092" gradientTransform="matrix(1, 0, 0, -1, -228, 56)" gradientUnits="userSpaceOnUse">
      <stop offset="0" stop-color="#50e6ff"/>
      <stop offset="0.8" stop-color="#0078d4"/>
    </linearGradient>
    <linearGradient id="bb2bd778-e737-4bc6-b324-f92cdda2dc4d" x1="526.706" y1="-102.666" x2="577.595" y2="-175.155" xlink:href="#b4ecfb8c-2ad3-44f8-acd9-dede73cff7b8"/>
    <linearGradient id="ef7e141b-d5c4-4dc1-af13-d807e80a52de" x1="514.839" y1="-55.953" x2="450.708" y2="14.867" gradientTransform="matrix(1, 0, 0, -1, -228, 56)" gradientUnits="userSpaceOnUse">
      <stop offset="0" stop-color="#50e6ff"/>
      <stop offset="0.397" stop-color="#d5f9fd"/>
    </linearGradient>
    <linearGradient id="bd8fd821-5657-4a01-aa7a-ae8a22cf2784" x1="336.982" y1="-55.994" x2="557.642" y2="-55.994" xlink:href="#ef7e141b-d5c4-4dc1-af13-d807e80a52de"/>
    <linearGradient id="e7ef2f1b-2b35-4a00-bf20-7e6b8eb18227" x1="231.159" y1="-69.513" x2="340.762" y2="-174.218" xlink:href="#b4ecfb8c-2ad3-44f8-acd9-dede73cff7b8"/>
    <linearGradient id="a97f1e7a-639e-4e8a-8d19-01cf1077fb43" x1="423.427" y1="-76.767" x2="430.252" y2="-84.306" gradientTransform="matrix(1, 0, 0, -1, -228, 56)" gradientUnits="userSpaceOnUse">
      <stop offset="0"/>
      <stop offset="0.822" stop-opacity="0"/>
    </linearGradient>
    <linearGradient id="bd6cfd73-90bf-4a99-a811-a7e3a6c09779" x1="416.457" y1="-80.939" x2="423.282" y2="-88.478" xlink:href="#a97f1e7a-639e-4e8a-8d19-01cf1077fb43"/>
    <linearGradient id="a182961d-d1ce-459f-8de7-bc0f697e04eb" x1="409.189" y1="-85.212" x2="416.014" y2="-92.751" xlink:href="#a97f1e7a-639e-4e8a-8d19-01cf1077fb43"/>
  </defs>
  <g id="fb80b028-1d50-41a4-b0f9-1f12f1d6b540" data-name="Layer 5">
    <path d="M114.839,58.857l6.538-4.087c4.223-2.588,10.216-2.179,16.618,1.771a5.925,5.925,0,0,0,.953.545c3.406,2.043,3.678,2.179,3.542,2.316l.817,8.445c-3.269-2.18-7.491-4.632-11.033-6.675a6,6,0,0,0-.953-.545C124.919,56.95,119.062,56.541,114.839,58.857Z" fill="url(#b4ecfb8c-2ad3-44f8-acd9-dede73cff7b8)"/>
    <path d="M158.564,9,165.1,4.918c10.9-6.13,26.016-5.312,42.361,4.359l-6.538,4.086C184.58,3.556,169.46,2.6,158.564,9Z" fill="#d5f9fd"/>
    <path d="M200.925,13.227l6.538-4.087c17.98,10.625,34.189,29.149,44.949,50.126l-6.538,4.086C234.977,42.376,218.9,23.715,200.925,13.227Z" fill="#d5f9fd"/>
    <path d="M328.689,213.32l-7.219,4.358c4.223-2.315,7.492-8.036,7.492-15.391.136-14.847-10.352-33.236-23.429-40.727a29.635,29.635,0,0,0-3-1.635c-1.635-.953-3.814-2.179-5.721-3.133l6.4-4.222c1.771,1.09,4.222,2.316,5.857,3.269,1.09.545,2.043,1.09,3,1.635C325.011,165.1,335.5,183.353,335.5,198.2,335.5,205.556,332.912,210.868,328.689,213.32Z" fill="url(#bb2bd778-e737-4bc6-b324-f92cdda2dc4d)"/>
    <path d="M245.873,63.216l6.538-4.087c5.721-.272,12.123,1.363,18.934,5.449,21.385,12.667,38.82,42.77,38.683,67.7-.136,8.854-2.315,15.937-6.265,20.7l-7.083,4.359c3.814-4.767,6.4-11.987,6.4-20.976.136-24.791-16.754-55.166-38.412-67.7C258,64.578,251.322,62.807,245.873,63.216Z" fill="url(#ef7e141b-d5c4-4dc1-af13-d807e80a52de)"/>
    <path d="M201.469,12.953c17.979,10.625,34.188,29.149,44.949,50.126,5.721-.273,12.123,1.362,18.933,5.448,21.385,12.668,38.82,42.77,38.684,67.7-.136,13.484,5.584,6.129-6.13,20.567,1.771,1.09,3.678,2.043,5.312,3,1.09.545,2.044,1.09,3,1.634,12.94,7.628,23.428,25.88,23.428,40.727,0,5.312-3,25.472-23.564,13.349-11.442-6.538-164-95.347-173.668-100.932-12.94-7.628-23.428-25.88-23.428-40.727.136-14.847,10.761-20.84,23.7-13.348a6.015,6.015,0,0,0,.954.545c3.405,2.043,6.947,4.086,10.216,6.265a103.439,103.439,0,0,1-2.18-20.023C141.809-.8,176.406-1.621,201.469,12.953Z" opacity="0.3" fill="url(#bd8fd821-5657-4a01-aa7a-ae8a22cf2784)" style="isolation: isolate"/>
    <path d="M174.227,4.917l.136,2.043c8.037.136,16.618,2.724,25.88,7.9,17.026,10.079,33.235,27.923,44.405,49.444a1.888,1.888,0,0,0,1.634.954h1.5c5.176,0,10.625,1.77,16.482,5.312,20.84,12.259,38,41.816,37.866,65.925-.136,8.037-2.179,14.711-5.857,19.342a1.455,1.455,0,0,0-.408,1.5,1.843,1.843,0,0,0,.953,1.362c1.771,1.089,3.678,2.043,5.04,3l1.634.954,1.362.681c12.532,7.219,22.611,24.79,22.475,39.092-.136,9.262-4.5,14.847-11.305,14.847a19.417,19.417,0,0,1-9.535-3L132.819,113.2c-12.531-7.22-22.611-24.791-22.475-39.093.137-9.262,4.5-14.847,11.306-14.847a19.417,19.417,0,0,1,9.535,3l.272.136.545.409c3.678,2.179,6.947,4.086,10.079,6.129a2.606,2.606,0,0,0,1.09.409,4.183,4.183,0,0,0,1.09-.273,1.488,1.488,0,0,0,.681-1.77,101.889,101.889,0,0,1-2.18-19.751C142.9,22.624,155.021,7.1,174.091,7.1Zm0,0c-19.478-.137-33.235,15.391-33.235,42.225a85.832,85.832,0,0,0,2.179,20.023c-3.269-2.18-6.674-4.223-10.216-6.266a5.925,5.925,0,0,0-.953-.545c-3.814-2.179-7.355-3.405-10.488-3.405-7.764,0-13.076,5.993-13.076,16.617-.137,14.847,10.351,33.236,23.428,40.727,9.671,5.585,162.226,94.53,173.668,101.068,3.813,2.179,7.355,3.405,10.488,3.405,7.764.137,13.076-5.993,13.076-16.617.136-14.847-10.352-33.236-23.428-40.727a29.767,29.767,0,0,0-3-1.635c-1.634-.953-3.269-2.043-5.312-3,3.814-4.768,6.129-11.442,6.129-20.568.137-24.79-17.026-55.165-38.683-67.833-6.266-3.677-12.4-5.448-17.571-5.448-.545,0-.818.136-1.363.136C235.113,42.1,218.9,23.441,200.652,12.953,191.526,7.641,182.4,4.917,174.227,4.917Z" fill="#fff"/>
    <path d="M116.113,189.932,48.625,149.41.5,177.991l68.739,40.077Z" fill="#1f1d21" opacity="0.2" style="isolation: isolate"/>
    <path d="M126.178,129.423l-12.767,56.092L48.162,150.2,58.509,95.3a1.416,1.416,0,0,1,2.117-1.069Z" fill="#0078d4"/>
    <path d="M52.276,147.575l57.706,30.8L121.64,131.6,61.857,100.135a.243.243,0,0,0-.282,0,.264.264,0,0,0-.162.242C61.413,100.4,52.155,147.514,52.276,147.575Z" fill="#0279d5"/>
    <path d="M48.2,147.878c.444-3.974,9.581-50.627,9.9-52.321.384-1.936,1.574-3.166,3.49-2.218.887.443,62,33.179,62.869,33.7,2.34,1.473,2.4,2.461,1.957,5.063-.4,2.34-11.679,50-12,51.554-.484,2.36.5,1.694-1.029,1.573a.275.275,0,0,1,.02-.1h-.06a.611.611,0,0,1-.525-.685c.02-.162,12.082-51.595,12.082-51.595.766-3.187-.161-3.872-1.271-4.639-.928-.645-62.325-33.421-62.325-33.421s-1.129-.424-1.674.262a3.807,3.807,0,0,0-.564,1.8c-.222,1.694-9.48,48.065-9.944,52.038-.081.726-.02.464.1.807.121.323.02-.02-.3.081-.323.121-.161.181-.282-.121A3.084,3.084,0,0,1,48.2,147.878Z" fill="#0162ad"/>
    <path d="M46.588,147.172,3.021,172.122l4.216,2.683,61.034,34.349,1.331.787,43.062-24.487,1.533-.766-.948-1.372-64.765-35.9A1.739,1.739,0,0,0,46.588,147.172Z" fill="#afadae"/>
    <path d="M3.706,171.82c.182.343-.181.645.242.948,7.645,5.486,61.256,35.257,62.991,36.205,1.9,1.008,1.835,1.391,4.457-.1,2.32-1.331,34.692-19.605,41.55-23.8a2.085,2.085,0,0,0,.888-1.512c.443-.3.625,2.38.443,3.65a2.294,2.294,0,0,1-.907,1.311c-4.8,2.965-39.816,23.2-41.712,24.245-2.7,1.492-3.307,1.351-5.688.06C62.945,211.191,8.224,179.807,3.2,176.3a1,1,0,0,1-.424-.827l.061-3.167C2.879,172.264,3.525,171.477,3.706,171.82Z" fill="#0162ad"/>
    <path d="M113.552,183.174,47.758,146.889a1.625,1.625,0,0,0-1.755-.02L3.324,171.476a1.134,1.134,0,0,0-.464.867,1.258,1.258,0,0,0,.4,1.089l64.2,36.669a3.108,3.108,0,0,0,1.432.424,2.965,2.965,0,0,0,1.472-.384l43.123-24.325a1.31,1.31,0,0,0,.646-1.129A1.8,1.8,0,0,0,113.552,183.174Z" fill="url(#e7ef2f1b-2b35-4a00-bf20-7e6b8eb18227)"/>
    <path d="M53.526,146.547,109.114,176.9a1.571,1.571,0,0,0,2.279-1.029l10.327-44.757a1.274,1.274,0,0,0-.665-1.432L63.43,98.967a1.315,1.315,0,0,0-1.9.907l-8.8,45A1.557,1.557,0,0,0,53.526,146.547Z" fill="#0162ad"/>
    <path d="M47.838,159.315l-2.824,1.674,3.933,2.239,2.8-1.674Z" fill="#50e6ff"/>
    <path d="M52.8,162.137,50,163.812l3.247,1.855,2.8-1.674Z" fill="#50e6ff"/>
    <path d="M57.1,164.6l-2.824,1.654,3.288,1.875,2.823-1.674Z" fill="#50e6ff"/>
    <path d="M44.651,161.9l-6.938-3.954L34.788,159.7l6.918,3.933Z" fill="#50e6ff"/>
    <path d="M75.128,186.968l2.743-1.633-3.49-2-2.763,1.634Z" fill="#50e6ff"/>
    <path d="M79.061,189.206l2.743-1.634-2.885-1.654-2.743,1.634Z" fill="#50e6ff"/>
    <path d="M70.589,172.263l-2.824,1.674,3.489,2,2.824-1.674Z" fill="#50e6ff"/>
    <path d="M72.243,177.609l-2.924,1.735,3.388,1.936,2.925-1.755Z" fill="#50e6ff"/>
    <path d="M76.681,180.13l-2.945,1.735,3.53,2.017,2.944-1.755Z" fill="#50e6ff"/>
    <path d="M75.813,178.518l2.824-1.674-3.509-2L72.3,176.521Z" fill="#50e6ff"/>
    <path d="M68.027,175.189l-2.944,1.754,3.187,1.816L71.194,177Z" fill="#50e6ff"/>
    <path d="M80.23,181.038l2.824-1.674-3.369-1.916-2.823,1.674Z" fill="#50e6ff"/>
    <path d="M65.89,169.6l-2.8,1.674,3.631,2.078,2.824-1.674Z" fill="#50e6ff"/>
    <path d="M61.412,167.061l-2.8,1.654,3.428,1.956,2.8-1.674Z" fill="#50e6ff"/>
    <path d="M58.225,177.348l2.743-1.634L57.7,173.838l-2.763,1.634Z" fill="#50e6ff"/>
    <path d="M62.259,179.646,65,178.012,62.017,176.3l-2.743,1.654Z" fill="#50e6ff"/>
    <path d="M45.7,162.482l-2.945,1.734,3.671,2.1,2.925-1.755Z" fill="#50e6ff"/>
    <path d="M53.889,174.886l2.763-1.634-3.187-1.815L50.7,173.071Z" fill="#50e6ff"/>
    <path d="M81.965,186.545l2.925-1.755-3.631-2.058-2.945,1.735Z" fill="#50e6ff"/>
    <path d="M89.045,186.06l2.824-1.674L88.5,182.47l-2.8,1.674Z" fill="#50e6ff"/>
    <path d="M70.569,184.386l2.763-1.634-3.046-1.734-2.743,1.633Z" fill="#50e6ff"/>
    <path d="M63.893,172.85l-2.945,1.734,3.107,1.755,2.924-1.735Z" fill="#50e6ff"/>
    <path d="M59.375,170.267,56.43,172l3.47,2,2.944-1.755Z" fill="#50e6ff"/>
    <path d="M55.018,167.785l-2.945,1.755,3.308,1.876,2.945-1.755Z" fill="#50e6ff"/>
    <path d="M66.5,182.046l2.743-1.634L66.051,178.6l-2.743,1.633Z" fill="#50e6ff"/>
    <path d="M50.4,165.163,47.455,166.9l3.591,2.037L53.97,167.2Z" fill="#50e6ff"/>
    <path d="M88.1,178.011l-2.683,1.594,3.268,1.855,2.682-1.593Z" fill="#50e6ff"/>
    <path d="M49.672,172.465l2.743-1.634L49.35,169.1l-2.764,1.634Z" fill="#50e6ff"/>
    <path d="M84.2,175.792l-2.682,1.593L84.365,179l2.682-1.594Z" fill="#50e6ff"/>
    <path d="M92.413,180.452l-2.682,1.594,3.751,2.138,2.683-1.594Z" fill="#50e6ff"/>
    <path d="M84.083,179.949l-2.8,1.674,3.368,1.916,2.8-1.654Z" fill="#50e6ff"/>
    <path d="M101.752,184.668l2.5-1.513-5-2.844L96.729,181.8Z" fill="#50e6ff"/>
    <path d="M80.028,173.414l-2.683,1.594,3.127,1.774,2.682-1.593Z" fill="#50e6ff"/>
    <path d="M62.663,163.531l-2.683,1.593,3.429,1.936,2.682-1.593Z" fill="#50e6ff"/>
    <path d="M95.68,181.219l2.522-1.492-3.167-1.816L92.514,179.4Z" fill="#50e6ff"/>
    <path d="M57.922,160.827l-2.683,1.594,3.692,2.118,2.682-1.594Z" fill="#50e6ff"/>
    <path d="M53.787,158.468,51.1,160.062l3.086,1.775,2.683-1.594Z" fill="#50e6ff"/>
    <path d="M75.854,171.033l-2.682,1.593L76.3,174.4l2.682-1.593Z" fill="#50e6ff"/>
    <path d="M71.517,168.574l-2.683,1.593,3.288,1.876,2.682-1.594Z" fill="#50e6ff"/>
    <path d="M46.789,158.729l-5.3-3.025-2.8,1.674,5.285,3.005Z" fill="#50e6ff"/>
    <path d="M67.12,166.072l-2.682,1.593,3.348,1.9,2.682-1.593Z" fill="#50e6ff"/>
    <path d="M56.954,159.174l2.521-1.492-2.783-1.574-2.521,1.473Z" fill="#50e6ff"/>
    <path d="M91.465,178.819l2.521-1.492-3.63-2.058-2.522,1.473Z" fill="#50e6ff"/>
    <path d="M60.988,161.473l2.522-1.493-2.986-1.694L58,159.759Z" fill="#50e6ff"/>
    <path d="M65.365,163.953l2.521-1.492-3.328-1.876-2.521,1.472Z" fill="#50e6ff"/>
    <path d="M51.488,153.143l-2.905-1.654-2.5,1.492,2.885,1.634Z" fill="#50e6ff"/>
    <path d="M48.463,155.442l-3.349-1.9-2.682,1.594,3.348,1.9Z" fill="#50e6ff"/>
    <path d="M53.143,156.994l2.5-1.492-3.126-1.775-2.5,1.493Z" fill="#50e6ff"/>
    <path d="M86.786,176.157l2.541-1.493-2.844-1.614-2.521,1.493Z" fill="#50e6ff"/>
    <path d="M69.884,166.517l2.521-1.473-3.469-1.976-2.522,1.492Z" fill="#50e6ff"/>
    <path d="M82.913,173.939l2.521-1.493-3.166-1.795-2.522,1.493Z" fill="#50e6ff"/>
    <path d="M78.7,171.537l2.521-1.472-3.287-1.876-2.521,1.493Z" fill="#50e6ff"/>
    <path d="M74.382,169.077,76.9,167.6l-3.449-1.976-2.521,1.492Z" fill="#50e6ff"/>
    <path d="M49.512,156.046l-2.683,1.594,3.227,1.835,2.683-1.593Z" fill="#50e6ff"/>
    <path d="M63.852,181.663l-3,1.775L64.3,185.4l2.985-1.775Z" fill="#50e6ff"/>
    <path d="M59.637,179.3l-2.965,1.755,3.147,1.8,2.985-1.775Z" fill="#50e6ff"/>
    <path d="M39.145,163.289l-5.325-3.025L31.077,161.9l5.3,3.026Z" fill="#50e6ff"/>
    <path d="M30.128,162.461l-3,1.795,3.268,1.855,3.025-1.774Z" fill="#50e6ff"/>
    <path d="M34.465,164.922l-3.025,1.8,3.086,1.735,3-1.775Z" fill="#50e6ff"/>
    <path d="M46.869,172l-3.005,1.775,3.045,1.734,3.006-1.795Z" fill="#50e6ff"/>
    <path d="M42.634,169.582l-3.005,1.8,3.186,1.795,3.006-1.775Z" fill="#50e6ff"/>
    <path d="M38.579,167.282l-3.025,1.775,3.025,1.714L41.585,169Z" fill="#50e6ff"/>
    <path d="M97.213,183.2l-2.682,1.593,3.57,2.038,2.682-1.594Z" fill="#50e6ff"/>
    <path d="M50.944,174.321,47.958,176.1l3.47,1.977,2.985-1.775Z" fill="#50e6ff"/>
    <path d="M55.462,176.882l-2.985,1.8,3.147,1.8,3-1.8Z" fill="#50e6ff"/>
    <path d="M90.093,186.645l4.256,2.421,2.8-1.674-4.236-2.421Z" fill="#50e6ff"/>
    <path d="M80.11,189.812l6.636,3.772,2.743-1.634-6.636-3.792Z" fill="#50e6ff"/>
    <path d="M76.721,188.985l-2.985,1.775,2.9,1.674,2.986-1.795Z" fill="#50e6ff"/>
    <path d="M77.689,193.018l5.123,2.9,2.985-1.775-5.123-2.9Z" fill="#50e6ff"/>
    <path d="M45.539,170.126l2.763-1.633-3.55-2.017-2.763,1.633Z" fill="#50e6ff"/>
    <path d="M68.33,184.225,65.345,186l3.126,1.775,3-1.775Z" fill="#50e6ff"/>
    <path d="M72.525,186.605,69.52,188.38l3.167,1.8,2.985-1.775Z" fill="#50e6ff"/>
    <path d="M40.94,167.5,43.7,165.87l-3.509-2-2.763,1.634Z" fill="#50e6ff"/>
    <path d="M82.993,187.129l7.463,4.256,2.925-1.755L85.938,185.4Z" fill="#50e6ff"/>
    <path d="M59.456,187.47l-19.2-10.952-11.739,6.9,19.243,10.993Z" fill="#50e6ff"/>
    <path d="M76.361,125.555l9.271,11.8-.035,12.6-9.272-11.8Z" fill="#50e6ff"/>
    <path d="M94.94,136.5,94.9,149.1l-9.307.857.035-12.6Z" fill="#32bedd"/>
    <path d="M85.67,124.7l9.27,11.8-9.3.858-9.273-11.8Z" fill="#9cebff"/>
    <path d="M266.892,135.7l-31.2-18.109-3.765,2.152,31.2,18.108,10.041,5.738,3.585-2.152Z" fill="#50e6ff"/>
    <path d="M273.168,143.588l3.586-2.151v47.332l-3.765,2.152Z" fill="#2194db"/>
    <path d="M263.127,137.851l9.861,5.738v47.332l-41.236-23.845V157.035l.179-37.292Z" fill="#32b0e7"/>
    <path d="M243.764,144.306l3.765-2.151-.18,37.292-3.765,2.152Z" fill="#243a5e"/>
    <path d="M247.529,142.155l-3.765,2.151L285,168.152,288.766,166Z" fill="#d5f9fd"/>
    <path d="M285,168.152,288.766,166l-.179,47.333-3.765,2.151Z" fill="#acf3fd"/>
    <path d="M275.139,162.414,285,168.151l-.179,47.333-41.237-23.846V181.6l.18-37.292Z" fill="#50e6ff"/>
    <path d="M275.5,188.053v-3.407l-9.5-5.558V168.151l-3.048-1.792V177.3l-9.681-5.558v3.586l9.681,5.558-.179,10.937,3.048,1.793L266,182.5Z" fill="#d5f9fd"/>
    <path d="M220.325,154.894,182,177.655l-39.374-22.63,38.328-22.762Z" fill="#1f1d21" opacity="0.08" style="isolation: isolate"/>
    <path d="M181.037,116.723l-.134,46.443L140.5,139.81l.134-46.443Z" fill="#015ba1"/>
    <path d="M181.037,116.723,220.5,93.367l-.135,46.443L180.9,163.166Z" fill="#166bb3"/>
    <path d="M140.634,93.368l39.329-23.356L220.5,93.368l-39.463,23.355Z" fill="#32b0e7"/>
    <path d="M179.963,116.455l.134-37.047,32.215,18.658v37.047Z" fill="#0078d4"/>
    <path d="M179.963,116.455l-31.41,18.658.134-37.047L180.1,79.408Z" fill="#1e9fe0"/>
    <path d="M212.312,135.112,180.768,153.77l-32.215-18.658,31.41-18.658Z" fill="#50e6ff"/>
    <path d="M195.8,132.83l-2.819,1.611,7.651,4.564,2.819-1.745Z" opacity="0.35" fill="url(#a97f1e7a-639e-4e8a-8d19-01cf1077fb43)" style="isolation: isolate"/>
    <path d="M188.822,136.991,186,138.6l7.651,4.564,2.819-1.745Z" opacity="0.35" fill="url(#bd6cfd73-90bf-4a99-a811-a7e3a6c09779)" style="isolation: isolate"/>
    <path d="M181.574,141.286l-2.819,1.611,7.651,4.564,2.819-1.745Z" opacity="0.35" fill="url(#a182961d-d1ce-459f-8de7-bc0f697e04eb)" style="isolation: isolate"/>
    <path d="M190.969,108.133l6.309,3.624-.134,25.1L175.265,124.24l.134-31.812,15.57,8.993Z" fill="#45caf2"/>
    <path d="M190.97,101.422l2.819-1.611v6.711l-2.819,1.611Z" fill="#0078d4"/>
    <path d="M175.265,92.428l2.953-1.61,15.57,8.993-2.819,1.611Z" fill="#6ed5ed"/>
    <path d="M190.97,101.422l2.819-1.611,6.174,10.335-2.819,1.611Z" fill="#50e6ff"/>
    <path d="M197.145,111.757l2.818-1.611v25.1l-2.818,1.611Z" fill="#32b0e7"/>
    <path d="M190.97,101.422l6.174,10.336-6.174-3.624Z" fill="#84ecfd"/>
    <path d="M183.587,112.16l6.309,3.624-.135,25.1-21.879-12.618.135-31.812,15.57,8.994Z" fill="#0078d4"/>
    <path d="M183.722,105.448l2.818-1.611v6.577l-2.953,1.745Z" fill="#0078d4"/>
    <path d="M168.017,96.455l2.953-1.745,15.57,9.128-2.819,1.61Z" fill="#32b0e7"/>
    <path d="M183.721,105.448l2.819-1.611,6.174,10.2-2.818,1.744Z" fill="#1e9fe0"/>
    <path d="M189.9,115.783l2.819-1.745v25.1l-2.953,1.745Z" fill="#156ab3"/>
    <path d="M183.722,105.449l6.174,10.335-6.309-3.624Z" fill="#32b0e7"/>
    <path d="M176.473,116.455l6.309,3.624-.134,25.1-21.879-12.618.134-31.812,15.57,8.994Z" fill="#015ba1"/>
    <path d="M177.547,119.945v1.879L164.8,114.442l.134-1.745Z" fill="#0078d4"/>
    <path d="M177.547,123.568v1.745L164.8,117.931l.134-1.745Z" fill="#0078d4"/>
    <path d="M177.547,126.925v1.745L164.8,121.421l.134-1.879Z" fill="#0078d4"/>
    <path d="M176.473,109.744l2.819-1.611v6.711l-2.819,1.611Z" fill="#0078d4"/>
    <path d="M160.9,100.75l2.819-1.611,15.571,8.993-2.819,1.611Z" fill="#166bb3"/>
    <path d="M176.473,109.744l2.819-1.611,6.309,10.2-2.953,1.745Z" fill="#156ab3"/>
    <path d="M182.647,120.078l2.953-1.745-.134,25.235-2.819,1.611Z" fill="#1d4a79"/>
    <path d="M176.473,109.743l6.175,10.336-6.175-3.624Z" fill="#0078d4"/>
    <path d="M180.5,52.5l8.035,4.306" fill="none" stroke="#28aee9" stroke-width="0.75"/>
    <path d="M198.3,62.085l9.131,4.75" fill="none" stroke="#28aee9" stroke-width="0.75"/>
    <path d="M218.723,72.817l7.6,3.835" fill="none" stroke="#28aee9" stroke-width="0.75"/>
    <path d="M193.5,41.923V53.639" fill="none" stroke="#28aee9" stroke-width="0.75"/>
    <path d="M178.612,28.834l9.289,4.222" fill="none" stroke="#28aee9" stroke-width="0.75"/>
    <path d="M212.936,63.282h0a11.948,11.948,0,0,1,4.136,4.365,11.808,11.808,0,0,1,1.7,5.755c-.011,1.857-.662,3.055-1.6,3.591s-2.3.489-3.905-.445h0a12.95,12.95,0,0,1-5.839-10.141c.01-1.845.66-3.038,1.6-3.572S211.333,62.349,212.936,63.282Zm.146,13.591Z" fill="none" stroke="#28aee9" stroke-width="0.75"/>
    <path d="M168.855,29.04l.039-11.379,9.889,5.724-.02,11.356Z" fill="none" stroke="#28aee9" stroke-width="0.75"/>
    <path d="M226.212,76.259l6.5-3.76,6.727,11.83-6.5,3.76Z" fill="none" stroke="#28aee9" stroke-width="0.75"/>
    <path d="M188.512,50.677l9.887,5.7-.039,11.316-9.868-5.7Z" fill="none" stroke="#28aee9" stroke-width="0.75"/>
    <path d="M190.573,29.067l5.723,3.3,2.924,7.555-2.772,3.873-5.723-3.3L187.8,32.96Z" fill="none" stroke="#28aee9" stroke-width="0.75"/>
    <path d="M174.8,43.636h0A11.948,11.948,0,0,1,178.942,48a11.811,11.811,0,0,1,1.7,5.755c-.011,1.857-.662,3.055-1.6,3.591s-2.3.489-3.905-.445h0a11.983,11.983,0,0,1-4.122-4.359,11.864,11.864,0,0,1-1.717-5.781c.01-1.846.66-3.039,1.6-3.573S173.2,42.7,174.8,43.636Zm.146,13.59Z" fill="none" stroke="#28aee9" stroke-width="0.75"/>
  </g>
</svg>
