<svg id="a18db136-e9c8-42bd-9311-986c930e2b3c" data-name="Layer 1" xmlns="http://www.w3.org/2000/svg" xmlns:xlink="http://www.w3.org/1999/xlink" width="336" height="240" viewBox="0 0 336 240">
  <defs>
    <linearGradient id="b0cbf23a-84bd-4dd6-ada4-ac120ab9270e" x1="347.14" y1="2.967" x2="393.916" y2="-24.623" gradientTransform="matrix(1, 0, 0, -1, -228, 56)" gradientUnits="userSpaceOnUse">
      <stop offset="0" stop-color="#50e6ff"/>
      <stop offset="0.8" stop-color="#0078d4"/>
    </linearGradient>
    <linearGradient id="b1b3a44c-3c49-4bc8-bf06-853bfffb5f86" x1="526.532" y1="-102.197" x2="577.421" y2="-174.686" xlink:href="#b0cbf23a-84bd-4dd6-ada4-ac120ab9270e"/>
    <linearGradient id="a0f8b3e5-0d80-4e1a-bc98-11d39c079738" x1="514.663" y1="-55.484" x2="450.532" y2="15.336" gradientTransform="matrix(1, 0, 0, -1, -228, 56)" gradientUnits="userSpaceOnUse">
      <stop offset="0" stop-color="#50e6ff"/>
      <stop offset="0.397" stop-color="#d5f9fd"/>
    </linearGradient>
    <linearGradient id="fd30957d-c898-49f6-b2bc-a040dbe67b0d" x1="336.807" y1="-55.525" x2="557.467" y2="-55.525" xlink:href="#a0f8b3e5-0d80-4e1a-bc98-11d39c079738"/>
    <linearGradient id="bb4ca814-29d2-4757-83b6-f77666516cce" x1="395.591" y1="-77.974" x2="424.741" y2="-77.974" gradientTransform="matrix(1, 0, 0, -1, -228, 56)" gradientUnits="userSpaceOnUse">
      <stop offset="0"/>
      <stop offset="0.822" stop-opacity="0"/>
    </linearGradient>
    <linearGradient id="ac9cab54-f3e7-47b2-8f3d-8ab336663d70" x1="409.167" y1="-60.289" x2="409.167" y2="-99.873" gradientTransform="matrix(1, 0, 0, -1, -228, 56)" gradientUnits="userSpaceOnUse">
      <stop offset="0" stop-color="#4dc2eb"/>
      <stop offset="0.585" stop-color="#0078d4"/>
    </linearGradient>
    <linearGradient id="a8c80827-ed2a-4f23-82f0-b97b155e2cf3" x1="318.254" y1="-56.039" x2="318.254" y2="-157.923" gradientTransform="matrix(1, 0, 0, -1, -228, 56)" gradientUnits="userSpaceOnUse">
      <stop offset="0" stop-color="#69e2ff"/>
      <stop offset="1" stop-color="#fff" stop-opacity="0"/>
    </linearGradient>
    <linearGradient id="abe6ae8b-8f6c-4627-8ca9-6d0ea79af0bf" x1="306.15" y1="-134.65" x2="306.15" y2="-150.628" xlink:href="#a8c80827-ed2a-4f23-82f0-b97b155e2cf3"/>
  </defs>
  <path d="M114.664,58.388,121.2,54.3c4.223-2.588,10.216-2.18,16.618,1.771a5.9,5.9,0,0,0,.954.544c3.405,2.044,3.677,2.18,3.541,2.316l.817,8.445c-3.269-2.179-7.491-4.631-11.033-6.674a5.85,5.85,0,0,0-.953-.545C124.744,56.481,118.887,56.073,114.664,58.388Z" fill="url(#b0cbf23a-84bd-4dd6-ada4-ac120ab9270e)"/>
  <path d="M158.388,8.535l6.539-4.086c10.9-6.13,26.016-5.312,42.361,4.358l-6.538,4.087C184.405,3.087,169.285,2.133,158.388,8.535Z" fill="#d5f9fd"/>
  <path d="M200.749,12.757l6.538-4.086C225.267,19.3,241.476,37.82,252.237,58.8L245.7,62.882C234.8,41.906,218.729,23.245,200.749,12.757Z" fill="#d5f9fd"/>
  <path d="M328.514,212.85l-7.219,4.359c4.222-2.316,7.492-8.036,7.492-15.392.136-14.847-10.352-33.235-23.429-40.727a29.84,29.84,0,0,0-3-1.634c-1.635-.954-3.814-2.179-5.721-3.133l6.4-4.222c1.771,1.089,4.222,2.315,5.857,3.269,1.09.544,2.043,1.089,3,1.634,12.94,7.628,23.429,25.88,23.429,40.727C335.325,205.086,332.737,210.4,328.514,212.85Z" fill="url(#b1b3a44c-3c49-4bc8-bf06-853bfffb5f86)"/>
  <path d="M245.7,62.747l6.538-4.086c5.721-.273,12.123,1.362,18.933,5.448,21.385,12.668,38.82,42.77,38.684,67.7-.136,8.853-2.316,15.936-6.266,20.7l-7.083,4.358c3.814-4.767,6.4-11.986,6.4-20.976.136-24.79-16.754-55.165-38.411-67.7C257.821,64.109,251.146,62.338,245.7,62.747Z" fill="url(#a0f8b3e5-0d80-4e1a-bc98-11d39c079738)"/>
  <path d="M201.294,12.485c17.979,10.624,34.188,29.149,44.949,50.125,5.721-.273,12.123,1.362,18.933,5.448,21.385,12.668,38.82,42.77,38.684,67.7-.136,13.485,5.584,6.129-6.13,20.567,1.771,1.09,3.678,2.044,5.312,3,1.09.545,2.044,1.09,3,1.635,12.94,7.627,23.428,25.879,23.428,40.726,0,5.313-3,25.472-23.564,13.349-11.442-6.538-164-95.347-173.668-100.932-12.94-7.627-23.428-25.88-23.428-40.727.136-14.846,10.761-20.84,23.7-13.348a5.939,5.939,0,0,0,.954.545c3.405,2.043,6.947,4.086,10.216,6.265a103.439,103.439,0,0,1-2.18-20.023C141.634-1.273,176.231-2.09,201.294,12.485Z" opacity="0.3" fill="url(#fd30957d-c898-49f6-b2bc-a040dbe67b0d)" style="isolation: isolate"/>
  <path d="M174.052,4.447l.136,2.043c8.036.137,16.618,2.725,25.88,7.9,17.026,10.08,33.235,27.924,44.4,49.445a1.891,1.891,0,0,0,1.635.953h1.5c5.176,0,10.625,1.771,16.482,5.312,20.84,12.259,38,41.817,37.866,65.926-.136,8.037-2.179,14.711-5.857,19.342a1.453,1.453,0,0,0-.409,1.5,1.844,1.844,0,0,0,.954,1.362c1.771,1.09,3.678,2.044,5.04,3l1.634.953,1.362.682c12.532,7.219,22.611,24.79,22.475,39.092-.136,9.262-4.5,14.847-11.306,14.847a19.416,19.416,0,0,1-9.534-3L132.644,112.734c-12.531-7.219-22.611-24.79-22.475-39.092.137-9.262,4.5-14.847,11.306-14.847a19.416,19.416,0,0,1,9.534,3l.273.136.545.408c3.677,2.18,6.946,4.087,10.079,6.13a2.606,2.606,0,0,0,1.09.409,4.233,4.233,0,0,0,1.09-.273,1.49,1.49,0,0,0,.681-1.771,101.871,101.871,0,0,1-2.18-19.75c.136-24.927,12.259-40.454,31.329-40.454Zm0,0c-19.478-.136-33.235,15.392-33.235,42.225A85.772,85.772,0,0,0,143,66.695c-3.269-2.179-6.674-4.222-10.216-6.266a5.927,5.927,0,0,0-.953-.544c-3.814-2.18-7.356-3.406-10.488-3.406-7.764,0-13.077,5.994-13.077,16.618-.136,14.847,10.352,33.235,23.428,40.727,9.671,5.584,162.227,94.53,173.668,101.068,3.814,2.179,7.356,3.405,10.488,3.405,7.764.136,13.077-5.993,13.077-16.618.136-14.847-10.352-33.235-23.428-40.726a29.767,29.767,0,0,0-3-1.635c-1.635-.953-3.269-2.043-5.312-3,3.814-4.767,6.129-11.441,6.129-20.567.136-24.791-17.026-55.165-38.683-67.833-6.266-3.678-12.4-5.448-17.572-5.448-.544,0-.817.136-1.362.136-10.76-20.976-26.969-39.637-45.221-50.125C191.35,7.171,182.224,4.447,174.052,4.447Z" fill="#fff"/>
  <path d="M220.15,154.425l-38.329,22.761-39.374-22.63,38.328-22.762Z" fill="#1f1d21" opacity="0.08" style="isolation: isolate"/>
  <path d="M142.184,94.8l39.375-22.762L220.541,94.4l-39.375,22.762Z" fill="#50e6ff"/>
  <path d="M181.167,117.165l-.393,45.13,39.375-22.761.392-45.131Z" fill="#0078d4"/>
  <path d="M142.184,94.8v45.131l38.59,22.369.392-45.131Z" fill="#1e9fe0"/>
  <path d="M180.9,117.034l.131-37.02,32.18,18.575-.131,37.02Z" fill="#84ecfd"/>
  <path d="M180.9,117.034l-31.4,18.575.131-37.02,31.4-18.575Z" fill="#acf3fd"/>
  <path d="M213.084,135.609l-31.4,18.706-32.18-18.706,31.4-18.576Z" fill="#d5f9fd"/>
  <path d="M192.417,128.022c5.756,3.27,5.756,8.634.131,11.9s-14.913,3.27-20.669,0-5.756-8.634-.131-11.9C177.5,124.752,186.792,124.752,192.417,128.022Z" opacity="0.35" fill="url(#bb4ca814-29d2-4757-83b6-f77666516cce)" style="isolation: isolate"/>
  <path d="M194.509,131.162v2.486c0,1.962-1.308,3.924-3.924,5.363-5.233,3.009-13.605,3.009-18.838,0-2.616-1.57-3.924-3.532-3.924-5.494v-2.486c0,1.962,1.308,3.925,3.924,5.494,5.233,3.009,13.6,3.009,18.838,0C193.2,135.086,194.509,133.124,194.509,131.162Z" fill="#e6e6e6"/>
  <path d="M195.033,105.522v25.771c0,2.093-1.308,4.055-4.055,5.625-5.364,3.139-14.128,3.139-19.622,0-2.747-1.57-4.055-3.663-4.055-5.756v-25.77c0,2.093,1.308,4.186,4.055,5.755,5.363,3.14,14.128,3.14,19.622,0C193.725,109.578,195.033,107.485,195.033,105.522Z" fill="url(#ac9cab54-f3e7-47b2-8f3d-8ab336663d70)"/>
  <path d="M195.033,106.176v2.616c0,2.093-1.308,4.055-4.055,5.625-5.364,3.14-14.128,3.14-19.622,0-2.747-1.57-4.055-3.663-4.055-5.756v-2.616c0,2.093,1.308,4.186,4.055,5.756,5.363,3.139,14.128,3.139,19.622,0C193.725,110.231,195.033,108.269,195.033,106.176Z" fill="#e6e6e6"/>
  <path d="M190.977,101.074c5.363,3.14,5.494,8.242.131,11.381s-14.128,3.14-19.622,0c-5.364-3.139-5.495-8.241,0-11.381C176.718,97.935,185.483,97.935,190.977,101.074Z" fill="#fff"/>
  <path d="M188.623,102.383c4.186,2.354,4.186,6.279,0,8.633-4.055,2.355-10.858,2.355-14.913,0-4.186-2.354-4.186-6.279,0-8.633C177.765,99.9,184.437,99.9,188.623,102.383Z" fill="#e6e6e6"/>
  <path d="M173.71,103.823c4.055-2.355,10.857-2.355,14.912,0,1.7,1.047,2.748,2.224,3.009,3.663.393-1.831-.654-3.663-3.009-5.1-4.186-2.355-10.857-2.355-14.912,0-2.355,1.439-3.4,3.271-3.009,5.1C170.963,106.047,172.009,104.87,173.71,103.823Z" fill="#ccc"/>
  <path d="M266.672,135.23l-31.2-18.108-3.765,2.152,31.2,18.108,10.04,5.737,3.586-2.151Z" fill="#50e6ff"/>
  <path d="M272.948,143.119l3.586-2.151V188.3l-3.765,2.151Z" fill="#2194db"/>
  <path d="M262.907,137.382l9.861,5.737v47.333l-41.237-23.846v-10.04l.179-37.293Z" fill="#32b0e7"/>
  <path d="M243.543,143.837l3.765-2.151-.179,37.292-3.765,2.152Z" fill="#243a5e"/>
  <path d="M247.309,141.686l-3.765,2.151,41.237,23.846,3.765-2.152Z" fill="#d5f9fd"/>
  <path d="M284.781,167.683l3.765-2.152-.18,47.333-3.765,2.152Z" fill="#acf3fd"/>
  <path d="M274.919,161.944l9.861,5.738-.18,47.332-41.236-23.845V181.128l.179-37.292Z" fill="#50e6ff"/>
  <path d="M275.279,187.584v-3.407l-9.5-5.558V167.683l-3.048-1.793v10.936l-9.682-5.558v3.586l9.682,5.558-.179,10.937,3.048,1.793.179-11.116Z" fill="#d5f9fd"/>
  <path d="M28.329,179.347l8.443-4.89,18.941,10.334,5.542-2.868.326-21.027" fill="none" stroke="#156ab3" stroke-linecap="round" stroke-linejoin="round" stroke-width="0.75"/>
  <path d="M21.776,179.249l14.833,8.574L15.158,200.276.325,191.7Z" fill="#1f1d21" opacity="0.3" style="isolation: isolate"/>
  <path d="M21.841,177.1l-.032,4.238-4.01,2.314.032-4.205Z" fill="#005da4"/>
  <path d="M16.5,181.76,16.462,186l-1.337-.783V181.01Z" fill="#004072"/>
  <path d="M15.126,181.01v4.205L13.789,186V181.76Z" fill="#005da4"/>
  <path d="M31.263,182.541v4.238l-9.454-5.444.032-4.238Z" fill="#004072"/>
  <path d="M16.5,181.759,16.462,186l-1.337.782.033-4.238Z" fill="#3eb1c5"/>
  <path d="M16.5,181.76l-1.337.782-1.369-.782,1.337-.75Z" fill="#45c6dc"/>
  <path d="M15.158,182.541l-.032,4.238L13.789,186v-4.238Z" fill="#2b7b89"/>
  <path d="M27.253,184.889v4.2L17.8,183.65l.032-4.206Z" fill="#2b7b89"/>
  <path d="M20.537,184.107l-.032,4.238-1.337-.783v-4.238Z" fill="#004072"/>
  <path d="M19.168,183.324v4.238l-1.337.783v-4.238Z" fill="#005da4"/>
  <path d="M12.453,184.107v4.238l-1.337-.783v-4.238Z" fill="#004072"/>
  <path d="M11.116,183.324v4.238l-1.337.783v-4.238Z" fill="#005da4"/>
  <path d="M31.263,182.541l-4.01,2.347-9.422-5.444,4.01-2.347Z" fill="#50e6ff"/>
  <path d="M31.263,182.541v4.238l-4.01,2.315v-4.206Z" fill="#3eb1c5"/>
  <path d="M20.537,184.107l-1.336.782-1.37-.782,1.337-.783Z" fill="#45c6dc"/>
  <path d="M20.537,184.106l-.032,4.238-1.337.75.033-4.2Z" fill="#3eb1c5"/>
  <path d="M19.2,184.889l-.033,4.2-1.337-.75v-4.238Z" fill="#2b7b89"/>
  <path d="M12.453,184.106v4.238l-1.337.75v-4.2Z" fill="#3eb1c5"/>
  <path d="M11.116,184.889v4.2l-1.337-.75v-4.238Z" fill="#2b7b89"/>
  <path d="M24.58,186.453v4.206l-1.37-.783.033-4.205Z" fill="#004072"/>
  <path d="M23.243,185.671l-.032,4.205-1.337.783v-4.206Z" fill="#005da4"/>
  <path d="M16.527,186.453l-.032,4.206-1.337-.783v-4.205Z" fill="#004072"/>
  <path d="M15.158,185.671v4.205l-1.336.783v-4.206Z" fill="#005da4"/>
  <path d="M8.442,186.453v4.206l-1.369-.783.033-4.205Z" fill="#004072"/>
  <path d="M7.106,185.671l-.033,4.205-1.336.783.032-4.206Z" fill="#005da4"/>
  <path d="M23.243,187.237l-.032,4.205-1.337-.782v-4.206Z" fill="#2b7b89"/>
  <path d="M24.58,186.454v4.206l-1.37.782.033-4.205Z" fill="#3eb1c5"/>
  <path d="M24.58,186.453l-1.337.783-1.369-.783,1.369-.782Z" fill="#45c6dc"/>
  <path d="M16.528,186.453l-1.37.783-1.336-.783,1.336-.782Z" fill="#45c6dc"/>
  <path d="M15.158,187.237v4.205l-1.336-.782v-4.206Z" fill="#2b7b89"/>
  <path d="M16.527,186.454,16.5,190.66l-1.337.782v-4.205Z" fill="#3eb1c5"/>
  <path d="M8.443,186.453l-1.337.783-1.337-.783,1.337-.782Z" fill="#45c6dc"/>
  <path d="M8.442,186.454v4.206l-1.336.782v-4.205Z" fill="#3eb1c5"/>
  <path d="M7.106,187.237v4.205l-1.369-.782.032-4.206Z" fill="#2b7b89"/>
  <path d="M20.57,188.769l-.033,4.238-1.336-.783v-4.238Z" fill="#004072"/>
  <path d="M19.2,187.986v4.238l-1.337.783v-4.238Z" fill="#005da4"/>
  <path d="M12.485,188.769v4.238l-1.337-.783v-4.238Z" fill="#004072"/>
  <path d="M11.148,187.986v4.238l-1.369.783.033-4.238Z" fill="#005da4"/>
  <path d="M19.233,189.551l-.032,4.238-1.337-.782v-4.238Z" fill="#2b7b89"/>
  <path d="M20.57,188.769l-.033,4.238-1.336.782.032-4.238Z" fill="#3eb1c5"/>
  <path d="M20.57,188.769l-1.337.782-1.369-.782,1.337-.783Z" fill="#45c6dc"/>
  <path d="M12.485,188.769l-1.336.782-1.337-.782,1.337-.783Z" fill="#45c6dc"/>
  <path d="M12.485,188.769v4.238l-1.337.782v-4.238Z" fill="#3eb1c5"/>
  <path d="M11.148,189.551v4.238l-1.369-.782.033-4.238Z" fill="#2b7b89"/>
  <path d="M16.527,191.115v4.206l-1.336-.75v-4.238Z" fill="#004072"/>
  <path d="M15.191,190.333v4.238l-1.337.75v-4.206Z" fill="#005da4"/>
  <path d="M16.527,191.115l-1.336.783-1.337-.783,1.337-.782Z" fill="#45c6dc"/>
  <path d="M15.191,191.9V196.1l-1.337-.782v-4.206Z" fill="#2b7b89"/>
  <path d="M16.527,191.115v4.206l-1.336.782V191.9Z" fill="#3eb1c5"/>
  <path d="M21.809,174l14.833,8.574L15.191,195.027l-14.8-8.574Zm5.444,10.888,4.01-2.347L21.809,177.1l-4.01,2.347Zm-12.095-2.347,1.337-.782-1.337-.783-1.336.783Zm-4.042,2.347,1.337-.782-1.337-.782-1.337.782Zm8.117,4.662,1.337-.782-1.337-.783-1.336.783Zm4.01-2.314,1.337-.783-1.337-.782-1.336.782Zm-16.137,0,1.337-.783-1.337-.782-1.336.782Zm8.085,4.661,1.337-.782-1.337-.782-1.337.782Zm4.01-7.009,1.336-.782-1.336-.782-1.337.782Zm-4.043,2.348,1.337-.783-1.337-.782-1.336.782Zm-4.009,2.314,1.336-.782-1.336-.783-1.337.783Z" fill="#0067b7"/>
  <path d="M12.452,184.107l-1.336.782-1.337-.782,1.337-.783Z" fill="#45c6dc"/>
  <path d="M15.223,195l-.032,4.238L.358,190.66l.032-4.206Z" fill="#005da4"/>
  <path d="M36.642,182.541v4.238L15.191,199.232l.032-4.238Z" fill="#1d4a79"/>
  <path d="M65.2,169.11v15.159L51.507,191.6l-.032,3.554,5.281,3.162L53.105,200.5" fill="none" stroke="#156ab3" stroke-linecap="round" stroke-linejoin="round" stroke-width="0.75"/>
  <path d="M31.263,199.754v-1.891a.718.718,0,0,0,.423.62v1.891A.9.9,0,0,1,31.263,199.754Z" fill="#32b0e7"/>
  <path d="M56.984,201.548v1.891a3.26,3.26,0,0,0-1.3.456,1.805,1.805,0,0,0-.783.782v-1.89A1.8,1.8,0,0,1,55.68,202,3.26,3.26,0,0,1,56.984,201.548Z" fill="#50e6ff"/>
  <path d="M38.532,194.831V192.94a.7.7,0,0,0,.457.62v1.891A.7.7,0,0,1,38.532,194.831Z" fill="#32b0e7"/>
  <path d="M54.93,202.754l-.033,1.891-15.941-9.194.033-1.89Z" fill="#0078d4"/>
  <path d="M57.017,201.548a3.26,3.26,0,0,0-1.3.456,1.8,1.8,0,0,0-.783.783l-15.941-9.194a.633.633,0,0,1,0-1.206,2.347,2.347,0,0,1,2.086,0Z" fill="#50e6ff"/>
  <path d="M60.831,202.069v2.608a.9.9,0,0,1-.1.424,1.663,1.663,0,0,1-.75.75,4.32,4.32,0,0,1-1.336.456,4.368,4.368,0,0,1-2.837-.456,1.48,1.48,0,0,1-.88-1.239V202a1.521,1.521,0,0,0,.88,1.239,4.62,4.62,0,0,0,2.837.456,3.606,3.606,0,0,0,1.336-.456,1.82,1.82,0,0,0,.75-.75A1.6,1.6,0,0,0,60.831,202.069Z" fill="#1d4a79"/>
  <path d="M59.951,200.863c.782.457,1.043,1.076.782,1.663a1.663,1.663,0,0,1-.75.75,4.32,4.32,0,0,1-1.336.456,4.368,4.368,0,0,1-2.837-.456c-.782-.457-1.043-1.076-.782-1.663a1.8,1.8,0,0,1,.782-.782,4.451,4.451,0,0,1,1.3-.457A4.93,4.93,0,0,1,59.951,200.863Z" fill="#0078d4"/>
  <path d="M60.081,205.134l-.033,1.891-1.336-.783v-1.89Z" fill="#0078d4"/>
  <path d="M62.167,203.927a.633.633,0,0,1,0,1.206,2.347,2.347,0,0,1-2.086,0l-1.337-.782a3.6,3.6,0,0,0,1.337-.457,1.821,1.821,0,0,0,.749-.749Z" fill="#50e6ff"/>
  <path d="M62.591,204.514v1.891a.757.757,0,0,1-.424.619,2.347,2.347,0,0,1-2.086,0v-1.891a2.347,2.347,0,0,0,2.086,0A.717.717,0,0,0,62.591,204.514Z" fill="#1d4a79"/>
  <path d="M42.412,202.2v1.891a3.26,3.26,0,0,0-1.3.456,1.555,1.555,0,0,0-.75.783v-1.891a1.89,1.89,0,0,1,.75-.782A3.245,3.245,0,0,1,42.412,202.2Z" fill="#50e6ff"/>
  <path d="M40.326,203.405v1.924l-8.607-4.988V198.45Z" fill="#0078d4"/>
  <path d="M42.412,202.2a3.276,3.276,0,0,0-1.3.457,1.557,1.557,0,0,0-.75.782l-8.606-4.955a.633.633,0,0,1,0-1.206,2.347,2.347,0,0,1,2.086,0Z" fill="#50e6ff"/>
  <path d="M46.03,203.112v2.608a.9.9,0,0,1-.1.424,1.673,1.673,0,0,1-.75.75,4.449,4.449,0,0,1-4.173,0,1.478,1.478,0,0,1-.88-1.239v-2.608a1.519,1.519,0,0,0,.88,1.239,4.615,4.615,0,0,0,2.836.456,3.611,3.611,0,0,0,1.337-.456,1.827,1.827,0,0,0,.75-.75A.9.9,0,0,0,46.03,203.112Z" fill="#1d4a79"/>
  <path d="M45.15,201.906c.783.457,1.043,1.076.783,1.663a1.673,1.673,0,0,1-.75.75,4.449,4.449,0,0,1-4.173,0c-.782-.457-1.043-1.076-.782-1.663a1.8,1.8,0,0,1,.782-.782,4.412,4.412,0,0,1,1.3-.457A4.919,4.919,0,0,1,45.15,201.906Z" fill="#0078d4"/>
  <path d="M52.648,210.35v1.89l-8.7-5.02v-1.891Z" fill="#0078d4"/>
  <path d="M55.159,209.731v1.89a.759.759,0,0,1-.424.62,2.349,2.349,0,0,1-2.087,0V210.35a2.349,2.349,0,0,0,2.087,0A.719.719,0,0,0,55.159,209.731Z" fill="#1d4a79"/>
  <path d="M54.734,209.111a.633.633,0,0,1,0,1.206,2.347,2.347,0,0,1-2.086,0l-8.7-5.02a3.606,3.606,0,0,0,1.336-.456,1.82,1.82,0,0,0,.75-.75Z" fill="#50e6ff"/>
  <path d="M23.993,203.96v-1.891a.757.757,0,0,0,.423.62v1.891A.719.719,0,0,1,23.993,203.96Z" fill="#32b0e7"/>
  <path d="M27.872,202.232v1.891a3.6,3.6,0,0,0-1.337.457,1.551,1.551,0,0,0-.749.782v-1.891a1.893,1.893,0,0,1,.749-.782A3.637,3.637,0,0,1,27.872,202.232Z" fill="#50e6ff"/>
  <path d="M25.786,203.438v1.924l-1.369-.783.033-1.89Z" fill="#0078d4"/>
  <path d="M27.872,202.232a3.606,3.606,0,0,0-1.336.456,1.557,1.557,0,0,0-.75.782l-1.337-.782a.633.633,0,0,1,0-1.206,2.349,2.349,0,0,1,2.087,0Z" fill="#50e6ff"/>
  <path d="M31.719,203.5v2.608a.907.907,0,0,1-.1.424,1.657,1.657,0,0,1-.75.749,4.3,4.3,0,0,1-1.336.457,4.358,4.358,0,0,1-2.836-.457,1.478,1.478,0,0,1-.881-1.238v-2.608a1.518,1.518,0,0,0,.881,1.238,4.616,4.616,0,0,0,2.836.457,3.589,3.589,0,0,0,1.336-.457,1.818,1.818,0,0,0,.75-.749A1.011,1.011,0,0,0,31.719,203.5Z" fill="#1d4a79"/>
  <path d="M30.871,202.265c.783.456,1.044,1.075.783,1.662a1.663,1.663,0,0,1-.75.75,4.3,4.3,0,0,1-1.337.456,4.366,4.366,0,0,1-2.836-.456c-.782-.456-1.043-1.076-.782-1.663a1.8,1.8,0,0,1,.782-.782,4.41,4.41,0,0,1,1.3-.456A5.191,5.191,0,0,1,30.871,202.265Z" fill="#0078d4"/>
  <path d="M45.639,215.043v1.891l-15.974-9.193.033-1.924Z" fill="#0078d4"/>
  <path d="M48.182,214.424v1.891a.757.757,0,0,1-.424.619,2.313,2.313,0,0,1-2.119,0v-1.891a2.418,2.418,0,0,0,2.119,0A.786.786,0,0,0,48.182,214.424Z" fill="#1d4a79"/>
  <path d="M47.726,213.805a.634.634,0,0,1,0,1.207,2.316,2.316,0,0,1-2.119,0l-15.974-9.226a3.589,3.589,0,0,0,1.336-.457,1.7,1.7,0,0,0,.75-.782Z" fill="#50e6ff"/>
  <path d="M128.183,155.75l-.154,58.173-75.7-43.711.154-58.173Z" fill="#0078d4"/>
  <path d="M128.183,155.75l-.154,58.173-75.7-43.711.154-58.173Z" fill="url(#a8c80827-ed2a-4f23-82f0-b97b155e2cf3)"/>
  <path d="M128.183,155.75l6.019-3.5-.154,58.173-6.019,3.5Z" fill="#004e99"/>
  <path d="M52.479,112.039l6.019-3.5,75.7,43.707-6.019,3.5Z" fill="#0078d4"/>
  <path d="M56.29,119.42l67.931,39.519v48.522L56.29,168.245Z" fill="#2195dc" opacity="0.9" style="isolation: isolate"/>
  <path d="M65.571,190.65l11.06-6.407L102.038,198.8l-11.308,6.4Z" fill="#0078d4"/>
  <path d="M73.314,186.164l3.317-1.921L102.037,198.8l-3.3,1.865Z" fill="#004e99"/>
  <path d="M90.73,206.628v-1.422L65.571,190.65V192.3Z" fill="#0078d4"/>
  <path d="M90.73,206.628v-1.422L65.571,190.65V192.3Z" fill="url(#abe6ae8b-8f6c-4627-8ca9-6d0ea79af0bf)"/>
  <path d="M103.237,199.606,90.73,206.628v-1.421l11.307-6.4Z" fill="#141e2f"/>
  <path d="M87.5,149.228l9.27,11.8-9.305.858-9.274-11.8Z" fill="#9cebff"/>
  <path d="M78.186,150.087l9.272,11.8-.036,12.6-9.272-11.8Z" fill="#50e6ff"/>
  <path d="M96.765,161.032l-.036,12.6-9.307.857.036-12.6Z" fill="#32bedd"/>
  <path d="M223.209,47.53v-.29l-.253-.144-10.508-5.987-.747-.426V64.26l-6.133-3.409-1.607-.893.933,1.584L216.829,81.8l.249.421.426-.239,12.065-6.751.781-.437-.781-.436-6.36-3.551Z" fill="none" stroke="#28aee9" opacity="0.8" style="isolation: isolate"/>
  <path d="M186.166,61.556v.284l.244.145,10.07,5.988.756.449V44.844l5.838,3.386,1.59.922-.9-1.6L192.323,27.3l-.25-.442-.438.256-11.562,6.752-.74.432.74.432,6.093,3.549Z" fill="none" stroke="#28aee9" opacity="0.8" style="isolation: isolate"/>
</svg>
