<svg width="337" height="253" viewBox="0 0 337 253" fill="none" xmlns="http://www.w3.org/2000/svg">
<path d="M116.339 57.8448L122.877 53.7585C127.1 51.1705 133.093 51.5791 139.495 55.5292C139.767 55.6654 140.04 55.9379 140.448 56.0741C143.854 58.1172 144.126 58.2534 143.99 58.3896L144.807 66.8347C141.538 64.6553 137.316 62.2035 133.774 60.1604C133.502 60.0242 133.229 59.7517 132.821 59.6155C126.419 55.9379 120.562 55.5292 116.339 57.8448Z" fill="url(#paint0_linear)"/>
<path d="M160.064 7.9921L166.602 3.9058C177.499 -2.22365 192.618 -1.40639 208.963 8.26452L202.425 12.3508C186.08 2.5437 170.96 1.59023 160.064 7.9921Z" fill="#D5F9FD"/>
<path d="M202.425 12.2147L208.963 8.12836C226.943 18.7527 243.152 37.2773 253.912 58.2537L247.374 62.34C236.477 41.3636 220.404 22.7028 202.425 12.2147Z" fill="#D5F9FD"/>
<path d="M330.189 212.308L322.97 216.666C327.193 214.351 330.462 208.63 330.462 201.275C330.598 186.428 320.11 168.039 307.033 160.548C306.08 160.003 305.263 159.458 304.037 158.913C302.402 157.96 300.223 156.734 298.316 155.781L304.718 151.558C306.489 152.648 308.94 153.874 310.575 154.827C311.665 155.372 312.618 155.917 313.572 156.462C326.511 164.089 337 182.342 337 197.188C337 204.544 334.412 209.856 330.189 212.308Z" fill="url(#paint1_linear)"/>
<path d="M247.373 62.2038L253.911 58.1175C259.632 57.8451 266.034 59.4796 272.845 63.5659C294.23 76.2335 311.665 106.336 311.528 131.262C311.392 140.116 309.213 147.199 305.263 151.966L298.18 156.325C301.994 151.558 304.582 144.339 304.582 135.349C304.718 110.558 287.828 80.1836 266.17 67.6522C259.496 63.5659 252.822 61.7952 247.373 62.2038Z" fill="url(#paint2_linear)"/>
<path opacity="0.3" d="M202.969 11.9415C220.948 22.5659 237.157 41.0905 247.918 62.0668C253.639 61.7944 260.041 63.4289 266.851 67.5152C288.236 80.1828 305.671 110.285 305.535 135.212C305.399 148.696 311.119 141.341 299.405 155.779C301.176 156.869 303.083 157.823 304.717 158.776C305.807 159.321 306.761 159.866 307.714 160.41C320.654 168.038 331.142 186.29 331.142 201.137C331.142 206.449 328.146 226.609 307.578 214.486C296.136 207.948 143.581 119.139 133.91 113.554C120.97 105.926 110.482 87.6743 110.482 72.8274C110.618 57.9805 121.243 51.9873 134.182 59.4788C134.455 59.615 134.727 59.8875 135.136 60.0237C138.541 62.0668 142.083 64.11 145.352 66.2893C143.99 59.4788 143.172 52.6683 143.172 46.2665C143.309 -1.81569 177.906 -2.63295 202.969 11.9415Z" fill="url(#paint3_linear)"/>
<path d="M175.727 3.90456L175.863 5.94771C183.9 6.08392 192.481 8.67191 201.743 13.8479C218.769 23.9274 234.978 41.771 246.148 63.2921C246.42 63.837 247.101 64.2456 247.782 64.2456C247.782 64.2456 247.782 64.2456 247.918 64.2456C248.191 64.2456 248.872 64.2456 249.28 64.2456C254.456 64.2456 259.905 66.0163 265.762 69.5578C286.602 81.8167 303.764 111.374 303.628 135.483C303.492 143.52 301.449 150.194 297.771 154.825C297.363 155.098 297.226 155.779 297.363 156.324C297.499 156.868 297.635 157.277 298.316 157.686C300.087 158.775 301.994 159.729 303.356 160.682L304.99 161.636L306.352 162.317C318.884 169.536 328.963 187.107 328.827 201.409C328.691 210.671 324.332 216.256 317.522 216.256C314.525 216.256 311.256 215.166 307.987 213.259L134.319 112.192C121.788 104.972 111.708 87.4013 111.844 73.0993C111.981 63.837 116.339 58.2524 123.15 58.2524C126.147 58.2524 129.416 59.3421 132.685 61.249L132.957 61.3852L133.502 61.7938C137.18 63.9732 140.449 65.8801 143.581 67.9233C143.854 68.0595 144.262 68.3319 144.671 68.3319C144.944 68.3319 145.352 68.1957 145.761 68.0595C146.306 67.7871 146.714 66.9698 146.442 66.2888C145.08 59.4783 144.262 52.804 144.262 46.5383C144.399 21.6119 156.521 6.08392 175.591 6.08392L175.727 3.90456ZM175.727 3.90456C156.249 3.76835 142.492 19.2963 142.492 46.1297C142.356 52.5316 143.173 59.3421 144.671 66.1526C141.402 63.9732 137.997 61.93 134.455 59.8869C134.183 59.7507 133.91 59.4783 133.502 59.3421C129.688 57.1627 126.147 55.9368 123.014 55.9368C115.25 55.9368 109.938 61.93 109.938 72.5544C109.801 87.4013 120.289 105.79 133.366 113.281C143.037 118.866 295.592 207.811 307.034 214.349C310.847 216.528 314.389 217.754 317.522 217.754C325.286 217.891 330.598 211.761 330.598 201.137C330.734 186.29 320.246 167.901 307.17 160.41C306.216 159.865 305.399 159.32 304.173 158.775C302.539 157.822 300.904 156.732 298.861 155.779C302.675 151.011 304.99 144.337 304.99 135.211C305.127 110.421 287.964 80.046 266.307 67.3784C260.041 63.7008 253.912 61.93 248.736 61.93C248.191 61.93 247.918 62.0663 247.373 62.0663C236.613 41.0899 220.404 22.4291 202.152 11.941C193.026 6.62876 183.9 3.90456 175.727 3.90456Z" fill="white"/>
<path d="M268.347 134.688L237.15 116.579L233.385 118.731L264.582 136.839L274.622 142.577L278.208 140.425L268.347 134.688Z" fill="#50E6FF"/>
<path d="M274.623 142.576L278.209 140.425V187.758L274.444 189.909L274.623 142.576Z" fill="#2194DB"/>
<path d="M264.582 136.839L274.443 142.577V189.909L233.206 166.064V156.023L233.385 118.731L264.582 136.839Z" fill="#32B0E7"/>
<path d="M245.218 143.294L248.983 141.143L248.804 178.435L245.039 180.587L245.218 143.294Z" fill="#243A5E"/>
<path d="M248.984 141.143L245.219 143.294L286.456 167.14L290.221 164.989L248.984 141.143Z" fill="#D5F9FD"/>
<path d="M286.456 167.14L290.221 164.988L290.042 212.321L286.276 214.473L286.456 167.14Z" fill="#ACF3FD"/>
<path d="M276.594 161.402L286.455 167.139L286.276 214.472L245.039 190.626V180.586L245.218 143.294L276.594 161.402Z" fill="#50E6FF"/>
<path d="M276.954 187.041V183.634L267.452 178.076V167.139L264.404 165.347V176.283L254.722 170.725V174.311L264.404 179.869L264.225 190.806L267.273 192.599L267.452 181.483L276.954 187.041Z" fill="#D5F9FD"/>
<g opacity="0.8">
<path d="M186.588 38.06L203.74 47.9552V67.4008L186.588 57.5056V38.06Z" stroke="#28AEE9" stroke-width="0.75"/>
<path d="M214.73 70.7924L215.277 71.074V70.459V66.4426V66.2109L215.069 66.1072L214.617 65.8811L211.49 64.1557V61.1166L214.603 62.8678L215.162 63.1822V62.541V58.2951V58.0758L214.971 57.9682L211.49 56.0102V52.7395L214.603 54.4908L215.162 54.8051V54.1639V50.2623V50.043L214.971 49.9354L211.49 47.9774V43.9508V43.7349L211.303 43.6265L207.932 41.6693V37.7541V37.5392L207.747 37.4306L204.419 35.4798L203.873 35.1595L203.855 35.7926L203.758 39.1684L201.047 37.5418V33.6229V33.4036L200.856 33.2961L197.184 31.2305L196.625 30.9162V31.5574V35.0473L193.703 33.4036V29.4918V29.2725L193.512 29.165L189.84 27.0994L189.281 26.785V27.4262V30.895L186.588 29.2795V25.3606V25.1483L186.406 25.0391L182.963 22.9735L182.395 22.6328V23.2951V26.785L179.282 25.0338L178.723 24.7195V25.3606V28.7308L176.071 27.2154L175.51 26.8948V27.541V31.6721V31.8935L175.704 32.0005L178.838 33.7296V37.0042L176.066 35.4749L175.51 35.1681V35.8033V39.9344V40.1558L175.704 40.2628L178.838 41.9919V45.2393L175.963 43.5145L175.395 43.1737V43.8361V47.9672V48.1886L175.589 48.2955L178.723 50.0247V53.2992L175.952 51.77L175.395 51.4632V52.0984V56.1147V56.3361L175.589 56.4431L178.723 58.1722V62.3115V62.5249L178.907 62.6339L182.395 64.7053V68.3934V68.6058L182.578 68.715L186.02 70.7806L186.588 71.1213V70.459V67.2087L189.395 68.8388V72.5246V72.7405L189.582 72.8489L193.14 74.9145L193.703 75.2415V74.5902V71.3399L196.51 72.97V76.6557V76.8716L196.697 76.98L200.254 79.0456L200.818 79.3727V78.7213V75.471L203.625 77.1011V80.6721V80.888L203.812 80.9964L207.369 83.062L207.932 83.3891V82.7377V79.6022L210.926 81.3407L211.49 81.6678V81.0164V77.2969L214.603 79.0481L215.162 79.3625V78.7213V74.7049V74.4856L214.971 74.3781L211.49 72.42V69.1232L214.73 70.7924ZM206.953 46.003V73.4804L183.145 59.6855V32.2081L206.953 46.003Z" stroke="#28AEE9" stroke-width="0.75"/>
</g>
<path d="M184.455 150.062L158.955 164.688L193.642 185.688L134.58 218.688" stroke="#45CAF2" stroke-width="1.5"/>
<path opacity="0.2" d="M145.51 233.125L157.455 226.157L122.473 206.125L110.955 213.093L145.51 233.125Z" fill="#1F1D21"/>
<path d="M145.51 232.375V230.875L157.455 223.908V225.405L145.51 232.375Z" fill="#0078D4"/>
<path d="M111.001 212.336V210.859L145.502 230.852V232.352L111.001 212.336Z" fill="#0E91E2"/>
<path d="M145.51 230.875L157.455 223.907L122.473 203.875L110.955 210.843L145.51 230.875Z" fill="#1BA5EA"/>
<path opacity="0.2" d="M175.51 215.959L187.455 208.992L152.473 188.959L140.955 195.927L175.51 215.959Z" fill="#1F1D21"/>
<path d="M175.511 215.209V213.709L187.455 206.742V208.24L175.511 215.209Z" fill="#0078D4"/>
<path d="M141.002 195.17V193.694L175.502 213.686V215.186L141.002 195.17Z" fill="#0E91E2"/>
<path d="M175.51 213.709L187.455 206.741L152.473 186.709L140.955 193.677L175.51 213.709Z" fill="#1BA5EA"/>
<path opacity="0.2" d="M169.374 179.168L181.319 172.2L146.338 152.168L134.819 159.135L169.374 179.168Z" fill="#1F1D21"/>
<path d="M169.375 178.418V176.918L181.319 169.951V171.448L169.375 178.418Z" fill="#0078D4"/>
<path d="M134.866 158.378V156.902L169.366 176.894V178.394L134.866 158.378Z" fill="#0E91E2"/>
<path d="M169.374 176.918L181.319 169.95L146.338 149.918L134.819 156.886L169.374 176.918Z" fill="#1BA5EA"/>
<path d="M220.853 134.012L193.686 149.815L166.36 134.012L193.526 118.248L220.853 134.012Z" fill="#296089"/>
<path d="M220.853 134.012L220.773 148.375L193.606 164.178L193.686 149.815L220.853 134.012Z" fill="#1D4A79"/>
<path d="M193.686 149.815L193.606 164.178L166.24 148.375L166.36 134.012L193.686 149.815Z" fill="#24547F"/>
<path d="M220.612 98.8036L193.446 114.567L166.08 98.8036L193.246 83L220.612 98.8036Z" fill="#296089"/>
<path d="M220.612 98.8036L220.532 130.931L193.366 146.734L193.446 114.567L220.612 98.8036Z" fill="#1D4A79"/>
<path d="M193.446 114.567L193.366 146.734L166 130.931L166.08 98.8036L193.446 114.567Z" fill="#24547F"/>
<path d="M190.486 134.532L190.446 140.213L168.841 127.77L168.921 122.089L190.486 134.532Z" fill="#296089"/>
<path d="M190.486 152.096L190.446 157.777L168.841 145.334L168.921 139.613L190.486 152.096Z" fill="#296089"/>
<path d="M190.486 125.97L190.446 131.651L168.841 119.168L168.921 113.487L190.486 125.97Z" fill="#296089"/>
<path d="M190.486 117.288L190.446 122.969L168.841 110.486L168.921 104.805L190.486 117.288Z" fill="#296089"/>
<path d="M205.129 97.0832C206.249 97.7234 206.289 98.8036 205.129 99.4838C203.969 100.164 202.168 100.124 201.008 99.4838C199.888 98.8436 199.848 97.7634 201.008 97.0832C202.128 96.4031 203.969 96.4031 205.129 97.0832ZM202.368 98.6436C202.728 98.8436 203.368 98.8436 203.729 98.6436C204.089 98.4436 204.089 98.0835 203.729 97.8434C203.368 97.6434 202.728 97.6434 202.368 97.8434C201.968 98.0435 201.968 98.4035 202.368 98.6436Z" fill="url(#paint4_radial)"/>
<path d="M195.487 102.685C196.607 103.325 196.647 104.405 195.487 105.085C194.326 105.765 192.526 105.725 191.366 105.085C190.246 104.445 190.206 103.365 191.366 102.685C192.486 102.004 194.326 102.004 195.487 102.685ZM192.726 104.245C193.086 104.445 193.726 104.445 194.086 104.245C194.446 104.045 194.446 103.685 194.086 103.445C193.726 103.205 193.086 103.245 192.726 103.445C192.286 103.685 192.326 104.005 192.726 104.245Z" fill="url(#paint5_radial)"/>
<path d="M195.407 91.4819C196.527 92.122 196.567 93.2023 195.407 93.8824C194.246 94.5626 192.446 94.5226 191.286 93.8824C190.166 93.2423 190.126 92.1621 191.286 91.4819C192.446 90.8017 194.286 90.8017 195.407 91.4819ZM192.646 93.0423C193.006 93.2423 193.646 93.2423 194.006 93.0423C194.366 92.8422 194.366 92.4821 194.006 92.2421C193.646 92.042 193.006 92.042 192.646 92.2421C192.286 92.4421 192.286 92.8022 192.646 93.0423Z" fill="url(#paint6_radial)"/>
<path d="M185.765 97.0832C186.885 97.7234 186.925 98.8036 185.765 99.4838C184.604 100.164 182.804 100.124 181.644 99.4838C180.523 98.8436 180.483 97.7634 181.644 97.0832C182.804 96.4031 184.644 96.4031 185.765 97.0832ZM183.004 98.6436C183.364 98.8436 184.004 98.8436 184.364 98.6436C184.724 98.4436 184.724 98.0835 184.364 97.8434C184.004 97.6434 183.364 97.6434 183.004 97.8434C182.604 98.0835 182.644 98.4035 183.004 98.6436Z" fill="url(#paint7_radial)"/>
<path d="M169.761 110.326V109.566L173.042 111.486V112.247L169.761 110.326Z" fill="url(#paint8_radial)"/>
<path d="M169.761 107.286V106.525L173.082 108.446V109.206L169.761 107.286Z" fill="url(#paint9_radial)"/>
<path d="M169.761 108.806V108.046L173.082 109.966V110.726L169.761 108.806Z" fill="url(#paint10_radial)"/>
<path d="M173.802 112.687V111.927L177.122 113.807V114.607L173.802 112.687Z" fill="url(#paint11_radial)"/>
<path d="M173.802 109.646V108.846L177.122 110.766V111.527L173.802 109.646Z" fill="url(#paint12_radial)"/>
<path d="M173.802 111.166V110.406L177.122 112.287V113.087L173.802 111.166Z" fill="url(#paint13_radial)"/>
<path d="M177.843 115.007V114.247L181.164 116.168V116.928L177.843 115.007Z" fill="url(#paint14_radial)"/>
<path d="M177.843 111.966V111.206L181.164 113.127V113.887L177.843 111.966Z" fill="url(#paint15_radial)"/>
<path d="M177.843 113.487V112.727L181.164 114.647V115.407L177.843 113.487Z" fill="url(#paint16_radial)"/>
<path d="M181.884 117.368V116.608L185.204 118.528V119.288L181.884 117.368Z" fill="url(#paint17_radial)"/>
<path d="M181.884 114.327L181.924 113.567L185.204 115.487V116.248L181.884 114.327Z" fill="url(#paint18_radial)"/>
<path d="M181.884 115.847V115.087L185.204 117.008V117.768L181.884 115.847Z" fill="url(#paint19_radial)"/>
<path d="M185.924 119.728L185.964 118.968L189.245 120.889V121.649L185.924 119.728Z" fill="url(#paint20_radial)"/>
<path d="M185.964 116.688V115.928L189.285 117.848V118.608L185.964 116.688Z" fill="url(#paint21_radial)"/>
<path d="M185.964 118.208V117.448L189.285 119.368L189.245 120.129L185.964 118.208Z" fill="url(#paint22_radial)"/>
<path d="M169.761 118.888V118.128L173.042 120.008V120.809L169.761 118.888Z" fill="url(#paint23_radial)"/>
<path d="M169.761 115.848V115.047L173.082 116.968V117.728L169.761 115.848Z" fill="url(#paint24_radial)"/>
<path d="M169.761 117.368V116.568L173.082 118.488V119.248L169.761 117.368Z" fill="url(#paint25_radial)"/>
<path d="M173.802 121.209V120.449L177.122 122.369V123.129L173.802 121.209Z" fill="url(#paint26_radial)"/>
<path d="M173.802 118.168V117.408L177.122 119.328V120.088L173.802 118.168Z" fill="url(#paint27_radial)"/>
<path d="M173.802 119.688V118.928L177.122 120.848V121.609L173.802 119.688Z" fill="url(#paint28_radial)"/>
<path d="M177.843 123.569V122.809L181.164 124.73V125.49L177.843 123.569Z" fill="url(#paint29_radial)"/>
<path d="M177.843 120.529V119.768L181.164 121.689V122.449L177.843 120.529Z" fill="url(#paint30_radial)"/>
<path d="M177.843 122.049V121.289L181.164 123.209V123.969L177.843 122.049Z" fill="url(#paint31_radial)"/>
<path d="M181.884 125.93V125.17L185.204 127.09V127.85L181.884 125.93Z" fill="url(#paint32_radial)"/>
<path d="M181.884 122.889L181.924 122.129L185.204 124.049V124.809L181.884 122.889Z" fill="url(#paint33_radial)"/>
<path d="M181.884 124.409V123.649L185.204 125.57V126.33L181.884 124.409Z" fill="url(#paint34_radial)"/>
<path d="M185.924 128.29L185.964 127.53L189.245 129.411V130.211L185.924 128.29Z" fill="url(#paint35_radial)"/>
<path d="M185.964 125.25V124.449L189.285 126.37V127.13L185.964 125.25Z" fill="url(#paint36_radial)"/>
<path d="M185.964 126.77V125.97L189.285 127.89L189.245 128.65L185.964 126.77Z" fill="url(#paint37_radial)"/>
<path d="M169.761 127.53V126.73L173.042 128.65V129.411L169.761 127.53Z" fill="url(#paint38_radial)"/>
<path d="M169.761 124.449V123.689L173.082 125.61V126.37L169.761 124.449Z" fill="url(#paint39_radial)"/>
<path d="M169.761 126.01V125.21L173.082 127.13V127.89L169.761 126.01Z" fill="url(#paint40_radial)"/>
<path d="M173.802 129.851V129.09L177.122 131.011V131.771L173.802 129.851Z" fill="url(#paint41_radial)"/>
<path d="M173.802 126.81V126.05L177.122 127.97V128.73L173.802 126.81Z" fill="url(#paint42_radial)"/>
<path d="M173.802 128.33V127.57L177.122 129.49V130.251L173.802 128.33Z" fill="url(#paint43_radial)"/>
<path d="M177.843 132.211V131.451L181.164 133.371V134.132L177.843 132.211Z" fill="url(#paint44_radial)"/>
<path d="M177.843 129.171V128.41L181.164 130.331V131.091L177.843 129.171Z" fill="url(#paint45_radial)"/>
<path d="M177.843 130.691V129.931L181.164 131.851V132.611L177.843 130.691Z" fill="url(#paint46_radial)"/>
<path d="M181.884 134.572V133.811L185.204 135.732V136.492L181.884 134.572Z" fill="url(#paint47_radial)"/>
<path d="M181.884 131.531L181.924 130.771L185.204 132.651V133.451L181.884 131.531Z" fill="url(#paint48_radial)"/>
<path d="M181.884 133.051V132.291L185.204 134.171V134.972L181.884 133.051Z" fill="url(#paint49_radial)"/>
<path d="M185.924 136.932L185.964 136.132L189.245 138.053V138.813L185.924 136.932Z" fill="url(#paint50_radial)"/>
<path d="M185.964 133.851V133.091L189.285 135.012V135.772L185.964 133.851Z" fill="url(#paint51_radial)"/>
<path d="M185.964 135.412V134.612L189.285 136.532L189.245 137.292L185.964 135.412Z" fill="url(#paint52_radial)"/>
<path opacity="0.2" d="M115.613 188.92L48.1252 148.398L0 176.979L68.7388 217.056L115.613 188.92Z" fill="#1F1D21"/>
<path d="M125.678 128.411L112.911 184.503L47.6616 149.186L58.0087 94.2834C58.1297 93.275 59.2391 92.69 60.1265 93.2144L125.678 128.411Z" fill="#0078D4"/>
<path d="M51.7762 146.563L109.482 177.362L121.14 130.588L61.3569 99.1234C61.2762 99.0629 61.1552 99.0629 61.0745 99.1234C60.9736 99.1637 60.9131 99.2646 60.9131 99.3654C60.9131 99.3856 51.6552 146.502 51.7762 146.563Z" fill="#0279D5"/>
<path d="M47.7021 146.866C48.1459 142.892 57.2828 96.2395 57.6055 94.5452C57.9887 92.6089 59.1788 91.3786 61.0949 92.3266C61.9824 92.7703 123.097 125.506 123.964 126.03C126.304 127.503 126.364 128.491 125.921 131.093C125.517 133.433 114.242 181.094 113.92 182.647C113.436 185.007 114.424 184.341 112.891 184.22C112.891 184.22 112.891 184.16 112.911 184.119C112.891 184.119 112.871 184.119 112.851 184.119C112.508 184.079 112.286 183.756 112.326 183.434C112.346 183.272 124.408 131.839 124.408 131.839C125.174 128.652 124.247 127.967 123.137 127.2C122.209 126.555 60.8125 93.7788 60.8125 93.7788C60.8125 93.7788 59.683 93.3552 59.1384 94.041C58.8762 94.3839 58.6745 94.989 58.5737 95.8361C58.3518 97.5304 49.0938 143.901 48.6299 147.874C48.5493 148.6 48.6098 148.338 48.7308 148.681C48.8518 149.004 48.751 148.661 48.4282 148.762C48.1055 148.883 48.2669 148.943 48.1459 148.641C47.9442 148.096 47.6013 147.713 47.7021 146.866Z" fill="#0162AD"/>
<path d="M46.0879 146.16L2.52108 171.11L6.73657 173.793L67.7705 208.142L69.1017 208.929L112.164 184.442L113.697 183.676L112.749 182.304L47.9839 146.402C47.3586 145.999 46.7334 145.797 46.0879 146.16Z" fill="#AFADAE"/>
<path d="M3.20627 170.808C3.3878 171.151 3.02474 171.453 3.4483 171.756C11.0927 177.242 64.7041 207.013 66.4387 207.961C68.3346 208.969 68.2741 209.352 70.8962 207.86C73.2158 206.529 105.588 188.255 112.446 184.059C113.293 183.535 113.313 182.547 113.334 182.547C113.777 182.244 113.959 184.927 113.777 186.197C113.717 186.621 113.253 187.287 112.87 187.508C108.069 190.473 73.0544 210.704 71.1584 211.753C68.4557 213.245 67.8506 213.104 65.4705 211.813C62.4451 210.179 7.72431 178.795 2.70202 175.286C2.41964 175.084 2.27845 174.781 2.27845 174.459L2.33896 171.292C2.3793 171.252 3.02474 170.465 3.20627 170.808Z" fill="#0162AD"/>
<path d="M113.052 182.162L47.2577 145.877C46.7333 145.534 46.0475 145.514 45.5029 145.857L2.82359 170.464C2.52104 170.625 2.40002 171.029 2.35968 171.331C2.33951 171.553 2.33951 172.057 2.76308 172.42L66.9636 209.089C67.4074 209.351 67.9116 209.492 68.3957 209.513C68.8999 209.513 69.4042 209.392 69.8681 209.129L112.991 184.805C113.395 184.562 113.637 184.139 113.637 183.675C113.677 183.151 113.455 182.404 113.052 182.162Z" fill="url(#paint53_linear)"/>
<path d="M53.0262 145.535L108.614 175.891C109.522 176.395 110.651 175.871 110.893 174.862L121.22 130.105C121.362 129.541 121.079 128.936 120.555 128.673L62.9295 97.9547C62.1631 97.5513 61.2151 97.9951 61.0336 98.8624L52.2395 143.861C52.1185 144.547 52.4211 145.213 53.0262 145.535Z" fill="#0162AD"/>
<path d="M47.3379 158.303L44.5141 159.977L48.4472 162.216L51.2508 160.542L47.3379 158.303Z" fill="#50E6FF"/>
<path d="M52.2994 161.126L49.4958 162.8L52.7431 164.655L55.5467 162.981L52.2994 161.126Z" fill="#50E6FF"/>
<path d="M56.5958 163.588L53.772 165.242L57.0597 167.117L59.8834 165.443L56.5958 163.588Z" fill="#50E6FF"/>
<path d="M44.151 160.885L37.2126 156.932L34.288 158.687L41.2062 162.62L44.151 160.885Z" fill="#50E6FF"/>
<path d="M74.6275 185.956L77.3706 184.323L73.8812 182.326L71.1179 183.96L74.6275 185.956Z" fill="#50E6FF"/>
<path d="M78.5606 188.194L81.3037 186.56L78.4194 184.906L75.6763 186.54L78.5606 188.194Z" fill="#50E6FF"/>
<path d="M70.0888 171.251L67.265 172.925L70.7544 174.922L73.5782 173.248L70.0888 171.251Z" fill="#50E6FF"/>
<path d="M71.7432 176.597L68.8186 178.332L72.2071 180.268L75.1317 178.513L71.7432 176.597Z" fill="#50E6FF"/>
<path d="M76.1807 179.118L73.2359 180.853L76.7656 182.87L79.7104 181.115L76.1807 179.118Z" fill="#50E6FF"/>
<path d="M75.3135 177.506L78.1373 175.831L74.6278 173.835L71.804 175.509L75.3135 177.506Z" fill="#50E6FF"/>
<path d="M67.5275 174.177L64.5827 175.931L67.7695 177.747L70.6941 175.992L67.5275 174.177Z" fill="#50E6FF"/>
<path d="M79.73 180.026L82.5538 178.352L79.1854 176.436L76.3616 178.11L79.73 180.026Z" fill="#50E6FF"/>
<path d="M65.39 168.59L62.5864 170.264L66.217 172.342L69.0408 170.668L65.39 168.59Z" fill="#50E6FF"/>
<path d="M60.9123 166.049L58.1087 167.703L61.5375 169.659L64.3411 167.985L60.9123 166.049Z" fill="#50E6FF"/>
<path d="M57.7248 176.336L60.4679 174.702L57.2004 172.826L54.4372 174.46L57.7248 176.336Z" fill="#50E6FF"/>
<path d="M61.759 178.634L64.5021 177L61.5169 175.286L58.7738 176.94L61.759 178.634Z" fill="#50E6FF"/>
<path d="M45.1991 161.47L42.2543 163.204L45.9252 165.302L48.8499 163.547L45.1991 161.47Z" fill="#50E6FF"/>
<path d="M53.3889 173.874L56.1521 172.241L52.9653 170.425L50.202 172.059L53.3889 173.874Z" fill="#50E6FF"/>
<path d="M81.4652 185.533L84.3898 183.778L80.7592 181.72L77.8144 183.455L81.4652 185.533Z" fill="#50E6FF"/>
<path d="M88.5452 185.048L91.369 183.374L88.0006 181.458L85.197 183.132L88.5452 185.048Z" fill="#50E6FF"/>
<path d="M70.0688 183.374L72.832 181.74L69.7864 180.006L67.0433 181.639L70.0688 183.374Z" fill="#50E6FF"/>
<path d="M63.3931 171.838L60.4483 173.572L63.5545 175.327L66.4791 173.592L63.3931 171.838Z" fill="#50E6FF"/>
<path d="M58.875 169.255L55.9302 170.99L59.3995 172.987L62.3443 171.232L58.875 169.255Z" fill="#50E6FF"/>
<path d="M54.5182 166.773L51.5734 168.528L54.8813 170.404L57.8261 168.649L54.5182 166.773Z" fill="#50E6FF"/>
<path d="M65.995 181.034L68.7381 179.4L65.5513 177.585L62.8082 179.218L65.995 181.034Z" fill="#50E6FF"/>
<path d="M49.9001 164.151L46.9553 165.886L50.5455 167.923L53.4702 166.188L49.9001 164.151Z" fill="#50E6FF"/>
<path d="M87.5966 176.999L84.9141 178.593L88.1816 180.448L90.8641 178.855L87.5966 176.999Z" fill="#50E6FF"/>
<path d="M49.1723 171.453L51.9154 169.819L48.8496 168.085L46.0863 169.719L49.1723 171.453Z" fill="#50E6FF"/>
<path d="M83.7034 174.78L81.0208 176.373L83.8648 177.987L86.5474 176.393L83.7034 174.78Z" fill="#50E6FF"/>
<path d="M91.9132 179.44L89.2306 181.034L92.9822 183.172L95.6647 181.578L91.9132 179.44Z" fill="#50E6FF"/>
<path d="M83.5833 178.937L80.7797 180.611L84.1481 182.527L86.9517 180.873L83.5833 178.937Z" fill="#50E6FF"/>
<path d="M101.252 183.656L103.753 182.143L98.7506 179.299L96.2294 180.792L101.252 183.656Z" fill="#50E6FF"/>
<path d="M79.528 172.402L76.8454 173.995L79.9717 175.77L82.6543 174.177L79.528 172.402Z" fill="#50E6FF"/>
<path d="M62.1627 162.519L59.4801 164.112L62.9089 166.048L65.5915 164.455L62.1627 162.519Z" fill="#50E6FF"/>
<path d="M95.1803 180.207L97.7016 178.715L94.5349 176.899L92.0137 178.392L95.1803 180.207Z" fill="#50E6FF"/>
<path d="M57.4221 159.815L54.7395 161.409L58.4306 163.527L61.1132 161.933L57.4221 159.815Z" fill="#50E6FF"/>
<path d="M53.287 157.456L50.6044 159.05L53.6904 160.825L56.373 159.231L53.287 157.456Z" fill="#50E6FF"/>
<path d="M75.3541 170.021L72.6715 171.614L75.7978 173.389L78.4804 171.796L75.3541 170.021Z" fill="#50E6FF"/>
<path d="M71.0167 167.561L68.3341 169.155L71.6218 171.031L74.3043 169.437L71.0167 167.561Z" fill="#50E6FF"/>
<path d="M46.2887 157.717L40.984 154.692L38.1804 156.366L43.4649 159.371L46.2887 157.717Z" fill="#50E6FF"/>
<path d="M66.6203 165.06L63.9377 166.653L67.2859 168.549L69.9685 166.956L66.6203 165.06Z" fill="#50E6FF"/>
<path d="M56.4539 158.162L58.9751 156.67L56.1917 155.096L53.6705 156.569L56.4539 158.162Z" fill="#50E6FF"/>
<path d="M90.9649 177.807L93.4862 176.315L89.8556 174.257L87.3343 175.73L90.9649 177.807Z" fill="#50E6FF"/>
<path d="M60.4883 160.461L63.0096 158.968L60.0244 157.274L57.5032 158.747L60.4883 160.461Z" fill="#50E6FF"/>
<path d="M64.8648 162.941L67.386 161.449L64.058 159.573L61.5368 161.045L64.8648 162.941Z" fill="#50E6FF"/>
<path d="M50.9879 152.131L48.0835 150.477L45.5824 151.969L48.4667 153.603L50.9879 152.131Z" fill="#50E6FF"/>
<path d="M47.9626 154.43L44.6144 152.534L41.9318 154.128L45.28 156.024L47.9626 154.43Z" fill="#50E6FF"/>
<path d="M52.643 155.982L55.1441 154.49L52.0178 152.715L49.5167 154.208L52.643 155.982Z" fill="#50E6FF"/>
<path d="M86.2858 175.145L88.8272 173.652L85.9833 172.039L83.462 173.531L86.2858 175.145Z" fill="#50E6FF"/>
<path d="M69.3837 165.505L71.905 164.032L68.4357 162.056L65.9145 163.548L69.3837 165.505Z" fill="#50E6FF"/>
<path d="M82.413 172.927L84.9342 171.434L81.7675 169.639L79.2463 171.132L82.413 172.927Z" fill="#50E6FF"/>
<path d="M78.1973 170.525L80.7185 169.053L77.4309 167.177L74.9096 168.67L78.1973 170.525Z" fill="#50E6FF"/>
<path d="M73.8816 168.065L76.4029 166.592L72.9538 164.616L70.4326 166.108L73.8816 168.065Z" fill="#50E6FF"/>
<path d="M49.0115 155.034L46.329 156.628L49.5561 158.463L52.2387 156.87L49.0115 155.034Z" fill="#50E6FF"/>
<path d="M63.3521 180.651L60.3468 182.426L63.7958 184.383L66.781 182.608L63.3521 180.651Z" fill="#50E6FF"/>
<path d="M59.1371 178.291L56.1721 180.046L59.3186 181.841L62.3038 180.066L59.1371 178.291Z" fill="#50E6FF"/>
<path d="M38.6448 162.277L33.32 159.252L30.5769 160.885L35.8816 163.911L38.6448 162.277Z" fill="#50E6FF"/>
<path d="M29.6285 161.449L26.6232 163.244L29.8907 165.1L32.9162 163.325L29.6285 161.449Z" fill="#50E6FF"/>
<path d="M33.9652 163.91L30.9397 165.705L34.0257 167.44L37.031 165.665L33.9652 163.91Z" fill="#50E6FF"/>
<path d="M46.369 170.99L43.3637 172.765L46.4093 174.499L49.4146 172.704L46.369 170.99Z" fill="#50E6FF"/>
<path d="M42.1338 168.57L39.1285 170.365L42.3154 172.16L45.3207 170.385L42.1338 168.57Z" fill="#50E6FF"/>
<path d="M38.0794 166.27L35.0539 168.045L38.0794 169.759L41.0847 167.984L38.0794 166.27Z" fill="#50E6FF"/>
<path d="M96.7134 182.184L94.0308 183.777L97.6009 185.815L100.283 184.221L96.7134 182.184Z" fill="#50E6FF"/>
<path d="M50.4436 173.309L47.4585 175.084L50.9277 177.061L53.9128 175.286L50.4436 173.309Z" fill="#50E6FF"/>
<path d="M54.9624 175.871L51.9773 177.666L55.1238 179.461L58.1291 177.666L54.9624 175.871Z" fill="#50E6FF"/>
<path d="M89.5934 185.633L93.8492 188.054L96.6528 186.38L92.4172 183.959L89.5934 185.633Z" fill="#50E6FF"/>
<path d="M79.6099 188.8L86.2457 192.572L88.9888 190.938L82.353 187.146L79.6099 188.8Z" fill="#50E6FF"/>
<path d="M76.221 187.973L73.2359 189.748L76.1403 191.422L79.1255 189.627L76.221 187.973Z" fill="#50E6FF"/>
<path d="M77.1888 192.006L82.312 194.91L85.2971 193.135L80.174 190.231L77.1888 192.006Z" fill="#50E6FF"/>
<path d="M45.039 169.114L47.8023 167.481L44.2524 165.464L41.4891 167.097L45.039 169.114Z" fill="#50E6FF"/>
<path d="M67.8298 183.213L64.8447 184.988L67.971 186.763L70.9763 184.988L67.8298 183.213Z" fill="#50E6FF"/>
<path d="M72.0254 185.593L69.0201 187.368L72.1868 189.163L75.1719 187.388L72.0254 185.593Z" fill="#50E6FF"/>
<path d="M40.4403 166.492L43.2035 164.858L39.694 162.861L36.9307 164.495L40.4403 166.492Z" fill="#50E6FF"/>
<path d="M82.493 186.117L89.9558 190.373L92.8805 188.618L85.4378 184.383L82.493 186.117Z" fill="#50E6FF"/>
<path d="M58.956 186.458L39.7544 175.506L28.0155 182.404L47.2576 193.397L58.956 186.458Z" fill="#50E6FF"/>
<path opacity="0.2" d="M79.685 141.184L91.66 148.113L93.6224 147.071L81.6474 140.143L79.685 141.184Z" fill="#1F1D21"/>
<path opacity="0.2" d="M73.6373 144.428L85.6123 151.357L87.5748 150.275L75.5998 143.387L73.6373 144.428Z" fill="#1F1D21"/>
<path opacity="0.2" d="M68.6711 147.071L80.6461 154L82.5685 152.959L70.5935 146.03L68.6711 147.071Z" fill="#1F1D21"/>
<path d="M88.3357 131.492L91.74 133.454L91.6999 147.151L79.8051 140.263L79.8451 122.881L88.3758 127.807L88.3357 131.492Z" fill="#243A5E"/>
<path d="M88.3357 127.847L89.9377 126.926L89.8977 130.571L88.3357 131.492V127.847Z" fill="#0078D4"/>
<path d="M79.8451 122.921L81.4071 122L89.9377 126.926L88.3357 127.847L79.8451 122.921Z" fill="#185A97"/>
<path d="M88.3357 127.847L89.9377 126.926L93.3019 132.533L91.74 133.454L88.3357 127.847Z" fill="#0078D4"/>
<path d="M91.7399 133.454L93.3019 132.533L93.2618 146.27L91.6999 147.151L91.7399 133.454Z" fill="#1D4A79"/>
<path d="M88.3357 127.847L91.74 133.454L88.3357 131.492V127.847Z" fill="#156AB3"/>
<path d="M88.6161 136.058C88.536 136.058 88.4559 136.018 88.3357 135.977L82.6887 132.693C82.4083 132.533 82.168 132.133 82.168 131.812C82.168 131.492 82.3683 131.372 82.5685 131.372C82.6486 131.372 82.7287 131.412 82.8489 131.452L88.4959 134.696C88.7763 134.856 89.0166 135.257 89.0166 135.577C89.0166 135.897 88.8163 136.058 88.6161 136.058Z" fill="#185A97"/>
<path d="M82.5685 131.532C82.6085 131.532 82.6886 131.532 82.7687 131.572L88.4158 134.816C88.6561 134.936 88.8563 135.297 88.8563 135.577C88.8563 135.777 88.7762 135.897 88.616 135.897C88.576 135.897 88.4959 135.897 88.4158 135.857L82.7687 132.613C82.5284 132.493 82.3281 132.133 82.3281 131.852C82.3281 131.612 82.4483 131.532 82.5685 131.532ZM82.5685 131.212C82.2481 131.212 82.0478 131.452 82.0077 131.812C82.0077 132.213 82.2481 132.613 82.6085 132.814L88.2556 136.058C88.3757 136.138 88.4959 136.138 88.616 136.138C88.9364 136.138 89.1767 135.897 89.1767 135.537C89.1767 135.136 88.9364 134.736 88.576 134.536L82.9289 131.292C82.8088 131.252 82.6886 131.212 82.5685 131.212Z" fill="#2195DC"/>
<path d="M88.4158 134.816C88.6561 134.936 88.8564 135.297 88.8564 135.577C88.8564 135.857 88.6561 135.978 88.4158 135.817L85.4121 134.095L85.6123 133.214L88.4158 134.816Z" fill="#D5F9FD"/>
<path d="M88.6161 138.501C88.536 138.501 88.4559 138.461 88.3357 138.421L82.6887 135.177C82.4083 135.016 82.168 134.616 82.168 134.295C82.168 133.975 82.3683 133.855 82.5685 133.855C82.6486 133.855 82.7287 133.895 82.8489 133.935L88.4959 137.179C88.7763 137.339 89.0166 137.74 89.0166 138.06C89.0166 138.34 88.8163 138.501 88.6161 138.501Z" fill="#185A97"/>
<path d="M82.5685 133.975C82.6085 133.975 82.6886 133.975 82.7687 134.015L88.4158 137.259C88.6561 137.379 88.8563 137.74 88.8563 138.02C88.8563 138.22 88.7762 138.34 88.616 138.34C88.576 138.34 88.4959 138.34 88.4158 138.3L82.7687 135.056C82.5284 134.936 82.3281 134.576 82.3281 134.295C82.3281 134.095 82.4483 133.975 82.5685 133.975ZM82.5685 133.655C82.2481 133.655 82.0478 133.895 82.0077 134.255C82.0077 134.656 82.2481 135.056 82.6085 135.257L88.2556 138.501C88.3757 138.581 88.4959 138.581 88.616 138.581C88.9364 138.581 89.1767 138.34 89.1767 137.98C89.1767 137.579 88.9364 137.179 88.576 136.979L82.9289 133.735C82.8088 133.695 82.6886 133.655 82.5685 133.655Z" fill="#2195DC"/>
<path d="M88.4158 137.299C88.6561 137.419 88.8564 137.78 88.8564 138.06C88.8564 138.34 88.6561 138.461 88.4158 138.3L85.2919 136.498L85.4121 136.258C85.1718 136.138 85.2519 136.098 85.2519 135.857C85.2519 135.577 85.0116 135.737 85.2519 135.897L85.4521 135.617L88.4158 137.299Z" fill="#D5F9FD"/>
<path d="M85.372 135.657C85.372 135.417 85.1718 135.537 85.372 135.657V135.657Z" fill="#D5F9FD"/>
<path d="M85.2519 135.817C85.2519 135.537 85.0116 135.697 85.2519 135.817V135.817Z" fill="#D5F9FD"/>
<path d="M85.372 135.697L85.4521 135.577H85.4121L85.372 135.657C85.372 135.657 85.372 135.657 85.372 135.697Z" fill="#D5F9FD"/>
<path d="M88.5359 138.14L85.412 136.338L85.5322 136.098C85.2919 135.977 85.372 135.937 85.372 135.697C85.372 135.697 85.372 135.697 85.3319 135.697L85.2118 135.857C85.2118 136.098 85.1317 136.138 85.372 136.258L85.2518 136.498L88.3757 138.3C88.576 138.42 88.7362 138.38 88.7762 138.22C88.7362 138.22 88.6561 138.22 88.5359 138.14Z" fill="#50E6FF"/>
<path d="M88.5359 135.697L85.8926 134.135L85.8125 134.295L88.4558 135.817C88.6561 135.937 88.8163 135.897 88.8563 135.737C88.7362 135.777 88.6561 135.737 88.5359 135.697Z" fill="#50E6FF"/>
<path d="M88.6161 140.904C88.536 140.904 88.4559 140.864 88.3357 140.824L82.6887 137.58C82.4083 137.419 82.168 137.019 82.168 136.698C82.168 136.378 82.3683 136.258 82.5685 136.258C82.6486 136.258 82.7287 136.298 82.8489 136.338L88.4959 139.582C88.7763 139.742 89.0166 140.143 89.0166 140.463C89.0166 140.784 88.8163 140.904 88.6161 140.904Z" fill="#185A97"/>
<path d="M82.5685 136.378C82.6085 136.378 82.6886 136.378 82.7687 136.418L88.4158 139.662C88.6561 139.782 88.8563 140.143 88.8563 140.423C88.8563 140.623 88.7762 140.743 88.616 140.743C88.576 140.743 88.4959 140.743 88.4158 140.703L82.7687 137.459C82.5284 137.339 82.3281 136.979 82.3281 136.698C82.3281 136.498 82.4483 136.378 82.5685 136.378ZM82.5685 136.098C82.2481 136.098 82.0478 136.338 82.0077 136.698C82.0077 137.099 82.2481 137.499 82.6085 137.7L88.2556 140.944C88.3757 141.024 88.4959 141.024 88.616 141.024C88.9364 141.024 89.1367 140.783 89.1767 140.423C89.1767 140.023 88.9364 139.622 88.576 139.422L82.9289 136.178C82.8088 136.138 82.6886 136.098 82.5685 136.098Z" fill="#2195DC"/>
<path d="M88.4158 139.702C88.6561 139.822 88.8564 140.183 88.8564 140.463C88.8564 140.743 88.6561 140.864 88.4158 140.703L86.2131 139.422L86.3332 138.501L88.4158 139.702Z" fill="#D5F9FD"/>
<path d="M84.8113 135.417L85.0116 135.297C85.1317 135.217 85.2519 135.257 85.4121 135.337L85.2118 135.457C85.0516 135.377 84.8914 135.377 84.8113 135.417Z" fill="#45CAF2"/>
<path d="M85.2118 135.457C85.5322 135.657 85.7725 136.098 85.7725 136.458C85.7725 136.818 85.5322 136.979 85.2118 136.778C84.8914 136.578 84.6511 136.138 84.6511 135.777C84.6511 135.417 84.8914 135.297 85.2118 135.457Z" fill="#84ECFD"/>
<path d="M85.8126 136.698L85.6124 136.818C85.7325 136.778 85.7726 136.618 85.7726 136.458C85.7726 136.098 85.5323 135.657 85.2119 135.457L85.4121 135.337C85.7325 135.537 85.9728 135.977 85.9728 136.338C85.9728 136.498 85.8927 136.658 85.8126 136.698Z" fill="#45CAF2"/>
<path d="M85.0516 133.094L85.2519 132.974C85.372 132.894 85.4922 132.934 85.6524 133.014L85.4521 133.134C85.2919 133.014 85.1718 133.014 85.0516 133.094Z" fill="#45CAF2"/>
<path d="M85.4522 133.134C85.7726 133.334 86.0129 133.775 86.0129 134.135C86.0129 134.496 85.7726 134.656 85.4522 134.456C85.1318 134.255 84.8915 133.815 84.8915 133.454C84.8915 133.094 85.1318 132.934 85.4522 133.134Z" fill="#84ECFD"/>
<path d="M86.0529 134.376L85.8527 134.496C85.9728 134.456 86.0129 134.295 86.0129 134.135C86.0129 133.775 85.7726 133.334 85.4522 133.134L85.6524 133.014C85.9728 133.214 86.2131 133.655 86.2131 134.015C86.2131 134.175 86.1731 134.295 86.0529 134.376Z" fill="#45CAF2"/>
<path d="M88.536 140.583L86.1731 139.221L86.0529 139.382L88.4159 140.743C88.6161 140.864 88.7763 140.823 88.8164 140.663C88.7363 140.623 88.6562 140.623 88.536 140.583Z" fill="#50E6FF"/>
<path d="M86.133 138.621L86.3333 138.501C86.4534 138.421 86.5736 138.461 86.7338 138.541L86.5335 138.661C86.3733 138.541 86.2131 138.541 86.133 138.621Z" fill="#45CAF2"/>
<path d="M86.5335 138.661C86.8539 138.821 87.0942 139.262 87.0942 139.622C87.0942 139.982 86.8539 140.143 86.5335 139.942C86.2131 139.742 85.9728 139.302 85.9728 138.941C85.9327 138.621 86.2131 138.461 86.5335 138.661Z" fill="#84ECFD"/>
<path d="M87.1342 139.862L86.934 139.983C87.0541 139.942 87.0942 139.782 87.0942 139.622C87.0942 139.262 86.8539 138.821 86.5335 138.621L86.7337 138.501C87.0541 138.701 87.2944 139.141 87.2944 139.502C87.2944 139.702 87.2143 139.822 87.1342 139.862Z" fill="#45CAF2"/>
<path d="M82.2882 134.616L85.6925 136.578L85.6524 150.275L73.7175 143.387L73.7575 126.005L82.2882 130.931V134.616Z" fill="#0078D4"/>
<path d="M82.2881 130.931L83.85 130.05V133.695L82.2881 134.616V130.931Z" fill="#0078D4"/>
<path d="M73.7976 126.045L75.3596 125.124L83.8502 130.05L82.2882 130.931L73.7976 126.045Z" fill="#32B0E7"/>
<path d="M82.2881 130.931L83.85 130.05L87.2543 135.657L85.6924 136.578L82.2881 130.931Z" fill="#45CAF2"/>
<path d="M85.6924 136.578L87.2544 135.657L87.2143 149.354L85.6524 150.275L85.6924 136.578Z" fill="#32B0E7"/>
<path d="M82.2881 130.931L85.6924 136.578L82.2881 134.616V130.931Z" fill="#32B0E7"/>
<path d="M82.4884 139.222C82.4083 139.222 82.3282 139.181 82.2081 139.141L76.561 135.897C76.2807 135.737 76.0404 135.337 76.0404 135.016C76.0404 134.696 76.2406 134.576 76.4409 134.576C76.521 134.576 76.6011 134.616 76.7212 134.656L82.3683 137.9C82.6486 138.06 82.8889 138.461 82.8889 138.781C82.8889 139.101 82.6887 139.222 82.4884 139.222Z" fill="#243A5E"/>
<path d="M76.4809 134.696C76.5209 134.696 76.601 134.696 76.6811 134.736L82.2881 138.02C82.5284 138.14 82.7287 138.501 82.7287 138.781C82.7287 138.981 82.6486 139.101 82.4884 139.101C82.4483 139.101 82.3682 139.101 82.2881 139.061L76.6811 135.777C76.4408 135.657 76.2406 135.297 76.2406 135.016C76.2406 134.816 76.3207 134.696 76.4809 134.696ZM76.4809 134.416C76.1605 134.416 75.9602 134.656 75.9202 135.016C75.9202 135.417 76.1605 135.817 76.5209 136.018L82.168 139.262C82.2881 139.342 82.4083 139.342 82.5284 139.342C82.8488 139.342 83.0891 139.101 83.0891 138.741C83.0891 138.34 82.8488 137.94 82.4884 137.74L76.8413 134.496C76.6811 134.416 76.601 134.416 76.4809 134.416Z" fill="#32B0E7"/>
<path d="M82.2882 138.02C82.5285 138.14 82.7287 138.501 82.7287 138.781C82.7287 139.061 82.5285 139.182 82.2882 139.021L81.1267 138.341L81.2068 138.06C80.9665 137.94 81.2869 138.06 81.2869 137.78C81.2869 137.499 81.0466 137.74 81.2869 137.9L81.367 137.459L82.2882 138.02Z" fill="#D5F9FD"/>
<path d="M82.4884 141.665C82.4083 141.665 82.3282 141.625 82.2081 141.585L76.561 138.34C76.2807 138.18 76.0404 137.78 76.0404 137.459C76.0404 137.139 76.2406 137.019 76.4409 137.019C76.521 137.019 76.6011 137.059 76.7212 137.099L82.3683 140.343C82.6486 140.503 82.8889 140.904 82.8889 141.224C82.8889 141.544 82.6887 141.665 82.4884 141.665Z" fill="#243A5E"/>
<path d="M76.4809 137.139C76.5209 137.139 76.601 137.139 76.6811 137.179L82.2881 140.463C82.5284 140.583 82.7287 140.944 82.7287 141.224C82.7287 141.424 82.6486 141.544 82.4884 141.544C82.4483 141.544 82.3682 141.544 82.2881 141.504L76.6811 138.22C76.4408 138.1 76.2406 137.74 76.2406 137.459C76.2406 137.259 76.3207 137.139 76.4809 137.139ZM76.4809 136.859C76.1605 136.859 75.9602 137.099 75.9202 137.459C75.9202 137.86 76.1605 138.26 76.5209 138.461L82.168 141.705C82.2881 141.785 82.4083 141.785 82.5284 141.785C82.8488 141.785 83.0891 141.544 83.0891 141.184C83.0891 140.783 82.8488 140.383 82.4884 140.183L76.8413 136.939C76.6811 136.899 76.601 136.859 76.4809 136.859Z" fill="#32B0E7"/>
<path d="M82.2882 140.463C82.5285 140.583 82.7287 140.944 82.7287 141.224C82.7287 141.504 82.5285 141.625 82.2882 141.464L79.1643 139.662L79.2844 139.422C79.0441 139.302 79.1242 139.262 79.1242 139.021C79.1242 138.741 78.8839 138.901 79.1242 139.061L79.3245 138.781L82.2882 140.463Z" fill="#D5F9FD"/>
<path d="M79.2443 138.861C79.2443 138.621 79.044 138.741 79.2443 138.861V138.861Z" fill="#D5F9FD"/>
<path d="M79.1242 139.021C79.1242 138.741 78.8839 138.861 79.1242 139.021V139.021Z" fill="#D5F9FD"/>
<path d="M79.2444 138.861L79.3245 138.741H79.2844L79.2444 138.821V138.861Z" fill="#D5F9FD"/>
<path d="M82.4483 141.344L79.3244 139.542L79.4446 139.302C79.2043 139.182 79.2844 139.142 79.2844 138.901C79.2844 138.901 79.2844 138.901 79.2443 138.901L79.1242 139.061C79.1242 139.302 79.0441 139.342 79.2844 139.462L79.1642 139.702L82.2881 141.504C82.4884 141.625 82.6486 141.585 82.6886 141.424C82.6486 141.384 82.5284 141.384 82.4483 141.344Z" fill="#2195DC"/>
<path d="M82.4484 138.861L81.4472 138.26L81.3671 138.42L82.3283 138.981C82.5285 139.101 82.6887 139.061 82.7288 138.901C82.6487 138.941 82.5285 138.941 82.4484 138.861Z" fill="#2195DC"/>
<path d="M82.4884 144.108C82.4083 144.108 82.3282 144.068 82.2081 144.028L76.561 140.784C76.2807 140.623 76.0404 140.223 76.0404 139.902C76.0404 139.582 76.2406 139.462 76.4409 139.462C76.521 139.462 76.6011 139.502 76.7212 139.542L82.3683 142.786C82.6486 142.946 82.8889 143.347 82.8889 143.667C82.8889 143.948 82.6887 144.108 82.4884 144.108Z" fill="#243A5E"/>
<path d="M76.4809 139.582C76.5209 139.582 76.601 139.582 76.6811 139.622L82.2881 142.906C82.5284 143.026 82.7287 143.387 82.7287 143.667C82.7287 143.867 82.6486 143.987 82.4884 143.987C82.4483 143.987 82.3682 143.987 82.2881 143.947L76.6811 140.623C76.4408 140.503 76.2406 140.143 76.2406 139.862C76.2406 139.702 76.3207 139.582 76.4809 139.582ZM76.4809 139.262C76.1605 139.262 75.9602 139.502 75.9202 139.862C75.9202 140.263 76.1605 140.663 76.5209 140.864L82.168 144.108C82.2881 144.188 82.4083 144.188 82.5284 144.188C82.8488 144.188 83.0491 143.947 83.0891 143.587C83.0891 143.186 82.8488 142.786 82.4884 142.586L76.8413 139.342C76.6811 139.302 76.601 139.262 76.4809 139.262Z" fill="#32B0E7"/>
<path d="M82.2882 142.906C82.5285 143.026 82.7287 143.387 82.7287 143.667C82.7287 143.947 82.5285 144.068 82.2882 143.907L77.4421 141.104L77.5622 140.183L82.2882 142.906Z" fill="#D5F9FD"/>
<path d="M78.6837 138.621L78.8839 138.501C79.0041 138.421 79.1242 138.461 79.2844 138.541L79.0842 138.661C78.924 138.541 78.8038 138.541 78.6837 138.621Z" fill="#45CAF2"/>
<path d="M79.0841 138.661C79.4045 138.861 79.6448 139.302 79.6448 139.662C79.6448 140.023 79.4045 140.183 79.0841 139.983C78.7637 139.782 78.5234 139.342 78.5234 138.981C78.5234 138.621 78.7637 138.461 79.0841 138.661Z" fill="#84ECFD"/>
<path d="M79.6849 139.902L79.4846 139.983C79.6048 139.942 79.6448 139.782 79.6448 139.622C79.6448 139.262 79.4045 138.821 79.0841 138.621L79.2843 138.501C79.6048 138.701 79.8451 139.141 79.8451 139.502C79.8451 139.702 79.805 139.822 79.6849 139.902Z" fill="#45CAF2"/>
<path d="M80.8464 137.219L81.0467 137.099C81.1668 137.019 81.287 137.059 81.4472 137.139L81.2469 137.259C81.0867 137.179 80.9265 137.179 80.8464 137.219Z" fill="#45CAF2"/>
<path d="M81.2469 137.259C81.5673 137.459 81.8076 137.9 81.8076 138.26C81.8076 138.621 81.5673 138.781 81.2469 138.581C80.9265 138.421 80.6862 137.98 80.6862 137.579C80.6862 137.219 80.9265 137.099 81.2469 137.259Z" fill="#84ECFD"/>
<path d="M81.8476 138.501L81.6474 138.621C81.7675 138.581 81.8076 138.42 81.8076 138.26C81.8076 137.9 81.5673 137.459 81.2469 137.259L81.4471 137.139C81.7675 137.339 82.0078 137.78 82.0078 138.14C82.0078 138.34 81.9277 138.461 81.8476 138.501Z" fill="#45CAF2"/>
<path d="M82.4484 143.747L77.9628 141.144L78.0829 140.904C78.0429 140.944 77.9628 140.984 77.9628 141.064L77.8426 141.304L82.2882 143.907C82.4885 144.028 82.6487 143.988 82.6887 143.827C82.6487 143.827 82.5285 143.827 82.4484 143.747Z" fill="#2195DC"/>
<path d="M77.0816 140.023L77.2819 139.902C77.402 139.822 77.5222 139.862 77.6824 139.942L77.4821 140.063C77.3219 139.942 77.1617 139.942 77.0816 140.023Z" fill="#45CAF2"/>
<path d="M77.4822 140.063C77.8026 140.263 78.0429 140.703 78.0429 141.064C78.0429 141.424 77.8026 141.584 77.4822 141.384C77.1618 141.184 76.9215 140.743 76.9215 140.383C76.9215 140.023 77.1618 139.862 77.4822 140.063Z" fill="#84ECFD"/>
<path d="M78.0829 141.304L77.8827 141.384C78.0028 141.344 78.0429 141.184 78.0429 141.024C78.0429 140.663 77.8026 140.223 77.4822 140.023L77.6824 139.902C78.0028 140.103 78.2431 140.543 78.2431 140.904C78.2431 141.104 78.163 141.224 78.0829 141.304Z" fill="#45CAF2"/>
<path d="M77.2819 137.219L80.6862 139.181L80.6462 152.879L68.7513 145.99L68.7913 128.608L77.322 133.534L77.2819 137.219Z" fill="#45CAF2"/>
<path d="M77.322 133.575L78.884 132.653L78.8439 136.298L77.282 137.219L77.322 133.575Z" fill="#0078D4"/>
<path d="M68.7913 128.648L70.3533 127.727L78.884 132.653L77.322 133.575L68.7913 128.648Z" fill="#6ED5ED"/>
<path d="M77.322 133.575L78.884 132.653L82.2882 138.26L80.6862 139.182L77.322 133.575Z" fill="#A1F6FF"/>
<path d="M77.282 137.219L78.8439 136.298L82.2882 138.26L80.6862 139.181L77.282 137.219Z" fill="#A1F6FF"/>
<path d="M80.6861 139.181L82.2881 138.26L82.2481 151.997L80.6461 152.879L80.6861 139.181Z" fill="#32B0E7"/>
<path d="M77.322 133.575L80.6862 139.182L77.282 137.219L77.322 133.575Z" fill="#50E6FF"/>
<path d="M77.5221 141.785C77.442 141.785 77.3619 141.745 77.2418 141.705L71.6348 138.461C71.3544 138.3 71.1141 137.9 71.1141 137.579C71.1141 137.259 71.3144 137.139 71.5146 137.139C71.5947 137.139 71.6748 137.179 71.795 137.219L77.442 140.463C77.7224 140.623 77.9627 141.024 77.9627 141.344C77.9226 141.665 77.7224 141.785 77.5221 141.785Z" fill="#0078D4"/>
<path d="M71.5147 137.259C71.5547 137.259 71.6348 137.259 71.7149 137.299L77.362 140.543C77.6023 140.663 77.8025 141.024 77.8025 141.304C77.8025 141.504 77.7224 141.625 77.5622 141.625C77.5222 141.625 77.4421 141.625 77.362 141.584L71.7149 138.34C71.4746 138.22 71.2744 137.86 71.2744 137.579C71.2744 137.379 71.3545 137.259 71.5147 137.259ZM71.5147 136.979C71.1943 136.979 70.994 137.219 70.954 137.579C70.954 137.98 71.1943 138.38 71.5547 138.581L77.2018 141.825C77.3219 141.905 77.4421 141.905 77.5622 141.905C77.8826 141.905 78.1229 141.665 78.1229 141.304C78.1229 140.904 77.8826 140.503 77.5222 140.303L71.8351 137.059C71.755 136.979 71.6348 136.979 71.5147 136.979Z" fill="#50E6FF"/>
<path d="M77.362 140.583C77.6023 140.703 77.8026 141.064 77.8026 141.344C77.8026 141.625 77.6023 141.745 77.362 141.585L76.2006 140.904L76.2807 140.623C76.0404 140.503 76.3608 140.623 76.3608 140.343C76.3608 140.063 76.1205 140.303 76.3608 140.463L76.4409 140.023L77.362 140.583Z" fill="#D5F9FD"/>
<path d="M77.5221 144.228C77.442 144.228 77.3619 144.188 77.2418 144.148L71.6348 140.904C71.3544 140.743 71.1141 140.343 71.1141 140.023C71.1141 139.702 71.3144 139.582 71.5146 139.582C71.5947 139.582 71.6748 139.622 71.795 139.662L77.442 142.906C77.7224 143.066 77.9627 143.467 77.9627 143.787C77.9226 144.108 77.7224 144.228 77.5221 144.228Z" fill="#0078D4"/>
<path d="M71.5147 139.702C71.5547 139.702 71.6348 139.702 71.7149 139.742L77.362 142.986C77.6023 143.106 77.8025 143.467 77.8025 143.747C77.8025 143.947 77.7224 144.068 77.5622 144.068C77.5222 144.068 77.4421 144.068 77.362 144.028L71.7149 140.784C71.4746 140.623 71.2744 140.303 71.2744 140.023C71.2744 139.822 71.3545 139.702 71.5147 139.702ZM71.5147 139.422C71.1943 139.422 70.994 139.662 70.954 140.023C70.954 140.423 71.1943 140.824 71.5547 141.024L77.2018 144.268C77.3219 144.348 77.4421 144.348 77.5622 144.348C77.8826 144.348 78.0829 144.108 78.1229 143.747C78.1229 143.347 77.8826 142.946 77.5222 142.746L71.8351 139.502C71.755 139.462 71.6348 139.422 71.5147 139.422Z" fill="#50E6FF"/>
<path d="M77.362 143.026C77.6023 143.146 77.8026 143.507 77.8026 143.787C77.8026 144.068 77.6023 144.188 77.362 144.028L74.2381 142.225L74.3583 141.985C74.118 141.865 74.1981 141.825 74.1981 141.584C74.1981 141.304 73.9578 141.464 74.1981 141.625L74.3983 141.344L77.362 143.026Z" fill="#D5F9FD"/>
<path d="M74.2782 141.424C74.2782 141.184 74.078 141.304 74.2782 141.424V141.424Z" fill="#D5F9FD"/>
<path d="M74.158 141.584C74.158 141.304 73.9177 141.464 74.158 141.584V141.584Z" fill="#D5F9FD"/>
<path d="M74.3182 141.424L74.3983 141.304H74.3583L74.2782 141.384L74.3182 141.424Z" fill="#D5F9FD"/>
<path d="M77.4821 143.907L74.3582 142.105L74.4784 141.865C74.2381 141.745 74.3182 141.705 74.3182 141.464C74.3182 141.464 74.3182 141.464 74.2781 141.464L74.158 141.625C74.158 141.865 74.0779 141.905 74.3182 142.025L74.198 142.265L77.3219 144.068C77.5222 144.188 77.6824 144.148 77.7224 143.988C77.6824 143.947 77.5622 143.947 77.4821 143.907Z" fill="#45CAF2"/>
<path d="M77.4822 141.424L76.481 140.824L76.4009 140.984L77.3621 141.544C77.5623 141.665 77.7225 141.625 77.7626 141.464C77.6825 141.504 77.5623 141.504 77.4822 141.424Z" fill="#45CAF2"/>
<path d="M74.3181 141.424C74.3181 141.424 74.2782 141.384 74.3181 141.424C74.2782 141.424 74.2782 141.424 74.3181 141.424Z" fill="#D5F9FD"/>
<path d="M77.5221 146.671C77.442 146.671 77.3619 146.631 77.2418 146.591L71.6348 143.347C71.3544 143.187 71.1141 142.786 71.1141 142.466C71.1141 142.145 71.3144 142.025 71.5146 142.025C71.5947 142.025 71.6748 142.065 71.795 142.105L77.442 145.349C77.7224 145.509 77.9627 145.91 77.9627 146.23C77.9226 146.511 77.7224 146.671 77.5221 146.671Z" fill="#0078D4"/>
<path d="M71.5147 142.145C71.5547 142.145 71.6348 142.145 71.7149 142.185L77.362 145.429C77.6023 145.55 77.8025 145.91 77.8025 146.19C77.8025 146.391 77.7224 146.511 77.5622 146.511C77.5222 146.511 77.4421 146.511 77.362 146.471L71.7149 143.187C71.4746 143.066 71.2744 142.706 71.2744 142.426C71.2744 142.265 71.3545 142.145 71.5147 142.145ZM71.5147 141.825C71.1943 141.825 70.994 142.065 70.954 142.426C70.954 142.826 71.1943 143.227 71.5547 143.427L77.2018 146.671C77.3219 146.751 77.4421 146.751 77.5622 146.751C77.8826 146.751 78.0829 146.511 78.1229 146.15C78.1229 145.75 77.8826 145.349 77.5222 145.149L71.8351 141.945C71.755 141.865 71.6348 141.825 71.5147 141.825Z" fill="#50E6FF"/>
<path d="M77.362 145.469C77.6023 145.589 77.8026 145.95 77.8026 146.23C77.8026 146.511 77.6023 146.631 77.362 146.471L72.516 143.667L72.6361 142.746L77.362 145.469Z" fill="#D5F9FD"/>
<path d="M73.7175 141.184L73.9177 141.064C74.0379 140.984 74.158 141.024 74.3182 141.104L74.118 141.224C73.9578 141.104 73.8376 141.104 73.7175 141.184Z" fill="#45CAF2"/>
<path d="M74.1179 141.224C74.4383 141.424 74.6786 141.865 74.6786 142.225C74.6786 142.586 74.4383 142.746 74.1179 142.546C73.7975 142.345 73.5572 141.905 73.5572 141.544C73.5572 141.184 73.7975 141.024 74.1179 141.224Z" fill="#84ECFD"/>
<path d="M74.7186 142.466L74.5184 142.586C74.6385 142.546 74.6786 142.386 74.6786 142.225C74.6786 141.865 74.4383 141.424 74.1179 141.224L74.3181 141.104C74.6385 141.304 74.8788 141.745 74.8788 142.105C74.8788 142.265 74.8388 142.386 74.7186 142.466Z" fill="#45CAF2"/>
<path d="M75.8802 139.782L76.0805 139.662C76.2006 139.582 76.3208 139.622 76.481 139.702L76.2807 139.822C76.1205 139.742 76.0004 139.742 75.8802 139.782Z" fill="#45CAF2"/>
<path d="M76.2807 139.822C76.6011 140.022 76.8414 140.463 76.8414 140.823C76.8414 141.184 76.6011 141.344 76.2807 141.144C75.9603 140.944 75.72 140.503 75.72 140.143C75.72 139.782 75.9603 139.662 76.2807 139.822Z" fill="#84ECFD"/>
<path d="M76.8814 141.064L76.6812 141.184C76.8013 141.144 76.8414 140.984 76.8414 140.823C76.8414 140.463 76.6011 140.022 76.2807 139.822L76.4809 139.702C76.8013 139.902 77.0416 140.343 77.0416 140.703C77.0416 140.904 77.0016 141.024 76.8814 141.064Z" fill="#45CAF2"/>
<path d="M77.4822 146.31L72.9966 143.707L73.1167 143.467C73.0767 143.507 72.9966 143.547 72.9966 143.627L72.8764 143.867L77.3621 146.471C77.5623 146.591 77.7225 146.551 77.7626 146.391C77.6825 146.391 77.5623 146.391 77.4822 146.31Z" fill="#45CAF2"/>
<path d="M72.1154 142.586L72.3157 142.466C72.4358 142.385 72.556 142.426 72.7162 142.506L72.5159 142.626C72.3557 142.506 72.2356 142.506 72.1154 142.586Z" fill="#45CAF2"/>
<path d="M72.516 142.626C72.8364 142.826 73.0767 143.267 73.0767 143.627C73.0767 143.987 72.8364 144.148 72.516 143.947C72.1956 143.747 71.9553 143.307 71.9553 142.946C71.9553 142.586 72.1956 142.426 72.516 142.626Z" fill="#84ECFD"/>
<path d="M73.1167 143.867L72.9165 143.987C73.0366 143.947 73.0767 143.787 73.0767 143.627C73.0767 143.267 72.8364 142.826 72.516 142.626L72.7162 142.506C73.0366 142.706 73.2769 143.146 73.2769 143.507C73.2769 143.667 73.2369 143.787 73.1167 143.867Z" fill="#45CAF2"/>
<defs>
<linearGradient id="paint0_linear" x1="120.82" y1="52.4811" x2="167.596" y2="80.0713" gradientUnits="userSpaceOnUse">
<stop stop-color="#50E6FF"/>
<stop offset="0.7998" stop-color="#0078D4"/>
</linearGradient>
<linearGradient id="paint1_linear" x1="300.274" y1="157.607" x2="351.163" y2="230.096" gradientUnits="userSpaceOnUse">
<stop stop-color="#50E6FF"/>
<stop offset="0.7998" stop-color="#0078D4"/>
</linearGradient>
<linearGradient id="paint2_linear" x1="288.381" y1="110.903" x2="224.25" y2="40.0829" gradientUnits="userSpaceOnUse">
<stop stop-color="#50E6FF"/>
<stop offset="0.397" stop-color="#D5F9FD"/>
</linearGradient>
<linearGradient id="paint3_linear" x1="110.654" y1="110.949" x2="331.328" y2="110.949" gradientUnits="userSpaceOnUse">
<stop stop-color="#50E6FF"/>
<stop offset="0.397" stop-color="#D5F9FD"/>
</linearGradient>
<radialGradient id="paint4_radial" cx="0" cy="0" r="1" gradientUnits="userSpaceOnUse" gradientTransform="translate(199.588 51.3774) scale(131.403)">
<stop stop-color="#B1F4FF"/>
<stop offset="0.2721" stop-color="#50E6FF"/>
<stop offset="0.6879" stop-color="#0078D4"/>
<stop offset="1" stop-color="#114D7C"/>
</radialGradient>
<radialGradient id="paint5_radial" cx="0" cy="0" r="1" gradientUnits="userSpaceOnUse" gradientTransform="translate(199.588 51.3775) scale(131.403)">
<stop stop-color="#B1F4FF"/>
<stop offset="0.2721" stop-color="#50E6FF"/>
<stop offset="0.6879" stop-color="#0078D4"/>
<stop offset="1" stop-color="#114D7C"/>
</radialGradient>
<radialGradient id="paint6_radial" cx="0" cy="0" r="1" gradientUnits="userSpaceOnUse" gradientTransform="translate(199.588 51.3773) scale(131.403)">
<stop stop-color="#B1F4FF"/>
<stop offset="0.2721" stop-color="#50E6FF"/>
<stop offset="0.6879" stop-color="#0078D4"/>
<stop offset="1" stop-color="#114D7C"/>
</radialGradient>
<radialGradient id="paint7_radial" cx="0" cy="0" r="1" gradientUnits="userSpaceOnUse" gradientTransform="translate(199.588 51.3774) scale(131.403)">
<stop stop-color="#B1F4FF"/>
<stop offset="0.2721" stop-color="#50E6FF"/>
<stop offset="0.6879" stop-color="#0078D4"/>
<stop offset="1" stop-color="#114D7C"/>
</radialGradient>
<radialGradient id="paint8_radial" cx="0" cy="0" r="1" gradientUnits="userSpaceOnUse" gradientTransform="translate(172.24 107.755) scale(34.4732)">
<stop stop-color="#B1F4FF"/>
<stop offset="0.2721" stop-color="#50E6FF"/>
<stop offset="0.6879" stop-color="#0078D4"/>
<stop offset="1" stop-color="#114D7C"/>
</radialGradient>
<radialGradient id="paint9_radial" cx="0" cy="0" r="1" gradientUnits="userSpaceOnUse" gradientTransform="translate(172.24 107.755) scale(34.4732)">
<stop stop-color="#B1F4FF"/>
<stop offset="0.2721" stop-color="#50E6FF"/>
<stop offset="0.6879" stop-color="#0078D4"/>
<stop offset="1" stop-color="#114D7C"/>
</radialGradient>
<radialGradient id="paint10_radial" cx="0" cy="0" r="1" gradientUnits="userSpaceOnUse" gradientTransform="translate(172.24 107.755) scale(34.4732)">
<stop stop-color="#B1F4FF"/>
<stop offset="0.2721" stop-color="#50E6FF"/>
<stop offset="0.6879" stop-color="#0078D4"/>
<stop offset="1" stop-color="#114D7C"/>
</radialGradient>
<radialGradient id="paint11_radial" cx="0" cy="0" r="1" gradientUnits="userSpaceOnUse" gradientTransform="translate(172.003 107.708) scale(34.4731)">
<stop stop-color="#B1F4FF"/>
<stop offset="0.2721" stop-color="#50E6FF"/>
<stop offset="0.6879" stop-color="#0078D4"/>
<stop offset="1" stop-color="#114D7C"/>
</radialGradient>
<radialGradient id="paint12_radial" cx="0" cy="0" r="1" gradientUnits="userSpaceOnUse" gradientTransform="translate(172.003 107.708) scale(34.4731)">
<stop stop-color="#B1F4FF"/>
<stop offset="0.2721" stop-color="#50E6FF"/>
<stop offset="0.6879" stop-color="#0078D4"/>
<stop offset="1" stop-color="#114D7C"/>
</radialGradient>
<radialGradient id="paint13_radial" cx="0" cy="0" r="1" gradientUnits="userSpaceOnUse" gradientTransform="translate(172.003 107.708) scale(34.4731)">
<stop stop-color="#B1F4FF"/>
<stop offset="0.2721" stop-color="#50E6FF"/>
<stop offset="0.6879" stop-color="#0078D4"/>
<stop offset="1" stop-color="#114D7C"/>
</radialGradient>
<radialGradient id="paint14_radial" cx="0" cy="0" r="1" gradientUnits="userSpaceOnUse" gradientTransform="translate(171.84 107.443) scale(34.4732)">
<stop stop-color="#B1F4FF"/>
<stop offset="0.2721" stop-color="#50E6FF"/>
<stop offset="0.6879" stop-color="#0078D4"/>
<stop offset="1" stop-color="#114D7C"/>
</radialGradient>
<radialGradient id="paint15_radial" cx="0" cy="0" r="1" gradientUnits="userSpaceOnUse" gradientTransform="translate(171.84 107.443) scale(34.4732)">
<stop stop-color="#B1F4FF"/>
<stop offset="0.2721" stop-color="#50E6FF"/>
<stop offset="0.6879" stop-color="#0078D4"/>
<stop offset="1" stop-color="#114D7C"/>
</radialGradient>
<radialGradient id="paint16_radial" cx="0" cy="0" r="1" gradientUnits="userSpaceOnUse" gradientTransform="translate(171.84 107.443) scale(34.4732)">
<stop stop-color="#B1F4FF"/>
<stop offset="0.2721" stop-color="#50E6FF"/>
<stop offset="0.6879" stop-color="#0078D4"/>
<stop offset="1" stop-color="#114D7C"/>
</radialGradient>
<radialGradient id="paint17_radial" cx="0" cy="0" r="1" gradientUnits="userSpaceOnUse" gradientTransform="translate(171.967 107.687) scale(34.4731)">
<stop stop-color="#B1F4FF"/>
<stop offset="0.2721" stop-color="#50E6FF"/>
<stop offset="0.6879" stop-color="#0078D4"/>
<stop offset="1" stop-color="#114D7C"/>
</radialGradient>
<radialGradient id="paint18_radial" cx="0" cy="0" r="1" gradientUnits="userSpaceOnUse" gradientTransform="translate(171.967 107.687) scale(34.4731)">
<stop stop-color="#B1F4FF"/>
<stop offset="0.2721" stop-color="#50E6FF"/>
<stop offset="0.6879" stop-color="#0078D4"/>
<stop offset="1" stop-color="#114D7C"/>
</radialGradient>
<radialGradient id="paint19_radial" cx="0" cy="0" r="1" gradientUnits="userSpaceOnUse" gradientTransform="translate(171.967 107.687) scale(34.4731)">
<stop stop-color="#B1F4FF"/>
<stop offset="0.2721" stop-color="#50E6FF"/>
<stop offset="0.6879" stop-color="#0078D4"/>
<stop offset="1" stop-color="#114D7C"/>
</radialGradient>
<radialGradient id="paint20_radial" cx="0" cy="0" r="1" gradientUnits="userSpaceOnUse" gradientTransform="translate(171.875 107.495) scale(34.4731)">
<stop stop-color="#B1F4FF"/>
<stop offset="0.2721" stop-color="#50E6FF"/>
<stop offset="0.6879" stop-color="#0078D4"/>
<stop offset="1" stop-color="#114D7C"/>
</radialGradient>
<radialGradient id="paint21_radial" cx="0" cy="0" r="1" gradientUnits="userSpaceOnUse" gradientTransform="translate(171.875 107.495) scale(34.4731)">
<stop stop-color="#B1F4FF"/>
<stop offset="0.2721" stop-color="#50E6FF"/>
<stop offset="0.6879" stop-color="#0078D4"/>
<stop offset="1" stop-color="#114D7C"/>
</radialGradient>
<radialGradient id="paint22_radial" cx="0" cy="0" r="1" gradientUnits="userSpaceOnUse" gradientTransform="translate(171.875 107.495) scale(34.4731)">
<stop stop-color="#B1F4FF"/>
<stop offset="0.2721" stop-color="#50E6FF"/>
<stop offset="0.6879" stop-color="#0078D4"/>
<stop offset="1" stop-color="#114D7C"/>
</radialGradient>
<radialGradient id="paint23_radial" cx="0" cy="0" r="1" gradientUnits="userSpaceOnUse" gradientTransform="translate(172.24 116.305) scale(34.4732)">
<stop stop-color="#B1F4FF"/>
<stop offset="0.2721" stop-color="#50E6FF"/>
<stop offset="0.6879" stop-color="#0078D4"/>
<stop offset="1" stop-color="#114D7C"/>
</radialGradient>
<radialGradient id="paint24_radial" cx="0" cy="0" r="1" gradientUnits="userSpaceOnUse" gradientTransform="translate(172.24 116.305) scale(34.4732)">
<stop stop-color="#B1F4FF"/>
<stop offset="0.2721" stop-color="#50E6FF"/>
<stop offset="0.6879" stop-color="#0078D4"/>
<stop offset="1" stop-color="#114D7C"/>
</radialGradient>
<radialGradient id="paint25_radial" cx="0" cy="0" r="1" gradientUnits="userSpaceOnUse" gradientTransform="translate(172.24 116.305) scale(34.4732)">
<stop stop-color="#B1F4FF"/>
<stop offset="0.2721" stop-color="#50E6FF"/>
<stop offset="0.6879" stop-color="#0078D4"/>
<stop offset="1" stop-color="#114D7C"/>
</radialGradient>
<radialGradient id="paint26_radial" cx="0" cy="0" r="1" gradientUnits="userSpaceOnUse" gradientTransform="translate(172.003 116.258) scale(34.4731)">
<stop stop-color="#B1F4FF"/>
<stop offset="0.2721" stop-color="#50E6FF"/>
<stop offset="0.6879" stop-color="#0078D4"/>
<stop offset="1" stop-color="#114D7C"/>
</radialGradient>
<radialGradient id="paint27_radial" cx="0" cy="0" r="1" gradientUnits="userSpaceOnUse" gradientTransform="translate(172.003 116.258) scale(34.4731)">
<stop stop-color="#B1F4FF"/>
<stop offset="0.2721" stop-color="#50E6FF"/>
<stop offset="0.6879" stop-color="#0078D4"/>
<stop offset="1" stop-color="#114D7C"/>
</radialGradient>
<radialGradient id="paint28_radial" cx="0" cy="0" r="1" gradientUnits="userSpaceOnUse" gradientTransform="translate(172.003 116.258) scale(34.4731)">
<stop stop-color="#B1F4FF"/>
<stop offset="0.2721" stop-color="#50E6FF"/>
<stop offset="0.6879" stop-color="#0078D4"/>
<stop offset="1" stop-color="#114D7C"/>
</radialGradient>
<radialGradient id="paint29_radial" cx="0" cy="0" r="1" gradientUnits="userSpaceOnUse" gradientTransform="translate(171.84 115.993) scale(34.4732)">
<stop stop-color="#B1F4FF"/>
<stop offset="0.2721" stop-color="#50E6FF"/>
<stop offset="0.6879" stop-color="#0078D4"/>
<stop offset="1" stop-color="#114D7C"/>
</radialGradient>
<radialGradient id="paint30_radial" cx="0" cy="0" r="1" gradientUnits="userSpaceOnUse" gradientTransform="translate(171.84 115.993) scale(34.4732)">
<stop stop-color="#B1F4FF"/>
<stop offset="0.2721" stop-color="#50E6FF"/>
<stop offset="0.6879" stop-color="#0078D4"/>
<stop offset="1" stop-color="#114D7C"/>
</radialGradient>
<radialGradient id="paint31_radial" cx="0" cy="0" r="1" gradientUnits="userSpaceOnUse" gradientTransform="translate(171.84 115.993) scale(34.4732)">
<stop stop-color="#B1F4FF"/>
<stop offset="0.2721" stop-color="#50E6FF"/>
<stop offset="0.6879" stop-color="#0078D4"/>
<stop offset="1" stop-color="#114D7C"/>
</radialGradient>
<radialGradient id="paint32_radial" cx="0" cy="0" r="1" gradientUnits="userSpaceOnUse" gradientTransform="translate(171.967 116.237) scale(34.4731)">
<stop stop-color="#B1F4FF"/>
<stop offset="0.2721" stop-color="#50E6FF"/>
<stop offset="0.6879" stop-color="#0078D4"/>
<stop offset="1" stop-color="#114D7C"/>
</radialGradient>
<radialGradient id="paint33_radial" cx="0" cy="0" r="1" gradientUnits="userSpaceOnUse" gradientTransform="translate(171.967 116.237) scale(34.4731)">
<stop stop-color="#B1F4FF"/>
<stop offset="0.2721" stop-color="#50E6FF"/>
<stop offset="0.6879" stop-color="#0078D4"/>
<stop offset="1" stop-color="#114D7C"/>
</radialGradient>
<radialGradient id="paint34_radial" cx="0" cy="0" r="1" gradientUnits="userSpaceOnUse" gradientTransform="translate(171.967 116.237) scale(34.4731)">
<stop stop-color="#B1F4FF"/>
<stop offset="0.2721" stop-color="#50E6FF"/>
<stop offset="0.6879" stop-color="#0078D4"/>
<stop offset="1" stop-color="#114D7C"/>
</radialGradient>
<radialGradient id="paint35_radial" cx="0" cy="0" r="1" gradientUnits="userSpaceOnUse" gradientTransform="translate(171.875 116.045) scale(34.4731)">
<stop stop-color="#B1F4FF"/>
<stop offset="0.2721" stop-color="#50E6FF"/>
<stop offset="0.6879" stop-color="#0078D4"/>
<stop offset="1" stop-color="#114D7C"/>
</radialGradient>
<radialGradient id="paint36_radial" cx="0" cy="0" r="1" gradientUnits="userSpaceOnUse" gradientTransform="translate(171.875 116.045) scale(34.4731)">
<stop stop-color="#B1F4FF"/>
<stop offset="0.2721" stop-color="#50E6FF"/>
<stop offset="0.6879" stop-color="#0078D4"/>
<stop offset="1" stop-color="#114D7C"/>
</radialGradient>
<radialGradient id="paint37_radial" cx="0" cy="0" r="1" gradientUnits="userSpaceOnUse" gradientTransform="translate(171.875 116.045) scale(34.4731)">
<stop stop-color="#B1F4FF"/>
<stop offset="0.2721" stop-color="#50E6FF"/>
<stop offset="0.6879" stop-color="#0078D4"/>
<stop offset="1" stop-color="#114D7C"/>
</radialGradient>
<radialGradient id="paint38_radial" cx="0" cy="0" r="1" gradientUnits="userSpaceOnUse" gradientTransform="translate(172.24 124.943) scale(34.4732)">
<stop stop-color="#B1F4FF"/>
<stop offset="0.2721" stop-color="#50E6FF"/>
<stop offset="0.6879" stop-color="#0078D4"/>
<stop offset="1" stop-color="#114D7C"/>
</radialGradient>
<radialGradient id="paint39_radial" cx="0" cy="0" r="1" gradientUnits="userSpaceOnUse" gradientTransform="translate(172.24 124.943) scale(34.4732)">
<stop stop-color="#B1F4FF"/>
<stop offset="0.2721" stop-color="#50E6FF"/>
<stop offset="0.6879" stop-color="#0078D4"/>
<stop offset="1" stop-color="#114D7C"/>
</radialGradient>
<radialGradient id="paint40_radial" cx="0" cy="0" r="1" gradientUnits="userSpaceOnUse" gradientTransform="translate(172.24 124.943) scale(34.4732)">
<stop stop-color="#B1F4FF"/>
<stop offset="0.2721" stop-color="#50E6FF"/>
<stop offset="0.6879" stop-color="#0078D4"/>
<stop offset="1" stop-color="#114D7C"/>
</radialGradient>
<radialGradient id="paint41_radial" cx="0" cy="0" r="1" gradientUnits="userSpaceOnUse" gradientTransform="translate(172.003 124.896) scale(34.4731)">
<stop stop-color="#B1F4FF"/>
<stop offset="0.2721" stop-color="#50E6FF"/>
<stop offset="0.6879" stop-color="#0078D4"/>
<stop offset="1" stop-color="#114D7C"/>
</radialGradient>
<radialGradient id="paint42_radial" cx="0" cy="0" r="1" gradientUnits="userSpaceOnUse" gradientTransform="translate(172.003 124.896) scale(34.4731)">
<stop stop-color="#B1F4FF"/>
<stop offset="0.2721" stop-color="#50E6FF"/>
<stop offset="0.6879" stop-color="#0078D4"/>
<stop offset="1" stop-color="#114D7C"/>
</radialGradient>
<radialGradient id="paint43_radial" cx="0" cy="0" r="1" gradientUnits="userSpaceOnUse" gradientTransform="translate(172.003 124.896) scale(34.4731)">
<stop stop-color="#B1F4FF"/>
<stop offset="0.2721" stop-color="#50E6FF"/>
<stop offset="0.6879" stop-color="#0078D4"/>
<stop offset="1" stop-color="#114D7C"/>
</radialGradient>
<radialGradient id="paint44_radial" cx="0" cy="0" r="1" gradientUnits="userSpaceOnUse" gradientTransform="translate(171.84 124.631) scale(34.4732)">
<stop stop-color="#B1F4FF"/>
<stop offset="0.2721" stop-color="#50E6FF"/>
<stop offset="0.6879" stop-color="#0078D4"/>
<stop offset="1" stop-color="#114D7C"/>
</radialGradient>
<radialGradient id="paint45_radial" cx="0" cy="0" r="1" gradientUnits="userSpaceOnUse" gradientTransform="translate(171.84 124.631) scale(34.4732)">
<stop stop-color="#B1F4FF"/>
<stop offset="0.2721" stop-color="#50E6FF"/>
<stop offset="0.6879" stop-color="#0078D4"/>
<stop offset="1" stop-color="#114D7C"/>
</radialGradient>
<radialGradient id="paint46_radial" cx="0" cy="0" r="1" gradientUnits="userSpaceOnUse" gradientTransform="translate(171.84 124.631) scale(34.4732)">
<stop stop-color="#B1F4FF"/>
<stop offset="0.2721" stop-color="#50E6FF"/>
<stop offset="0.6879" stop-color="#0078D4"/>
<stop offset="1" stop-color="#114D7C"/>
</radialGradient>
<radialGradient id="paint47_radial" cx="0" cy="0" r="1" gradientUnits="userSpaceOnUse" gradientTransform="translate(171.967 124.875) scale(34.4731)">
<stop stop-color="#B1F4FF"/>
<stop offset="0.2721" stop-color="#50E6FF"/>
<stop offset="0.6879" stop-color="#0078D4"/>
<stop offset="1" stop-color="#114D7C"/>
</radialGradient>
<radialGradient id="paint48_radial" cx="0" cy="0" r="1" gradientUnits="userSpaceOnUse" gradientTransform="translate(171.967 124.875) scale(34.4731)">
<stop stop-color="#B1F4FF"/>
<stop offset="0.2721" stop-color="#50E6FF"/>
<stop offset="0.6879" stop-color="#0078D4"/>
<stop offset="1" stop-color="#114D7C"/>
</radialGradient>
<radialGradient id="paint49_radial" cx="0" cy="0" r="1" gradientUnits="userSpaceOnUse" gradientTransform="translate(171.967 124.875) scale(34.4731)">
<stop stop-color="#B1F4FF"/>
<stop offset="0.2721" stop-color="#50E6FF"/>
<stop offset="0.6879" stop-color="#0078D4"/>
<stop offset="1" stop-color="#114D7C"/>
</radialGradient>
<radialGradient id="paint50_radial" cx="0" cy="0" r="1" gradientUnits="userSpaceOnUse" gradientTransform="translate(171.875 124.683) scale(34.4731)">
<stop stop-color="#B1F4FF"/>
<stop offset="0.2721" stop-color="#50E6FF"/>
<stop offset="0.6879" stop-color="#0078D4"/>
<stop offset="1" stop-color="#114D7C"/>
</radialGradient>
<radialGradient id="paint51_radial" cx="0" cy="0" r="1" gradientUnits="userSpaceOnUse" gradientTransform="translate(171.875 124.683) scale(34.4731)">
<stop stop-color="#B1F4FF"/>
<stop offset="0.2721" stop-color="#50E6FF"/>
<stop offset="0.6879" stop-color="#0078D4"/>
<stop offset="1" stop-color="#114D7C"/>
</radialGradient>
<radialGradient id="paint52_radial" cx="0" cy="0" r="1" gradientUnits="userSpaceOnUse" gradientTransform="translate(171.875 124.683) scale(34.4731)">
<stop stop-color="#B1F4FF"/>
<stop offset="0.2721" stop-color="#50E6FF"/>
<stop offset="0.6879" stop-color="#0078D4"/>
<stop offset="1" stop-color="#114D7C"/>
</radialGradient>
<linearGradient id="paint53_linear" x1="-4.89865" y1="132.412" x2="104.705" y2="237.117" gradientUnits="userSpaceOnUse">
<stop stop-color="#50E6FF"/>
<stop offset="0.7998" stop-color="#0078D4"/>
</linearGradient>
</defs>
</svg>
